<?xml version="1.0" encoding="utf-8" ?>
<svg baseProfile="tiny" fill-rule="evenodd" height="10.988798193167895px" version="1.2" width="4.495802145946072px" xmlns="http://www.w3.org/2000/svg" xmlns:ev="http://www.w3.org/2001/xml-events" xmlns:xlink="http://www.w3.org/1999/xlink"><defs /><path d="M -0.298718,10.8954 C -0.262498,10.9188 -0.0983141,10.9693 0,10.9638 C 0.0136568,10.9877 0.105337,11.0027 0.220385,10.9888 C 0.221282,11.0157 0.274277,11.0017 0.38672,10.9862 C 0.378598,11.0151 0.409427,10.982 0.515006,10.9664 C 0.500449,10.9965 0.518171,10.9512 0.617214,10.9355 C 0.598112,10.9662 0.607894,10.9131 0.701669,10.8973 L 0.77401,10.8542 L 0.838017,10.8079 L 0.896217,10.7593 L 0.950307,10.7094 L 1.00143,10.6585 L 1.05035,10.607 L 1.09761,10.5551 L 1.14357,10.5029 L 1.18849,10.4506 L 1.23254,10.3982 L 1.27585,10.3457 L 1.31853,10.2932 L 1.36063,10.2408 L 1.40222,10.1883 L 1.44334,10.136 L 1.48401,10.0836 L 1.52427,10.0313 L 1.56413,9.97911 L 1.60361,9.92696 L 1.64272,9.87487 L 1.68149,9.82285 L 1.71991,9.7709 L 1.75801,9.71903 L 1.79577,9.66723 L 1.83322,9.61551 L 1.87036,9.56386 L 1.90719,9.51229 L 1.94371,9.4608 L 1.97994,9.4094 L 2.01587,9.35807 L 2.05151,9.30682 L 2.08686,9.25565 L 2.12192,9.20456 L 2.1567,9.15355 L 2.19119,9.10262 L 2.2254,9.05177 L 2.25934,9.00101 L 2.29299,8.95032 L 2.32636,8.89971 L 2.35946,8.84919 L 2.39228,8.79875 L 2.42483,8.74838 L 2.4571,8.6981 L 2.48911,8.6479 L 2.52084,8.59777 L 2.55229,8.54773 L 2.58348,8.49777 L 2.6144,8.44789 L 2.64505,8.39808 L 2.67543,8.34836 L 2.70554,8.29871 L 2.73538,8.24915 L 2.76496,8.19966 L 2.79427,8.15026 L 2.82332,8.10093 L 2.85209,8.05168 L 2.88061,8.0025 L 2.90886,7.95341 L 2.93684,7.9044 L 2.96456,7.85546 L 2.99202,7.8066 L 3.01922,7.75781 L 3.04615,7.70911 L 3.07282,7.66048 L 3.09923,7.61193 L 3.12537,7.56345 L 3.15126,7.51506 L 3.17689,7.46673 L 3.20225,7.41849 L 3.22736,7.37032 L 3.25221,7.32222 L 3.2768,7.27421 L 3.30113,7.22626 L 3.3252,7.1784 L 3.34902,7.1306 L 3.37258,7.08289 L 3.39588,7.03524 L 3.41892,6.98767 L 3.44171,6.94018 L 3.46425,6.89276 L 3.48652,6.84542 L 3.50855,6.79814 L 3.53032,6.75095 L 3.55183,6.70382 L 3.5731,6.65677 L 3.5941,6.60979 L 3.61486,6.56289 L 3.63536,6.51606 L 3.65562,6.4693 L 3.67562,6.42261 L 3.69537,6.376 L 3.71486,6.32946 L 3.73411,6.28299 L 3.75311,6.23659 L 3.77186,6.19026 L 3.79036,6.14401 L 3.80861,6.09782 L 3.82661,6.05171 L 3.84436,6.00567 L 3.86187,5.9597 L 3.87912,5.91379 L 3.89613,5.86796 L 3.9129,5.82221 L 3.92942,5.77652 L 3.94569,5.7309 L 3.96172,5.68535 L 3.9775,5.63987 L 3.99303,5.59445 L 4.00833,5.54911 L 4.02337,5.50384 L 4.03818,5.45864 L 4.05274,5.4135 L 4.06706,5.36844 L 4.08114,5.32344 L 4.09497,5.27851 L 4.10856,5.23365 L 4.12191,5.18886 L 4.13502,5.14413 L 4.14789,5.09947 L 4.16052,5.05488 L 4.17291,5.01036 L 4.18506,4.96591 L 4.19697,4.92152 L 4.20865,4.87719 L 4.22008,4.83294 L 4.23128,4.78875 L 4.24223,4.74463 L 4.25295,4.70057 L 4.26344,4.65658 L 4.27368,4.61266 L 4.2837,4.5688 L 4.29347,4.52501 L 4.30301,4.48128 L 4.31231,4.43762 L 4.32138,4.39402 L 4.33022,4.35049 L 4.33882,4.30703 L 4.34719,4.26362 L 4.35532,4.22029 L 4.36322,4.17701 L 4.37089,4.1338 L 4.37833,4.09066 L 4.38553,4.04758 L 4.39251,4.00456 L 4.39925,3.96161 L 4.40576,3.91871 L 4.41204,3.87589 L 4.41809,3.83312 L 4.42391,3.79042 L 4.4295,3.74778 L 4.43487,3.70521 L 4.44,3.6627 L 4.44491,3.62025 L 4.44958,3.57786 L 4.45403,3.53553 L 4.45826,3.49327 L 4.46225,3.45106 L 4.46602,3.40892 L 4.46957,3.36684 L 4.47288,3.32483 L 4.47597,3.28287 L 4.47884,3.24097 L 4.48148,3.19914 L 4.4839,3.15736 L 4.48609,3.11565 L 4.48806,3.074 L 4.48981,3.03241 L 4.49133,2.99087 L 4.49263,2.9494 L 4.49371,2.90799 L 4.49456,2.86664 L 4.4952,2.82534 L 4.49561,2.78411 L 4.4958,2.74293 L 4.49577,2.70182 L 4.49552,2.66076 L 4.49505,2.61977 L 4.49436,2.57883 L 4.49346,2.53795 L 4.49233,2.49713 L 4.49098,2.45636 L 4.48942,2.41566 L 4.48764,2.37501 L 4.48564,2.33442 L 4.48342,2.29389 L 4.48099,2.25342 L 4.47833,2.213 L 4.47547,2.17264 L 4.47238,2.13234 L 4.46909,2.0921 L 4.46557,2.05191 L 4.46184,2.01178 L 4.4579,1.97171 L 4.45374,1.93169 L 4.44937,1.89173 L 4.44479,1.85182 L 4.43999,1.81198 L 4.43498,1.77218 L 4.42975,1.73245 L 4.42432,1.69277 L 4.41867,1.65314 L 4.41281,1.61357 L 4.40674,1.57406 L 4.40045,1.5346 L 4.39396,1.49519 L 4.38726,1.45584 L 4.38035,1.41655 L 4.37322,1.37731 L 4.36589,1.33812 L 4.35835,1.29899 L 4.3506,1.25992 L 4.34264,1.22089 L 4.33448,1.18193 L 4.3261,1.14301 L 4.31752,1.10415 L 4.30873,1.06534 L 4.29974,1.02659 L 4.29054,0.98789 L 4.28113,0.949243 L 4.27152,0.910649 L 4.2617,0.872108 L 4.25167,0.83362 L 4.24144,0.795185 L 4.23101,0.756802 L 4.22037,0.718472 L 4.20953,0.680194 L 4.19849,0.641968 L 4.18724,0.603795 L 4.17579,0.565673 L 4.16414,0.527603 L 4.15228,0.489585 L 4.14022,0.451619 L 4.12796,0.413704 L 4.1155,0.37584 L 4.10284,0.338028 L 4.08998,0.300266 L 4.07691,0.262556 L 4.06365,0.224896 L 4.05019,0.187288 L 4.03653,0.149729 L 4.02267,0.112222 L 4.00861,0.0747642 L 3.99435,0.0373571 L 3.97989,0 Z" fill="#000" /></svg>