<?xml version="1.0" encoding="utf-8" ?>
<svg baseProfile="tiny" fill-rule="evenodd" height="11.421165437903255px" version="1.2" width="3.929813612019643px" xmlns="http://www.w3.org/2000/svg" xmlns:ev="http://www.w3.org/2001/xml-events" xmlns:xlink="http://www.w3.org/1999/xlink"><defs /><path d="M 2.07437,11.3925 L 2.30757,11.4212 L 2.47475,11.4154 L 2.59572,11.3895 L 2.68477,11.3515 L 2.75245,11.3057 L 2.80601,11.2551 L 2.8503,11.2013 L 2.88847,11.1456 L 2.92258,11.0889 L 2.95395,11.0314 L 2.98344,10.9737 L 3.01159,10.9158 L 3.03875,10.858 L 3.06515,10.8002 L 3.09093,10.7425 L 3.11617,10.6849 L 3.14093,10.6275 L 3.16524,10.5702 L 3.18913,10.5131 L 3.21261,10.4561 L 3.23568,10.3993 L 3.25835,10.3426 L 3.28063,10.2861 L 3.30252,10.2297 L 3.32401,10.1735 L 3.34511,10.1174 L 3.36581,10.0614 L 3.38613,10.0056 L 3.40605,9.9499 L 3.42559,9.89436 L 3.44473,9.83895 L 3.46349,9.78367 L 3.48186,9.72853 L 3.49984,9.67351 L 3.51743,9.61863 L 3.53464,9.56388 L 3.55147,9.50926 L 3.56791,9.45477 L 3.58398,9.40041 L 3.59966,9.34617 L 3.61496,9.29207 L 3.62988,9.23808 L 3.64443,9.18423 L 3.6586,9.1305 L 3.6724,9.07689 L 3.68582,9.02341 L 3.69886,8.97004 L 3.71154,8.91681 L 3.72385,8.86369 L 3.73578,8.81069 L 3.74735,8.75782 L 3.75855,8.70506 L 3.76939,8.65243 L 3.77986,8.59991 L 3.78997,8.54751 L 3.79971,8.49523 L 3.80909,8.44306 L 3.81812,8.39101 L 3.82678,8.33908 L 3.83508,8.28726 L 3.84303,8.23556 L 3.85063,8.18397 L 3.85786,8.13249 L 3.86475,8.08113 L 3.87128,8.02987 L 3.87746,7.97873 L 3.88329,7.9277 L 3.88877,7.87678 L 3.8939,7.82597 L 3.89869,7.77527 L 3.90313,7.72468 L 3.90722,7.6742 L 3.91097,7.62382 L 3.91438,7.57356 L 3.91744,7.52339 L 3.92016,7.47334 L 3.92255,7.42339 L 3.9246,7.37354 L 3.9263,7.3238 L 3.92767,7.27417 L 3.92871,7.22463 L 3.92941,7.1752 L 3.92978,7.12587 L 3.92981,7.07665 L 3.92952,7.02752 L 3.92889,6.9785 L 3.92793,6.92958 L 3.92665,6.88076 L 3.92503,6.83203 L 3.92309,6.78341 L 3.92083,6.73488 L 3.91824,6.68645 L 3.91533,6.63812 L 3.91209,6.58989 L 3.90853,6.54175 L 3.90465,6.49371 L 3.90045,6.44576 L 3.89594,6.39791 L 3.8911,6.35016 L 3.88595,6.30249 L 3.88048,6.25493 L 3.8747,6.20745 L 3.8686,6.16007 L 3.86219,6.11278 L 3.85547,6.06558 L 3.84844,6.01848 L 3.84109,5.97146 L 3.83344,5.92454 L 3.82548,5.8777 L 3.81721,5.83096 L 3.80863,5.7843 L 3.79975,5.73773 L 3.79056,5.69125 L 3.78107,5.64486 L 3.77128,5.59856 L 3.76118,5.55234 L 3.75079,5.50621 L 3.74009,5.46017 L 3.72909,5.41421 L 3.71779,5.36834 L 3.7062,5.32255 L 3.69431,5.27685 L 3.68212,5.23123 L 3.66964,5.1857 L 3.65687,5.14025 L 3.6438,5.09488 L 3.63044,5.04959 L 3.61678,5.00439 L 3.60284,4.95927 L 3.5886,4.91423 L 3.57408,4.86927 L 3.55927,4.82439 L 3.54417,4.77959 L 3.52878,4.73487 L 3.51311,4.69023 L 3.49716,4.64567 L 3.48092,4.60119 L 3.46439,4.55678 L 3.44759,4.51246 L 3.4305,4.46821 L 3.41313,4.42404 L 3.39548,4.37994 L 3.37755,4.33593 L 3.35934,4.29198 L 3.34086,4.24812 L 3.3221,4.20433 L 3.30306,4.16061 L 3.28375,4.11697 L 3.26416,4.0734 L 3.2443,4.02991 L 3.22417,3.98649 L 3.20376,3.94314 L 3.18308,3.89987 L 3.16214,3.85667 L 3.14092,3.81354 L 3.11943,3.77048 L 3.09768,3.7275 L 3.07566,3.68458 L 3.05337,3.64174 L 3.03081,3.59897 L 3.00799,3.55626 L 2.98491,3.51363 L 2.96156,3.47107 L 2.93795,3.42857 L 2.91408,3.38614 L 2.88994,3.34379 L 2.86555,3.3015 L 2.84089,3.25928 L 2.81598,3.21712 L 2.79081,3.17503 L 2.76538,3.13301 L 2.73969,3.09106 L 2.71374,3.04917 L 2.68754,3.00735 L 2.66109,2.96559 L 2.63438,2.9239 L 2.60742,2.88228 L 2.58021,2.84072 L 2.55274,2.79922 L 2.52502,2.75779 L 2.49705,2.71642 L 2.46883,2.67511 L 2.44037,2.63387 L 2.41165,2.59269 L 2.38269,2.55157 L 2.35347,2.51052 L 2.32402,2.46953 L 2.29431,2.4286 L 2.26437,2.38773 L 2.23417,2.34692 L 2.20374,2.30617 L 2.17306,2.26548 L 2.14214,2.22485 L 2.11097,2.18429 L 2.07957,2.14378 L 2.04793,2.10333 L 2.01604,2.06294 L 1.98392,2.02261 L 1.95156,1.98234 L 1.91896,1.94213 L 1.88612,1.90197 L 1.85305,1.86187 L 1.81974,1.82183 L 1.7862,1.78185 L 1.75242,1.74192 L 1.71841,1.70205 L 1.68417,1.66224 L 1.64969,1.62248 L 1.61498,1.58278 L 1.58004,1.54313 L 1.54487,1.50354 L 1.50947,1.46401 L 1.47384,1.42453 L 1.43798,1.3851 L 1.4019,1.34573 L 1.36559,1.30641 L 1.32905,1.26715 L 1.29228,1.22794 L 1.25529,1.18878 L 1.21807,1.14968 L 1.18063,1.11062 L 1.14297,1.07162 L 1.10508,1.03268 L 1.06697,0.993783 L 1.02864,0.95494 L 0.990087,0.916149 L 0.951313,0.877408 L 0.91232,0.838719 L 0.873107,0.800081 L 0.833676,0.761493 L 0.794026,0.722956 L 0.754158,0.684468 L 0.714074,0.646031 L 0.673773,0.607643 L 0.633257,0.569305 L 0.592525,0.531015 L 0.551578,0.492775 L 0.510417,0.454583 L 0.469043,0.41644 L 0.427456,0.378345 L 0.385657,0.340298 L 0.343645,0.302299 L 0.301423,0.264348 L 0.25899,0.226443 L 0.216347,0.188586 L 0.173494,0.150776 L 0.130433,0.113013 L 0.0871627,0.0752956 L 0.043685,0.0376248 L 0,0 Z" fill="#000" /></svg>