<?xml version="1.0" encoding="utf-8" ?>
<svg baseProfile="tiny" fill-rule="evenodd" height="13.699442222714424px" version="1.2" width="4.144034933560761px" xmlns="http://www.w3.org/2000/svg" xmlns:ev="http://www.w3.org/2001/xml-events" xmlns:xlink="http://www.w3.org/1999/xlink"><defs /><path d="M -0.219757,13.6876 L 0,13.6994 L 0.161334,13.6786 L 0.283261,13.6386 L 0.378047,13.5879 L 0.45477,13.5305 L 0.519676,13.4693 L 0.576918,13.4056 L 0.629198,13.3405 L 0.678259,13.2747 L 0.725212,13.2085 L 0.770764,13.1421 L 0.815358,13.0758 L 0.859271,13.0095 L 0.902671,12.9434 L 0.945662,12.8774 L 0.988304,12.8116 L 1.03063,12.7459 L 1.07266,12.6804 L 1.1144,12.6151 L 1.15585,12.5499 L 1.19702,12.4848 L 1.2379,12.4199 L 1.27849,12.3551 L 1.31878,12.2904 L 1.35877,12.2259 L 1.39846,12.1615 L 1.43785,12.0972 L 1.47694,12.033 L 1.51572,11.969 L 1.55419,11.905 L 1.59235,11.8412 L 1.63021,11.7775 L 1.66775,11.7139 L 1.70498,11.6505 L 1.7419,11.5871 L 1.77851,11.5239 L 1.81481,11.4607 L 1.8508,11.3977 L 1.88648,11.3348 L 1.92185,11.272 L 1.95691,11.2093 L 1.99167,11.1467 L 2.02611,11.0843 L 2.06025,11.0219 L 2.09408,10.9596 L 2.1276,10.8975 L 2.16081,10.8354 L 2.19373,10.7735 L 2.22633,10.7117 L 2.25864,10.6499 L 2.29064,10.5883 L 2.32233,10.5268 L 2.35373,10.4654 L 2.38483,10.4041 L 2.41562,10.3429 L 2.44612,10.2818 L 2.47632,10.2208 L 2.50622,10.1599 L 2.53582,10.0991 L 2.56513,10.0384 L 2.59414,9.97778 L 2.62286,9.91729 L 2.65128,9.85689 L 2.67941,9.7966 L 2.70725,9.73641 L 2.7348,9.67631 L 2.76205,9.61632 L 2.78902,9.55642 L 2.81569,9.49663 L 2.84208,9.43693 L 2.86818,9.37733 L 2.89399,9.31782 L 2.91952,9.25841 L 2.94476,9.1991 L 2.96971,9.13989 L 2.99439,9.08077 L 3.01877,9.02174 L 3.04288,8.96282 L 3.0667,8.90398 L 3.09025,8.84524 L 3.11351,8.7866 L 3.13649,8.72805 L 3.15919,8.66959 L 3.18162,8.61123 L 3.20377,8.55296 L 3.22564,8.49478 L 3.24723,8.43669 L 3.26855,8.3787 L 3.2896,8.32079 L 3.31037,8.26298 L 3.33087,8.20526 L 3.35109,8.14763 L 3.37105,8.09009 L 3.39073,8.03264 L 3.41014,7.97528 L 3.42928,7.91801 L 3.44815,7.86083 L 3.46676,7.80374 L 3.48509,7.74673 L 3.50316,7.68982 L 3.52097,7.63299 L 3.5385,7.57625 L 3.55578,7.5196 L 3.57279,7.46303 L 3.58953,7.40655 L 3.60601,7.35016 L 3.62223,7.29385 L 3.63819,7.23763 L 3.65388,7.18149 L 3.66932,7.12544 L 3.6845,7.06948 L 3.69941,7.0136 L 3.71407,6.9578 L 3.72847,6.90209 L 3.74262,6.84646 L 3.7565,6.79091 L 3.77014,6.73545 L 3.78351,6.68007 L 3.79663,6.62477 L 3.8095,6.56956 L 3.82212,6.51443 L 3.83448,6.45938 L 3.84659,6.40441 L 3.85845,6.34952 L 3.87005,6.29472 L 3.88141,6.23999 L 3.89252,6.18535 L 3.90338,6.13078 L 3.91399,6.0763 L 3.92435,6.02189 L 3.93447,5.96757 L 3.94434,5.91332 L 3.95396,5.85915 L 3.96334,5.80506 L 3.97247,5.75105 L 3.98136,5.69712 L 3.99001,5.64326 L 3.99841,5.58949 L 4.00657,5.53579 L 4.01449,5.48217 L 4.02217,5.42862 L 4.02961,5.37515 L 4.0368,5.32176 L 4.04376,5.26844 L 4.05048,5.2152 L 4.05696,5.16203 L 4.06321,5.10894 L 4.06921,5.05593 L 4.07498,5.00299 L 4.08052,4.95012 L 4.08582,4.89733 L 4.09088,4.84462 L 4.09571,4.79197 L 4.10031,4.7394 L 4.10467,4.68691 L 4.1088,4.63448 L 4.1127,4.58213 L 4.11637,4.52986 L 4.11981,4.47765 L 4.12301,4.42552 L 4.12599,4.37346 L 4.12874,4.32147 L 4.13126,4.26955 L 4.13355,4.21771 L 4.13561,4.16593 L 4.13745,4.11423 L 4.13906,4.06259 L 4.14044,4.01103 L 4.1416,3.95954 L 4.14254,3.90811 L 4.14325,3.85676 L 4.14373,3.80548 L 4.14399,3.75426 L 4.14403,3.70312 L 4.14385,3.65204 L 4.14345,3.60103 L 4.14282,3.55009 L 4.14198,3.49922 L 4.14091,3.44842 L 4.13963,3.39768 L 4.13813,3.34701 L 4.1364,3.29641 L 4.13446,3.24588 L 4.1323,3.19541 L 4.12993,3.14501 L 4.12734,3.09468 L 4.12453,3.04441 L 4.12151,2.99421 L 4.11827,2.94407 L 4.11482,2.894 L 4.11115,2.844 L 4.10727,2.79406 L 4.10318,2.74418 L 4.09887,2.69437 L 4.09436,2.64463 L 4.08963,2.59495 L 4.08469,2.54533 L 4.07954,2.49578 L 4.07418,2.44629 L 4.06861,2.39687 L 4.06283,2.3475 L 4.05684,2.2982 L 4.05064,2.24896 L 4.04424,2.19978 L 4.03762,2.15066 L 4.0308,2.1016 L 4.02378,2.0526 L 4.01655,2.00366 L 4.00911,1.95478 L 4.00146,1.90596 L 3.99362,1.8572 L 3.98557,1.8085 L 3.97731,1.75986 L 3.96885,1.71128 L 3.96019,1.66275 L 3.95133,1.61429 L 3.94227,1.56588 L 3.933,1.51753 L 3.92354,1.46924 L 3.91387,1.42101 L 3.904,1.37283 L 3.89394,1.32471 L 3.88367,1.27665 L 3.87321,1.22865 L 3.86255,1.1807 L 3.85169,1.13281 L 3.84064,1.08497 L 3.82939,1.0372 L 3.81794,0.989475 L 3.8063,0.94181 L 3.79446,0.8942 L 3.78242,0.846646 L 3.7702,0.799148 L 3.75777,0.751705 L 3.74516,0.704317 L 3.73235,0.656983 L 3.71935,0.609705 L 3.70616,0.562482 L 3.69277,0.515312 L 3.6792,0.468198 L 3.66543,0.421137 L 3.65147,0.37413 L 3.63733,0.327177 L 3.62299,0.280278 L 3.60847,0.233432 L 3.59375,0.18664 L 3.57885,0.139901 L 3.56376,0.0932143 L 3.54848,0.0465808 L 3.53302,0 Z" fill="#000" /></svg>