<?xml version="1.0" encoding="utf-8" ?>
<svg baseProfile="tiny" fill-rule="evenodd" height="0.980677796585951px" version="1.2" width="8.208239817991853px" xmlns="http://www.w3.org/2000/svg" xmlns:ev="http://www.w3.org/2001/xml-events" xmlns:xlink="http://www.w3.org/1999/xlink"><defs /><path d="M 8.20824,0.960549 C 8.18853,0.95736 8.2102,0.95199 8.18128,0.963007 C 8.16551,0.965168 8.16466,0.946614 8.1558,0.967162 C 8.14153,0.970217 8.13488,0.950267 8.13369,0.970944 C 8.11968,0.974352 8.11039,0.954213 8.11226,0.97343 C 8.09828,0.976924 8.08799,0.956798 8.09072,0.975332 C 8.07671,0.978876 8.06576,0.95869 8.06879,0.976849 C 8.05473,0.980426 8.04327,0.960164 8.04641,0.978082 C 8.03231,0.981685 8.02039,0.961345 8.02358,0.97906 C 8.00943,0.982688 7.99707,0.962272 8.00031,0.979799 C 7.9861,0.983451 7.97333,0.962965 7.9766,0.980309 C 7.96235,0.983985 7.94917,0.963433 7.95248,0.980599 C 7.93818,0.9843 7.92461,0.963687 7.92795,0.980678 C 7.91361,0.984402 7.89965,0.963733 7.90302,0.980552 C 7.88864,0.9843 7.87432,0.963579 7.87772,0.980229 C 7.8633,0.984001 7.84862,0.963233 7.85205,0.979717 C 7.83759,0.983513 7.82257,0.962701 7.82603,0.979022 C 7.81152,0.982842 7.79617,0.961991 7.79966,0.978151 C 7.78512,0.981995 7.76945,0.961109 7.77297,0.977111 C 7.75839,0.980979 7.74241,0.960061 7.74595,0.975908 C 7.73134,0.9798 7.71506,0.958855 7.71863,0.974549 C 7.70398,0.978464 7.68741,0.957496 7.69101,0.97304 C 7.67633,0.976979 7.65948,0.95599 7.6631,0.971386 C 7.64839,0.975348 7.63127,0.954343 7.63491,0.969594 C 7.62018,0.973579 7.6028,0.95256 7.60646,0.967668 C 7.5917,0.971677 7.57406,0.950648 7.57776,0.965615 C 7.56296,0.969647 7.54509,0.948611 7.5488,0.96344 C 7.53398,0.967495 7.51587,0.946454 7.51961,0.961147 C 7.50476,0.965225 7.48643,0.944183 7.49019,0.958742 C 7.47531,0.962843 7.45676,0.941802 7.46054,0.95623 C 7.44565,0.960354 7.42688,0.939316 7.43069,0.953614 C 7.41577,0.957761 7.3968,0.93673 7.40063,0.950901 C 7.38569,0.955069 7.36653,0.934048 7.37037,0.948093 C 7.35541,0.952284 7.33606,0.931273 7.33992,0.945195 C 7.32494,0.949408 7.30542,0.928411 7.3093,0.942212 C 7.2943,0.946447 7.2746,0.925466 7.2785,0.939146 C 7.26348,0.943403 7.24361,0.92244 7.24753,0.936003 C 7.2325,0.940281 7.21247,0.919338 7.2164,0.932785 C 7.20135,0.937085 7.18117,0.916164 7.18512,0.929496 C 7.17006,0.933817 7.14973,0.91292 7.15369,0.92614 C 7.13861,0.930482 7.11814,0.909611 7.12212,0.92272 C 7.10703,0.927083 7.08642,0.906238 7.09042,0.919239 C 7.07531,0.923622 7.05457,0.902807 7.05859,0.9157 C 7.04346,0.920103 7.0226,0.899318 7.02663,0.912106 C 7.01149,0.916529 6.99051,0.895776 6.99455,0.908459 C 6.97941,0.912903 6.9583,0.892183 6.96236,0.904764 C 6.94721,0.909227 6.92599,0.888542 6.93006,0.901021 C 6.9149,0.905504 6.89358,0.884854 6.89766,0.897235 C 6.88249,0.901736 6.86106,0.881124 6.86516,0.893406 C 6.84998,0.897927 6.82845,0.877352 6.83257,0.889538 C 6.81738,0.894077 6.79576,0.873542 6.79988,0.885632 C 6.78468,0.89019 6.76298,0.869695 6.76711,0.881691 C 6.75191,0.886267 6.73011,0.865813 6.73426,0.877717 C 6.71905,0.882311 6.69717,0.861899 6.70133,0.873712 C 6.68611,0.878323 6.66416,0.857955 6.66833,0.869678 C 6.6531,0.874306 6.63107,0.853981 6.63526,0.865615 C 6.62003,0.870261 6.59792,0.84998 6.60211,0.861527 C 6.58688,0.866189 6.56471,0.845954 6.56891,0.857414 C 6.55367,0.862093 6.53143,0.841903 6.53564,0.853279 C 6.5204,0.857974 6.4981,0.83783 6.50232,0.849122 C 6.48707,0.853833 6.46471,0.833736 6.46894,0.844946 C 6.45369,0.849672 6.43127,0.829622 6.43551,0.84075 C 6.42026,0.845492 6.39779,0.82549 6.40204,0.836538 C 6.38678,0.841294 6.36425,0.82134 6.36851,0.832309 C 6.35325,0.83708 6.33068,0.817174 6.33494,0.828065 C 6.31968,0.83285 6.29706,0.812993 6.30133,0.823806 C 6.28607,0.828606 6.2634,0.808798 6.26768,0.819535 C 6.25242,0.824348 6.22971,0.80459 6.23399,0.815252 C 6.21873,0.820078 6.19598,0.80037 6.20027,0.810957 C 6.18501,0.815797 6.16222,0.796138 6.16651,0.806652 C 6.15125,0.811505 6.12842,0.791896 6.13272,0.802338 C 6.11747,0.807203 6.0946,0.787644 6.09891,0.798014 C 6.08365,0.802891 6.06075,0.783382 6.06506,0.793682 C 6.04981,0.798571 6.02687,0.779112 6.03119,0.789343 C 6.01593,0.794243 5.99297,0.774834 5.99729,0.784996 C 5.98204,0.789908 5.95905,0.770549 5.96337,0.780643 C 5.94812,0.785565 5.9251,0.766257 5.92943,0.776284 C 5.91418,0.781217 5.89113,0.761959 5.89547,0.771919 C 5.88022,0.776862 5.85715,0.757654 5.86149,0.767549 C 5.84624,0.772502 5.82314,0.753344 5.82748,0.763174 C 5.81224,0.768137 5.78912,0.749029 5.79347,0.758795 C 5.77823,0.763767 5.75509,0.744709 5.75943,0.754412 C 5.7442,0.759393 5.72103,0.740384 5.72538,0.750025 C 5.71015,0.755015 5.68697,0.736055 5.69132,0.745634 C 5.67609,0.750632 5.65289,0.731721 5.65724,0.74124 C 5.64202,0.746246 5.6188,0.727384 5.62315,0.736842 C 5.60793,0.741857 5.5847,0.723043 5.58905,0.732442 C 5.57383,0.737464 5.55058,0.718699 5.55494,0.728039 C 5.53973,0.733067 5.51646,0.714351 5.52082,0.723632 C 5.50561,0.728668 5.48233,0.709999 5.48668,0.719223 C 5.47148,0.724265 5.44818,0.705645 5.45254,0.714812 C 5.43734,0.71986 5.41403,0.701287 5.41839,0.710398 C 5.40319,0.715452 5.37987,0.696925 5.38423,0.705981 C 5.36904,0.71104 5.34572,0.692557 5.35007,0.701573 C 5.33489,0.706638 5.31155,0.688196 5.3159,0.697174 C 5.30073,0.702244 5.27738,0.683843 5.28172,0.692783 C 5.26656,0.697859 5.24321,0.679498 5.24755,0.688401 C 5.23239,0.693481 5.20903,0.675161 5.21337,0.684028 C 5.19822,0.689112 5.17486,0.670832 5.17919,0.679662 C 5.16405,0.684751 5.14067,0.666511 5.145,0.675305 C 5.12987,0.680398 5.10649,0.662197 5.11081,0.670955 C 5.09569,0.676051 5.07231,0.65789 5.07662,0.666612 C 5.06151,0.671712 5.03812,0.653589 5.04243,0.662277 C 5.02733,0.66738 5.00393,0.649296 5.00824,0.657949 C 4.99314,0.663055 4.96974,0.645009 4.97404,0.653627 C 4.95895,0.658736 4.93555,0.640728 4.93984,0.649312 C 4.92476,0.654423 4.90136,0.636452 4.90564,0.645003 C 4.89057,0.650115 4.86716,0.632183 4.87144,0.640699 C 4.85638,0.645814 4.83297,0.627918 4.83724,0.636401 C 4.82219,0.641517 4.79877,0.623658 4.80304,0.632108 C 4.788,0.637226 4.76458,0.619403 4.76884,0.627821 C 4.7538,0.632939 4.73038,0.615153 4.73463,0.623537 C 4.71961,0.628657 4.69618,0.610906 4.70042,0.619258 C 4.68541,0.624379 4.66198,0.606664 4.66622,0.614984 C 4.65121,0.620104 4.62778,0.602424 4.63201,0.610713 C 4.61701,0.615834 4.59358,0.598188 4.5978,0.606445 C 4.58281,0.611566 4.55938,0.593955 4.56359,0.60218 C 4.54861,0.607301 4.52518,0.589724 4.52938,0.597919 C 4.51441,0.603039 4.49098,0.585496 4.49517,0.593659 C 4.48021,0.598779 4.45677,0.58127 4.46096,0.589402 C 4.44601,0.594521 4.42257,0.577045 4.42675,0.585147 C 4.41181,0.590265 4.38836,0.572822 4.39253,0.580894 C 4.3776,0.58601 4.35416,0.5686 4.35832,0.576642 C 4.3434,0.581757 4.31995,0.564379 4.3241,0.572391 C 4.30919,0.577504 4.28575,0.560159 4.28989,0.568141 C 4.27498,0.573252 4.25154,0.555939 4.25567,0.563892 C 4.24077,0.569 4.21733,0.551718 4.22145,0.559642 C 4.20657,0.564749 4.18312,0.547498 4.18723,0.555393 C 4.17236,0.560497 4.14891,0.543277 4.15301,0.551143 C 4.13814,0.556244 4.1147,0.539055 4.11879,0.546893 C 4.10393,0.551991 4.08049,0.534832 4.08457,0.542642 C 4.06972,0.547737 4.04628,0.530608 4.05035,0.538389 C 4.0355,0.543481 4.01206,0.526383 4.01612,0.534136 C 4.00129,0.539225 3.97785,0.522156 3.9819,0.529881 C 3.96707,0.534966 3.94363,0.517926 3.94767,0.525624 C 3.93286,0.530705 3.90942,0.513695 3.91344,0.521365 C 3.89864,0.526442 3.8752,0.509461 3.87921,0.517103 C 3.86442,0.522177 3.84098,0.505224 3.84498,0.512839 C 3.8302,0.517909 3.80676,0.500984 3.81075,0.508573 C 3.79597,0.513638 3.77254,0.496741 3.77652,0.504303 C 3.76175,0.509364 3.73832,0.492495 3.74229,0.500031 C 3.72753,0.505087 3.7041,0.488246 3.70805,0.495755 C 3.6933,0.500806 3.66987,0.483993 3.67382,0.491475 C 3.65908,0.496521 3.63565,0.479736 3.63958,0.487192 C 3.62485,0.492233 3.60142,0.475474 3.60534,0.482905 C 3.59062,0.487941 3.5672,0.471209 3.5711,0.478614 C 3.55639,0.483644 3.53297,0.466939 3.53686,0.474319 C 3.52216,0.479343 3.49874,0.462665 3.50262,0.470019 C 3.48793,0.475038 3.46452,0.458386 3.46838,0.465714 C 3.4537,0.470728 3.43029,0.454102 3.43414,0.461405 C 3.41946,0.466413 3.39606,0.449813 3.3999,0.457092 C 3.38523,0.462093 3.36183,0.445519 3.36565,0.452773 C 3.35099,0.457768 3.32759,0.441219 3.33141,0.448449 C 3.31676,0.453438 3.29336,0.436914 3.29716,0.44412 C 3.28252,0.449102 3.25913,0.432604 3.26292,0.439785 C 3.24828,0.444762 3.2249,0.428288 3.22867,0.435445 C 3.21405,0.440415 3.19067,0.423967 3.19442,0.431099 C 3.17981,0.436063 3.15643,0.41964 3.16018,0.426748 C 3.14557,0.431705 3.1222,0.415306 3.12593,0.422391 m 0,0 m -0.0342475,-0.00436278 m -0.0342476,-0.00436869 m -0.0342475,-0.00437468 m -0.0342473,-0.00438073 m -0.034247,-0.00438685 m -0.0342465,-0.00439302 m -0.0342459,-0.00439924 m -0.0342452,-0.00440551 m -0.0342444,-0.0044118 m -0.0342434,-0.00441815 m -0.0342422,-0.0044245 m -0.0342409,-0.00443088 m -0.0342395,-0.00443729 m -0.0342378,-0.0044437 m -0.034236,-0.00445011 m -0.034234,-0.00445652 m -0.0342319,-0.00446293 m -0.0342295,-0.00446933 m -0.034227,-0.00447571 m -0.0342243,-0.00448208 m -0.0342214,-0.00448842 m -0.0342183,-0.00449474 m -0.034215,-0.00450101 m -0.0342114,-0.00450725 m -0.0342077,-0.00451346 m -0.0342037,-0.00451961 m -0.0341996,-0.00452571 m -0.0341952,-0.00453176 m -0.0341905,-0.00453774 m -0.0341857,-0.00454367 m -0.0341806,-0.00454953 m -0.0341753,-0.00455532 m -0.0341698,-0.00456103 m -0.0341639,-0.00456667 m -0.0341579,-0.00457223 m -0.0341516,-0.0045777 m -0.034145,-0.00458308 m -0.0341383,-0.00458838 m -0.0341312,-0.00459359 m -0.0341239,-0.00459868 m -0.0341163,-0.00460368 m -0.0341085,-0.0046086 m -0.0341004,-0.00461338 m -0.0340921,-0.00461808 m -0.0340834,-0.00462266 m -0.0340745,-0.00462712 m -0.0340654,-0.00463148 m -0.0340559,-0.00463572 m -0.0340462,-0.00463982 m -0.0340362,-0.00464382 m -0.0340259,-0.00464769 m -0.0340154,-0.00465142 m -0.0340046,-0.00465504 m -0.0339935,-0.00465852 m -0.0339821,-0.00466188 m -0.0339704,-0.0046651 m -0.0339585,-0.00466818 m -0.0339463,-0.00467112 m -0.0339337,-0.00467394 m -0.0339209,-0.00467661 m -0.0339079,-0.00467914 m -0.0338945,-0.00468152 m -0.0338808,-0.00468376 m -0.0338669,-0.00468586 m -0.0338526,-0.0046878 m -0.0338381,-0.00468961 m -0.0338233,-0.00469127 m -0.0338083,-0.00469277 m -0.0337929,-0.00469413 m -0.0337772,-0.00469534 m -0.0337613,-0.0046964 m -0.0337451,-0.00469731 m -0.0337285,-0.00469806 m -0.0337117,-0.00469866 m -0.0336946,-0.0046991 m -0.0336773,-0.0046994 m -0.0336596,-0.00469954 m -0.0336417,-0.00469952 m -0.0336235,-0.00469935 m -0.033605,-0.00469901 m -0.0335862,-0.00469852 m -0.0335671,-0.00469789 m -0.0335478,-0.00469709 m -0.0335282,-0.00469614 m -0.0335083,-0.00469504 m -0.0334881,-0.00469377 m -0.0334677,-0.00469236 m -0.033447,-0.00469078 m -0.033426,-0.00468905 m -0.0334047,-0.00468717 M 0.0333614,0.00468291 Z" fill="#000" /></svg>