<?xml version="1.0" encoding="utf-8" ?>
<svg baseProfile="tiny" fill-rule="evenodd" height="0.4016249673150014px" version="1.2" width="7.582093473523855px" xmlns="http://www.w3.org/2000/svg" xmlns:ev="http://www.w3.org/2001/xml-events" xmlns:xlink="http://www.w3.org/1999/xlink"><defs /><path d="M 7.58209,0.17211 C 7.56551,0.172926 7.57733,0.16869 7.56563,0.177087 C 7.55134,0.181116 7.55008,0.167143 7.54679,0.185786 C 7.5336,0.190634 7.52782,0.174738 7.5297,0.194769 C 7.51671,0.199858 7.5091,0.183668 7.51305,0.203013 C 7.50007,0.208151 7.49176,0.191951 7.4963,0.210803 C 7.48328,0.215966 7.47452,0.199726 7.47924,0.218274 C 7.46618,0.223454 7.45705,0.207152 7.46181,0.225496 C 7.44871,0.230692 7.43925,0.21432 7.44402,0.232495 C 7.43088,0.237707 7.42109,0.221265 7.42587,0.239283 C 7.41268,0.244511 7.40258,0.228 7.40736,0.245867 C 7.39413,0.251109 7.38373,0.234532 7.3885,0.252251 C 7.37524,0.257509 7.36453,0.240869 7.36931,0.258441 C 7.356,0.263714 7.34501,0.247013 7.34978,0.264442 C 7.33643,0.26973 7.32516,0.252971 7.32993,0.270258 C 7.31655,0.275562 7.305,0.258747 7.30976,0.275893 C 7.29634,0.281212 7.28453,0.264345 7.28929,0.281353 C 7.27583,0.286687 7.26375,0.269769 7.26851,0.28664 C 7.25503,0.29199 7.24269,0.275023 7.24745,0.291761 C 7.23392,0.297125 7.22134,0.280113 7.22609,0.296717 C 7.21254,0.302097 7.19971,0.28504 7.20446,0.301514 C 7.19087,0.306909 7.17781,0.289811 7.18256,0.306155 C 7.16894,0.311565 7.15564,0.294427 7.16039,0.310644 C 7.14674,0.316068 7.13322,0.298893 7.13796,0.314985 C 7.12428,0.320424 7.11054,0.303213 7.11527,0.319181 C 7.10157,0.324635 7.08762,0.30739 7.09235,0.323236 C 7.07861,0.328704 7.06445,0.311428 7.06918,0.327153 C 7.05542,0.332635 7.04105,0.315329 7.04577,0.330935 C 7.03199,0.336432 7.01743,0.319098 7.02214,0.334586 C 7.00833,0.340097 6.99358,0.322736 6.99829,0.338109 C 6.98445,0.343634 6.96951,0.326248 6.97421,0.341506 C 6.96035,0.347045 6.94523,0.329636 6.94993,0.344782 C 6.93604,0.350334 6.92074,0.332904 6.92544,0.347938 C 6.91153,0.353504 6.89605,0.336054 6.90074,0.350977 C 6.88681,0.356558 6.87117,0.339088 6.87585,0.353904 C 6.8619,0.359497 6.84609,0.34201 6.85077,0.356719 C 6.83679,0.362326 6.82082,0.344823 6.8255,0.359425 C 6.8115,0.365045 6.79538,0.347528 6.80004,0.362026 C 6.78602,0.367659 6.76975,0.350128 6.77441,0.364523 C 6.76037,0.37017 6.74395,0.352626 6.7486,0.36692 C 6.73454,0.372579 6.71798,0.355024 6.72262,0.369217 C 6.70855,0.374889 6.69184,0.357325 6.69648,0.371419 C 6.68239,0.377103 6.66554,0.35953 6.67018,0.373526 C 6.65606,0.379222 6.63909,0.361641 6.64371,0.375541 C 6.62958,0.381249 6.61248,0.363662 6.6171,0.377466 C 6.60295,0.383186 6.58572,0.365593 6.59033,0.379303 C 6.57617,0.385035 6.55881,0.367437 6.56342,0.381054 C 6.54924,0.386798 6.53176,0.369196 6.53636,0.382721 C 6.52217,0.388476 6.50457,0.370872 6.50916,0.384306 C 6.49495,0.390072 6.47724,0.372466 6.48183,0.38581 C 6.46761,0.391588 6.44978,0.37398 6.45436,0.387235 C 6.44013,0.393024 6.42219,0.375416 6.42676,0.388584 C 6.41251,0.394383 6.39448,0.376775 6.39904,0.389857 C 6.38478,0.395667 6.36664,0.37806 6.37119,0.391056 C 6.35692,0.396877 6.33868,0.379271 6.34322,0.392184 C 6.32893,0.398014 6.3106,0.380411 6.31513,0.39324 C 6.30083,0.39908 6.2824,0.38148 6.28693,0.394227 C 6.27262,0.400077 6.25409,0.382481 6.25861,0.395146 C 6.24429,0.401006 6.22567,0.383414 6.23019,0.395999 C 6.21585,0.401868 6.19715,0.384281 6.20165,0.396786 C 6.18731,0.402665 6.16852,0.385083 6.17301,0.39751 C 6.15866,0.403397 6.13978,0.385821 6.14427,0.398171 C 6.1299,0.404067 6.11094,0.386497 6.11542,0.39877 C 6.10105,0.404675 6.08201,0.387112 6.08648,0.399309 C 6.0721,0.405223 6.05298,0.387667 6.05744,0.399789 C 6.04305,0.405711 6.02386,0.388163 6.02831,0.400211 C 6.01391,0.406141 5.99464,0.388602 5.99908,0.400576 C 5.98467,0.406514 5.96533,0.388983 5.96977,0.400885 C 5.95535,0.406831 5.93594,0.389308 5.94036,0.40114 C 5.92594,0.407092 5.90646,0.389579 5.91087,0.40134 C 5.89644,0.4073 5.87689,0.389796 5.8813,0.401487 C 5.86686,0.407454 5.84724,0.38996 5.85164,0.401581 C 5.83719,0.407555 5.81751,0.390072 5.8219,0.401625 C 5.80745,0.407606 5.78771,0.390133 5.79208,0.401618 C 5.77762,0.407605 5.75782,0.390143 5.76219,0.401562 C 5.74772,0.407555 5.72786,0.390104 5.73222,0.401456 C 5.71774,0.407456 5.69782,0.390016 5.70217,0.401303 C 5.68769,0.407308 5.66771,0.38988 5.67205,0.401102 C 5.65757,0.407113 5.63753,0.389697 5.64186,0.400855 C 5.62737,0.406872 5.60728,0.389467 5.6116,0.400562 C 5.5971,0.406584 5.57696,0.389191 5.58127,0.400224 C 5.56677,0.406251 5.54657,0.38887 5.55087,0.399841 C 5.53637,0.405873 5.51612,0.388505 5.5204,0.399415 C 5.5059,0.405451 5.4856,0.388095 5.48988,0.398945 C 5.47536,0.404985 5.45502,0.387643 5.45928,0.398432 C 5.44477,0.404477 5.42438,0.387147 5.42863,0.397877 C 5.41411,0.403926 5.39367,0.38661 5.39791,0.397281 C 5.38339,0.403334 5.3629,0.38603 5.36713,0.396644 C 5.35261,0.402701 5.33208,0.38541 5.3363,0.395966 C 5.32177,0.402026 5.3012,0.384749 5.3054,0.395249 C 5.29087,0.401312 5.27026,0.384049 5.27445,0.394491 C 5.25992,0.400558 5.23926,0.383308 5.24345,0.393695 C 5.22891,0.399765 5.20821,0.382529 5.21238,0.392861 C 5.19784,0.398933 5.17711,0.381711 5.18127,0.391988 C 5.16673,0.398063 5.14595,0.380854 5.1501,0.391078 C 5.13555,0.397156 5.11474,0.37996 5.11888,0.390131 C 5.10433,0.396211 5.08348,0.379029 5.08761,0.389147 C 5.07306,0.395229 5.05217,0.378061 5.05628,0.388126 C 5.04173,0.39421 5.02081,0.377056 5.02491,0.38707 C 5.01036,0.393155 4.9894,0.376016 4.99349,0.385978 C 4.97893,0.392065 4.95794,0.374939 4.96202,0.384851 C 4.94746,0.390939 4.92644,0.373827 4.9305,0.383689 C 4.91595,0.389778 4.89489,0.372681 4.89894,0.382492 C 4.88438,0.388583 4.86329,0.371499 4.86733,0.381261 C 4.85277,0.387353 4.83165,0.370284 4.83568,0.379997 C 4.82112,0.386089 4.79997,0.369034 4.80398,0.378699 C 4.78942,0.384792 4.76824,0.367749 4.77224,0.377373 C 4.75768,0.383466 4.73647,0.366435 4.74046,0.37602 C 4.7259,0.382114 4.70467,0.365094 4.70864,0.374642 C 4.69408,0.380736 4.67282,0.363727 4.67678,0.373239 C 4.66222,0.379332 4.64094,0.362334 4.64488,0.37181 C 4.63032,0.377903 4.60901,0.360916 4.61294,0.370356 C 4.59839,0.37645 4.57705,0.359474 4.58096,0.368878 C 4.56641,0.374971 4.54505,0.358006 4.54895,0.367375 C 4.5344,0.373467 4.51301,0.356513 4.5169,0.365847 C 4.50235,0.371939 4.48094,0.354996 4.48481,0.364295 C 4.47027,0.370386 4.44883,0.353455 4.45269,0.36272 C 4.43815,0.368809 4.41669,0.351889 4.42053,0.36112 C 4.40599,0.367208 4.38452,0.3503 4.38834,0.359496 C 4.3738,0.365584 4.35231,0.348686 4.35611,0.357849 C 4.34158,0.363935 4.32006,0.347049 4.32385,0.356179 C 4.30932,0.362263 4.28778,0.345389 4.29156,0.354486 C 4.27703,0.360568 4.25548,0.343705 4.25924,0.352769 C 4.24471,0.35885 4.22313,0.341998 4.22688,0.35103 C 4.21236,0.357109 4.19076,0.340268 4.19449,0.349268 C 4.17997,0.355345 4.15836,0.338516 4.16207,0.347483 C 4.14756,0.353558 4.12593,0.33674 4.12963,0.345676 C 4.11511,0.351748 4.09346,0.334943 4.09715,0.343847 C 4.08264,0.349917 4.06097,0.333122 4.06464,0.341995 m 0,0 m -0.0325369,-0.00187329 m -0.0325653,-0.00189505 m -0.0325933,-0.00191667 m -0.0326209,-0.00193815 m -0.0326481,-0.00195947 m -0.0326747,-0.00198064 m -0.032701,-0.00200166 m -0.0327268,-0.00202253 m -0.0327522,-0.00204325 m -0.0327771,-0.00206383 m -0.0328017,-0.00208425 m -0.0328258,-0.00210454 m -0.0328494,-0.00212467 m -0.0328727,-0.00214465 m -0.0328956,-0.00216449 m -0.032918,-0.00218417 m -0.0329401,-0.00220371 m -0.0329618,-0.0022231 m -0.032983,-0.00224235 m -0.0330038,-0.00226144 m -0.0330243,-0.00228037 m -0.0330444,-0.00229916 m -0.033064,-0.0023178 m -0.0330833,-0.00233627 m -0.0331022,-0.00235461 m -0.0331207,-0.00237277 m -0.0331388,-0.0023908 m -0.0331565,-0.00240866 m -0.0331738,-0.00242638 m -0.0331908,-0.00244393 m -0.0332074,-0.00246132 m -0.0332236,-0.00247856 m -0.0332394,-0.00249565 m -0.0332548,-0.00251256 m -0.0332699,-0.00252933 m -0.0332846,-0.00254591 m -0.0332989,-0.00256235 m -0.0333128,-0.00257864 m -0.0333264,-0.00259474 m -0.0333396,-0.00261067 m -0.0333524,-0.00262646 m -0.0333649,-0.00264207 m -0.033377,-0.00265752 m -0.0333887,-0.00267279 m -0.0334,-0.0026879 m -0.033411,-0.00270284 m -0.0334216,-0.0027176 m -0.0334319,-0.0027322 m -0.0334418,-0.00274662 m -0.0334513,-0.00276088 m -0.0334604,-0.00277496 m -0.0334692,-0.00278887 m -0.0334777,-0.0028026 m -0.0334858,-0.00281616 m -0.0334935,-0.00282954 m -0.0335009,-0.00284275 m -0.0335079,-0.00285578 m -0.0335145,-0.00286863 m -0.0335208,-0.0028813 m -0.0335267,-0.0028938 m -0.0335323,-0.00290613 m -0.0335376,-0.00291826 m -0.0335424,-0.00293022 m -0.033547,-0.00294199 m -0.0335511,-0.00295359 m -0.033555,-0.00296501 m -0.0335584,-0.00297625 m -0.0335616,-0.00298731 m -0.0335643,-0.00299818 m -0.0335668,-0.00300886 m -0.0335689,-0.00301938 m -0.0335706,-0.00302971 m -0.033572,-0.00303985 m -0.033573,-0.00304981 m -0.0335738,-0.00305958 m -0.0335741,-0.00306918 m -0.0335742,-0.00307859 m -0.0335739,-0.00308783 m -0.0335732,-0.00309686 m -0.0335722,-0.00310573 m -0.0335709,-0.00311441 m -0.0335693,-0.00312289 m -0.0335673,-0.00313121 m -0.033565,-0.00313934 m -0.0335624,-0.00314728 m -0.0335594,-0.00315504 m -0.0335561,-0.00316262 m -0.0335525,-0.00317003 m -0.0335485,-0.00317723 m -0.0335442,-0.00318426 m -0.0335397,-0.0031911 m -0.0335348,-0.00319777 m -0.0335295,-0.00320426 m -0.033524,-0.00321057 m -0.0335181,-0.00321669 m -0.0335119,-0.00322263 m -0.0335054,-0.00322837 m -0.0334986,-0.00323397 m -0.0334915,-0.00323936 m -0.033484,-0.00324459 m -0.0334763,-0.00324962 m -0.0334682,-0.00325449 m -0.0334599,-0.00325918 m -0.0334512,-0.00326369 m -0.0334423,-0.00326802 m -0.033433,-0.00327218 m -0.0334235,-0.00327616 m -0.0334136,-0.00327996 m -0.0334035,-0.0032836 m -0.0333931,-0.00328705 m -0.0333823,-0.00329032 m -0.0333713,-0.00329344 m -0.03336,-0.00329638 m -0.0333484,-0.00329915 m -0.0333365,-0.00330174 m -0.0333244,-0.00330417 m -0.0333119,-0.00330643 m -0.0332992,-0.00330851 m -0.0332862,-0.00331043 m -0.0332729,-0.00331218 M 0.0332455,0.00331518 Z" fill="#000" /></svg>