<?xml version="1.0" encoding="utf-8" ?>
<svg baseProfile="tiny" fill-rule="evenodd" height="40.42683359980583px" version="1.2" width="46.79628984630108px" xmlns="http://www.w3.org/2000/svg" xmlns:ev="http://www.w3.org/2001/xml-events" xmlns:xlink="http://www.w3.org/1999/xlink"><defs /><path d="M 46.7963,40.4268 C 46.8164,40.2683 46.5364,40.1936 46.5177,40.1765 C 46.5771,40.0001 46.2931,39.9737 46.2716,39.9583 C 46.3442,39.7771 46.0612,39.7658 46.0402,39.7537 C 46.1177,39.5709 45.8351,39.5649 45.8149,39.5543 C 45.8943,39.371 45.6121,39.3671 45.5923,39.3573 C 45.6726,39.1738 45.3906,39.1708 45.3711,39.1614 C 45.4517,38.978 45.1701,38.9754 45.1507,38.9661 C 45.2314,38.7828 44.9501,38.7805 44.9308,38.7714 C 45.0115,38.5882 44.7306,38.586 44.7113,38.577 C 44.792,38.394 44.5114,38.3918 44.4921,38.383 C 44.5729,38.2001 44.2926,38.198 44.2733,38.1893 C 44.3541,38.0066 44.0741,38.0046 44.0548,37.9959 C 44.1356,37.8134 43.8559,37.8114 43.8367,37.8029 C 43.9174,37.6205 43.6381,37.6186 43.6188,37.6101 C 43.6995,37.4279 43.4206,37.4261 43.4013,37.4177 C 43.482,37.2357 43.2034,37.2339 43.1841,37.2257 C 43.2648,37.0437 42.9865,37.0421 42.9672,37.0339 C 43.0479,36.8521 42.7699,36.8505 42.7506,36.8425 C 42.8313,36.6609 42.5536,36.6593 42.5344,36.6513 C 42.615,36.4699 42.3377,36.4684 42.3184,36.4605 C 42.399,36.2792 42.1221,36.2778 42.1028,36.2701 C 42.1834,36.0889 41.9068,36.0876 41.8875,36.0799 C 41.9681,35.8989 41.6918,35.8976 41.6725,35.89 C 41.7531,35.7092 41.4771,35.708 41.4578,35.7005 C 41.5384,35.5198 41.2627,35.5187 41.2434,35.5113 C 41.324,35.3307 41.0486,35.3297 41.0294,35.3224 C 41.1099,35.142 40.8349,35.141 40.8156,35.1338 C 40.8961,34.9535 40.6214,34.9526 40.6022,34.9455 C 40.6827,34.7654 40.4083,34.7645 40.389,34.7575 C 40.4695,34.5776 40.1955,34.5768 40.1762,34.5698 C 40.2567,34.3901 39.983,34.3893 39.9637,34.3825 C 40.0442,34.2029 39.7708,34.2022 39.7515,34.1955 C 39.832,34.016 39.5589,34.0154 39.5396,34.0087 C 39.6201,33.8294 39.3473,33.8289 39.328,33.8223 C 39.4085,33.6432 39.136,33.6427 39.1167,33.6362 C 39.1972,33.4572 38.925,33.4568 38.9058,33.4504 C 38.9862,33.2716 38.7144,33.2712 38.6951,33.2649 C 38.7755,33.0862 38.504,33.0859 38.4847,33.0797 C 38.5651,32.9012 38.2939,32.9009 38.2747,32.8949 C 38.355,32.7165 38.0842,32.7163 38.0649,32.7103 C 38.1453,32.5321 37.8747,32.5319 37.8555,32.526 C 37.9358,32.3479 37.6656,32.3479 37.6463,32.3421 C 37.7266,32.1641 37.4567,32.1641 37.4375,32.1584 C 37.5178,31.9806 37.2482,31.9807 37.2289,31.9751 C 37.3092,31.7974 37.0399,31.7975 37.0207,31.792 C 37.1009,31.6145 36.832,31.6147 36.8127,31.6093 C 36.893,31.4319 36.6243,31.4322 36.6051,31.4269 C 36.6853,31.2496 36.417,31.2499 36.3977,31.2447 C 36.478,31.0677 36.2099,31.068 36.1907,31.0629 C 36.2709,30.886 36.0032,30.8864 35.9839,30.8813 C 36.0641,30.7046 35.7967,30.7051 35.7775,30.7001 C 35.8577,30.5235 35.5906,30.524 35.5713,30.5192 C 35.6515,30.3427 35.3847,30.3433 35.3655,30.3385 C 35.4456,30.1622 35.1792,30.1629 35.1599,30.1582 C 35.2401,29.982 34.9739,29.9827 34.9546,29.9782 C 35.0348,29.8021 34.7689,29.8029 34.7497,29.7984 C 34.8298,29.6225 34.5642,29.6234 34.545,29.619 C 34.6251,29.4432 34.3599,29.4441 34.3406,29.4398 C 34.4207,29.2642 34.1558,29.2652 34.1365,29.261 C 34.2166,29.0855 33.952,29.0866 33.9327,29.0824 C 34.0128,28.9071 33.7485,28.9082 33.7292,28.9042 C 33.8093,28.729 33.5453,28.7301 33.526,28.7262 C 33.6061,28.5512 33.3423,28.5524 33.3231,28.5485 C 33.4032,28.3737 33.1397,28.3749 33.1205,28.3712 C 33.2005,28.1964 32.9374,28.1977 32.9181,28.1941 C 32.9982,28.0195 32.7353,28.0209 32.7161,28.0173 C 32.7961,27.8429 32.5336,27.8443 32.5143,27.8408 C 32.5943,27.6665 32.3321,27.668 32.3129,27.6646 C 32.3929,27.4904 32.1309,27.492 32.1117,27.4887 C 32.1917,27.3147 31.93,27.3163 31.9108,27.313 C 31.9908,27.1392 31.7294,27.1408 31.7102,27.1377 C 31.7902,26.964 31.5291,26.9657 31.5099,26.9627 C 31.5898,26.7891 31.3291,26.7909 31.3099,26.7879 C 31.3898,26.6145 31.1293,26.6163 31.1101,26.6134 C 31.19,26.4401 30.9299,26.442 30.9107,26.4393 C 30.9906,26.2661 30.7307,26.2681 30.7115,26.2654 C 30.7914,26.0924 30.5318,26.0944 30.5126,26.0918 C 30.5925,25.9189 30.3332,25.921 30.314,25.9185 C 30.3938,25.7457 30.1349,25.7478 30.1157,25.7454 C 30.1955,25.5728 29.9368,25.575 29.9176,25.5727 C 29.9975,25.4002 29.7391,25.4025 29.7199,25.4002 C 29.7997,25.2279 29.5416,25.2302 29.5224,25.228 C 29.6022,25.0559 29.3444,25.0582 29.3252,25.0562 C 29.405,24.8841 29.1475,24.8865 29.1283,24.8845 C 29.2081,24.7126 28.9508,24.7151 28.9316,24.7132 C 29.0114,24.5415 28.7545,24.544 28.7353,24.5422 C 28.8151,24.3706 28.5584,24.3731 28.5392,24.3714 C 28.619,24.1999 28.3626,24.2026 28.3434,24.2009 C 28.4232,24.0296 28.1671,24.0323 28.1479,24.0308 C 28.2277,23.8595 27.9719,23.8623 27.9527,23.8608 C 28.0324,23.6898 27.7769,23.6926 27.7577,23.6912 C 27.8374,23.5203 27.5822,23.5231 27.563,23.5219 C 27.6427,23.3511 27.3878,23.354 27.3686,23.3528 C 27.4483,23.1821 27.1937,23.1851 27.1745,23.184 C 27.2542,23.0135 26.9998,23.0165 26.9807,23.0155 C 27.0603,22.8451 26.8062,22.8482 26.7871,22.8472 C 26.8667,22.677 26.6129,22.6801 26.5938,22.6793 C 26.6734,22.5092 26.4199,22.5123 26.4007,22.5116 C 26.4804,22.3416 26.2272,22.3449 26.208,22.3442 C 26.2876,22.1743 26.0347,22.1776 26.0155,22.1771 C 26.0951,22.0073 25.8425,22.0107 25.8233,22.0102 C 25.9029,21.8406 25.6505,21.844 25.6314,21.8436 C 25.711,21.6742 25.4589,21.6776 25.4397,21.6773 C 25.5193,21.508 25.2675,21.5115 25.2483,21.5113 C 25.3279,21.3421 25.0763,21.3457 25.0572,21.3455 C 25.1368,21.1765 24.8855,21.1801 24.8663,21.1801 C 24.9459,21.0112 24.6949,21.0148 24.6758,21.0148 C 24.7553,20.8461 24.5046,20.8498 24.4855,20.8499 C 24.565,20.6813 24.3146,20.6851 24.2954,20.6852 C 24.3749,20.5167 24.1248,20.5206 24.1056,20.5209 C 24.1851,20.3525 23.9353,20.3564 23.9161,20.3567 C 23.9956,20.1885 23.746,20.1924 23.7269,20.1929 C 23.8064,20.0248 23.5571,20.0288 23.5379,20.0293 C 23.6174,19.8613 23.3684,19.8654 23.3492,19.866 C 23.4287,19.6982 23.1799,19.7023 23.1608,19.703 C 23.2403,19.5353 22.9918,19.5394 22.9726,19.5402 C 23.0521,19.3726 22.8039,19.3768 22.7847,19.3777 C 22.8642,19.2102 22.6162,19.2145 22.5971,19.2155 C 22.6765,19.0481 22.4288,19.0525 22.4097,19.0535 C 22.4891,18.8863 22.2417,18.8907 22.2226,18.8918 C 22.302,18.7247 22.0549,18.7292 22.0358,18.7304 C 22.1152,18.5634 21.8683,18.5679 21.8492,18.5692 C 21.9286,18.4024 21.682,18.4069 21.6629,18.4083 C 21.7422,18.2416 21.4959,18.2462 21.4768,18.2477 C 21.5562,18.0811 21.3101,18.0858 21.291,18.0873 C 21.3704,17.9209 21.1246,17.9256 21.1055,17.9272 C 21.1848,17.7609 20.9393,17.7657 20.9202,17.7674 C 20.9996,17.6012 20.7543,17.606 20.7352,17.6078 C 20.8145,17.4418 20.5696,17.4466 20.5505,17.4485 C 20.6298,17.2826 20.3851,17.2875 20.366,17.2894 C 20.4453,17.1237 20.2008,17.1286 20.1818,17.1306 C 20.261,16.965 20.0169,16.97 19.9978,16.9721 C 20.0771,16.8066 19.8332,16.8117 19.8141,16.8139 C 19.8933,16.6485 19.6497,16.6536 19.6306,16.6559 C 19.7099,16.4906 19.4665,16.4958 19.4474,16.4981 C 19.5267,16.333 19.2836,16.3382 19.2645,16.3407 C 19.3437,16.1757 19.1009,16.1809 19.0818,16.1834 C 19.1611,16.0186 18.9185,16.0239 18.8994,16.0265 C 18.9786,15.8618 18.7363,15.8671 18.7172,15.8698 C 18.7964,15.7052 18.5544,15.7106 18.5353,15.7133 C 18.6145,15.5489 18.3727,15.5543 18.3537,15.5572 C 18.4329,15.3928 18.1913,15.3983 18.1723,15.4012 C 18.2515,15.237 18.0102,15.2426 17.9911,15.2456 C 18.0703,15.0815 17.8293,15.0871 17.8102,15.0902 C 17.8894,14.9262 17.6487,14.9319 17.6296,14.935 C 17.7088,14.7712 17.4683,14.7769 17.4492,14.7801 C 17.5284,14.6164 17.2881,14.6222 17.2691,14.6255 C 17.3482,14.4619 17.1083,14.4677 17.0892,14.4711 C 17.1683,14.3077 16.9286,14.3135 16.9096,14.317 C 16.9887,14.1537 16.7493,14.1596 16.7302,14.1631 C 16.8093,13.9999 16.5701,14.0059 16.5511,14.0095 C 16.6302,13.8464 16.3913,13.8524 16.3722,13.8561 C 16.4513,13.6932 16.2126,13.6993 16.1936,13.703 C 16.2727,13.5402 16.0343,13.5463 16.0152,13.5502 C 16.0943,13.3875 15.8561,13.3936 15.8371,13.3976 C 15.9162,13.235 15.6783,13.2412 15.6592,13.2452 C 15.7383,13.0828 15.5007,13.089 15.4816,13.0931 C 15.5607,12.9308 15.3233,12.9371 15.3043,12.9413 C 15.3833,12.7791 15.1462,12.7854 15.1271,12.7897 C 15.2062,12.6276 14.9693,12.634 14.9503,12.6384 C 15.0293,12.4764 14.7926,12.4829 14.7736,12.4873 C 14.8526,12.3254 14.6163,12.3319 14.5972,12.3364 C 14.6762,12.1747 14.4401,12.1813 14.4211,12.1858 C 14.5001,12.0242 14.2642,12.0308 14.2452,12.0355 C 14.3242,11.874 14.0886,11.8807 14.0696,11.8854 C 14.1486,11.724 13.9132,11.7308 13.8942,11.7356 C 13.9731,11.5743 13.738,11.5811 13.719,11.586 C 13.798,11.4249 13.5631,11.4317 13.5441,11.4366 C 13.6231,11.2756 13.3885,11.2825 13.3695,11.2875 C 13.4484,11.1266 13.214,11.1336 13.195,11.1387 C 13.274,10.9779 13.0399,10.9849 13.0209,10.9901 C 13.0998,10.8294 12.8659,10.8364 12.8469,10.8417 C 12.9259,10.6812 12.6922,10.6882 12.6732,10.6936 C 12.7522,10.5332 12.5188,10.5403 12.4998,10.5457 C 12.5787,10.3855 12.3456,10.3926 12.3266,10.3981 C 12.4055,10.238 12.1726,10.2451 12.1536,10.2507 C 12.2325,10.0907 11.9999,10.0979 11.9809,10.1036 C 12.0598,9.94369 11.8274,9.95098 11.8084,9.95671 C 11.8873,9.79692 11.6552,9.80426 11.6362,9.81007 C 11.7151,9.6504 11.4832,9.65778 11.4642,9.66367 C 11.543,9.50412 11.3114,9.51155 11.2924,9.51752 C 11.3713,9.35808 11.1399,9.36556 11.1209,9.3716 C 11.1997,9.21229 10.9686,9.21981 10.9496,9.22593 C 11.0285,9.06673 10.7975,9.07431 10.7786,9.0805 C 10.8574,8.92142 10.6267,8.92904 10.6078,8.93531 C 10.6866,8.77635 10.4562,8.78402 10.4372,8.79037 C 10.516,8.63153 10.2858,8.63924 10.2669,8.64566 C 10.3457,8.48694 10.1157,8.4947 10.0968,8.5012 C 10.1756,8.34259 9.94589,8.3504 9.92695,8.35698 C 10.0057,8.19849 9.77626,8.20634 9.75733,8.21299 C 9.8361,8.05462 9.60688,8.06252 9.58795,8.06925 C 9.66671,7.91099 9.43773,7.91894 9.41881,7.92574 C 9.49756,7.7676 9.26882,7.7756 9.2499,7.78248 C 9.32864,7.62446 9.10014,7.6325 9.08122,7.63945 C 9.15996,7.48154 8.9317,7.48963 8.91278,7.49666 C 8.99151,7.33887 8.76349,7.34701 8.74458,7.35411 C 8.8233,7.19644 8.59552,7.20462 8.5766,7.21179 C 8.65532,7.05424 8.42778,7.06246 8.40887,7.06971 C 8.48757,6.91228 8.26027,6.92055 8.24136,6.92787 C 8.32006,6.77055 8.09299,6.77887 8.07409,6.78627 C 8.15278,6.62906 7.92595,6.63743 7.90705,6.6449 C 7.98574,6.48781 7.75914,6.49622 7.74024,6.50377 C 7.81892,6.34679 7.59256,6.35525 7.57367,6.36287 C 7.65234,6.20601 7.42622,6.21451 7.40733,6.22221 C 7.48599,6.06546 7.2601,6.07401 7.24122,6.08178 C 7.31987,5.92515 7.09422,5.93374 7.07533,5.94159 C 7.15398,5.78507 6.92857,5.79371 6.90968,5.80163 C 6.98832,5.64523 6.76314,5.65391 6.74426,5.6619 C 6.8229,5.50562 6.59795,5.51435 6.57907,5.52241 C 6.6577,5.36624 6.43299,5.37501 6.41411,5.38315 C 6.49273,5.22709 6.26825,5.23591 6.24938,5.24413 C 6.32799,5.08818 6.10374,5.09705 6.08488,5.10533 C 6.16348,4.9495 5.93947,4.95841 5.9206,4.96677 C 5.9992,4.81105 5.77542,4.82001 5.75656,4.82844 C 5.83515,4.67283 5.6116,4.68183 5.59274,4.69034 C 5.67132,4.53485 5.448,4.54389 5.42915,4.55247 C 5.50772,4.39709 5.28463,4.40618 5.26578,4.41483 C 5.34435,4.25957 5.12149,4.2687 5.10265,4.27742 C 5.18121,4.12227 4.95858,4.13145 4.93973,4.14024 C 5.01829,3.98521 4.79589,3.99443 4.77705,4.0033 C 4.8556,3.84837 4.63343,3.85764 4.61459,3.86658 C 4.69313,3.71176 4.47119,3.72108 4.45236,3.73009 C 4.53089,3.57538 4.30918,3.58474 4.29035,3.59383 C 4.36888,3.43923 4.14739,3.44864 4.12856,3.45779 C 4.20709,3.30331 3.98583,3.31276 3.967,3.32199 C 4.04552,3.16762 3.82449,3.17711 3.80567,3.18641 C 3.88418,3.03215 3.66338,3.04169 3.64456,3.05106 C 3.72306,2.89691 3.50249,2.90649 3.48367,2.91594 C 3.56216,2.7619 3.34182,2.77152 3.323,2.78104 C 3.40149,2.62712 3.18137,2.63678 3.16256,2.64637 C 3.24104,2.49256 3.02115,2.50227 3.00234,2.51192 C 3.08082,2.35822 2.86115,2.36798 2.84234,2.37771 C 2.92081,2.22411 2.70137,2.23391 2.68257,2.24371 C 2.76103,2.09023 2.54181,2.10007 2.52301,2.10994 C 2.60147,1.95657 2.38247,1.96646 2.36368,1.9764 C 2.44213,1.82314 2.22336,1.83307 2.20457,1.84308 C 2.28301,1.68993 2.06446,1.6999 2.04568,1.70999 C 2.12411,1.55694 1.90579,1.56696 1.887,1.57711 C 1.96543,1.42418 1.74733,1.43424 1.72855,1.44447 C 1.80698,1.29164 1.5891,1.30174 1.57032,1.31204 C 1.64874,1.15933 1.43108,1.16947 1.41231,1.17984 C 1.49072,1.02724 1.27328,1.03742 1.25451,1.04786 C 1.33292,0.895366 1.1157,0.905595 1.09694,0.916104 C 1.17533,0.763717 0.958343,0.773989 0.939579,0.784569 C 1.01797,0.63229 0.8012,0.642605 0.782439,0.653255 C 0.860826,0.501085 0.644275,0.511443 0.625518,0.522163 C 0.703898,0.370101 0.487567,0.380501 0.468813,0.391291 C 0.547187,0.239338 0.331076,0.249781 0.312325,0.260641 C 0.390693,0.108795 0.174802,0.11928 0.156054,0.13021 C 0.234416,-0.0215277 0.0187443,-0.0109997 0,0 Z" fill="#000" /></svg>