<?xml version="1.0" encoding="utf-8" ?>
<svg baseProfile="tiny" fill-rule="evenodd" height="75.53520342707634px" version="1.2" width="76.32078966498375px" xmlns="http://www.w3.org/2000/svg" xmlns:ev="http://www.w3.org/2001/xml-events" xmlns:xlink="http://www.w3.org/1999/xlink"><defs /><path d="M 76.3208,75.5352 C 76.5189,75.2131 75.9636,75.1716 75.9573,75.1765 C 76.1851,74.8404 75.6187,74.8293 75.6109,74.8345 C 75.8475,74.4952 75.2813,74.4935 75.2737,74.501 C 75.5133,74.1607 74.9475,74.1622 74.9402,74.1708 C 75.181,73.8302 74.6154,73.833 74.6085,73.842 C 74.8498,73.5014 74.2845,73.5048 74.2777,73.514 C 74.5192,73.1735 73.9541,73.1771 73.9474,73.1865 C 74.1889,72.846 73.6241,72.8498 73.6174,72.8592 C 73.859,72.5189 73.2944,72.5228 73.2877,72.5323 C 73.5293,72.1921 72.965,72.196 72.9583,72.2056 C 73.1998,71.8655 72.6358,71.8695 72.6292,71.8791 C 72.8706,71.5392 72.3069,71.5433 72.3002,71.5529 C 72.5417,71.2131 71.9782,71.2172 71.9715,71.227 C 72.213,70.8872 71.6497,70.8914 71.6431,70.9012 C 71.8845,70.5616 71.3215,70.5659 71.3148,70.5757 C 71.5562,70.2362 70.9935,70.2406 70.9868,70.2505 C 71.2282,69.9111 70.6658,69.9155 70.6591,69.9254 C 70.9004,69.5862 70.3382,69.5906 70.3315,69.6006 C 70.5728,69.2615 70.0109,69.266 70.0042,69.2761 C 70.2455,68.937 69.6839,68.9416 69.6771,68.9517 C 69.9184,68.6128 69.357,68.6175 69.3503,68.6276 C 69.5915,68.2889 69.0304,68.2936 69.0237,68.3038 C 69.2648,67.9651 68.704,67.9699 68.6973,67.9802 C 68.9384,67.6416 68.3779,67.6464 68.3711,67.6568 C 68.6122,67.3183 68.052,67.3232 68.0452,67.3336 C 68.2863,66.9953 67.7263,67.0002 67.7195,67.0107 C 67.9605,66.6725 67.4008,66.6775 67.394,66.688 C 67.635,66.3499 67.0756,66.3549 67.0688,66.3655 C 67.3098,66.0275 66.7505,66.0327 66.7438,66.0433 C 66.9847,65.7054 66.4258,65.7106 66.419,65.7213 C 66.6599,65.3835 66.1012,65.3888 66.0944,65.3995 C 66.3353,65.0619 65.7769,65.0672 65.7701,65.0779 C 66.0109,64.7405 65.4528,64.7458 65.446,64.7566 C 65.6868,64.4193 65.1289,64.4247 65.1221,64.4355 C 65.3629,64.0983 64.8052,64.1038 64.7984,64.1147 C 65.0392,63.7776 64.4818,63.7831 64.475,63.7941 C 64.7157,63.457 64.1586,63.4626 64.1518,63.4737 C 64.3925,63.1368 63.8356,63.1424 63.8288,63.1535 C 64.0695,62.8167 63.5129,62.8224 63.5061,62.8336 C 63.7467,62.4969 63.1904,62.5026 63.1835,62.5138 C 63.4241,62.1773 62.8681,62.1831 62.8612,62.1944 C 63.1018,61.8579 62.546,61.8638 62.5391,61.8751 C 62.7797,61.5388 62.2241,61.5447 62.2173,61.5561 C 62.4578,61.2199 61.9025,61.2258 61.8956,61.2373 C 62.1361,60.9012 61.5811,60.9072 61.5742,60.9187 C 61.8147,60.5827 61.2599,60.5888 61.253,60.6003 C 61.4935,60.2645 60.9389,60.2706 60.9321,60.2822 C 61.1725,59.9465 60.6182,59.9527 60.6113,59.9643 C 60.8517,59.6287 60.2977,59.6349 60.2908,59.6466 C 60.5311,59.3111 59.9773,59.3174 59.9705,59.3292 C 60.2108,58.9938 59.6573,59.0002 59.6504,59.012 C 59.8907,58.6767 59.3374,58.6831 59.3305,58.6949 C 59.5708,58.3598 59.0178,58.3663 59.0109,58.3782 C 59.2511,58.0431 58.6983,58.0497 58.6915,58.0616 C 58.9316,57.7267 58.3791,57.7333 58.3723,57.7453 C 58.6124,57.4105 58.0602,57.4171 58.0533,57.4292 C 58.2934,57.0945 57.7414,57.1012 57.7345,57.1133 C 57.9746,56.7787 57.4229,56.7855 57.416,56.7976 C 57.656,56.4631 57.1045,56.47 57.0976,56.4822 C 57.3377,56.1478 56.7864,56.1547 56.7795,56.167 C 57.0195,55.8327 56.4685,55.8396 56.4616,55.852 C 56.7016,55.5178 56.1509,55.5248 56.1439,55.5372 C 56.3839,55.2032 55.8334,55.2102 55.8265,55.2226 C 56.0664,54.8887 55.5162,54.8958 55.5093,54.9083 C 55.7492,54.5745 55.1992,54.5817 55.1922,54.5942 C 55.4321,54.2605 54.8824,54.2677 54.8754,54.2803 C 55.1153,53.9467 54.5658,53.954 54.5588,53.9666 C 54.7986,53.6332 54.2494,53.6405 54.2425,53.6532 C 54.4822,53.3198 53.9333,53.3272 53.9263,53.3399 C 54.1661,53.0067 53.6173,53.0141 53.6104,53.0269 C 53.8501,52.6938 53.3016,52.7013 53.2946,52.7141 C 53.5343,52.3811 52.9861,52.3886 52.9791,52.4015 C 53.2188,52.0686 52.6708,52.0762 52.6638,52.0892 C 52.9035,51.7564 52.3557,51.764 52.3487,51.777 C 52.5884,51.4444 52.0409,51.4521 52.0339,51.4651 C 52.2735,51.1325 51.7262,51.1403 51.7192,51.1534 C 51.9588,50.821 51.4118,50.8288 51.4048,50.8419 C 51.6443,50.5096 51.0976,50.5174 51.0905,50.5307 C 51.33,50.1984 50.7835,50.2063 50.7765,50.2196 C 51.016,49.8875 50.4697,49.8954 50.4627,49.9088 C 50.7022,49.5767 50.1562,49.5848 50.1491,49.5981 C 50.3886,49.2662 49.8428,49.2743 49.8358,49.2877 C 50.0751,48.9559 49.5296,48.9641 49.5226,48.9775 C 49.762,48.6458 49.2167,48.654 49.2096,48.6676 C 49.449,48.336 48.9039,48.3442 48.8969,48.3578 C 49.1362,48.0263 48.5914,48.0346 48.5844,48.0482 C 48.8236,47.7169 48.2791,47.7252 48.272,47.7389 C 48.5113,47.4077 47.967,47.4161 47.9599,47.4298 C 48.1992,47.0986 47.6551,47.1071 47.648,47.1209 C 47.8872,46.7898 47.3434,46.7984 47.3363,46.8122 C 47.5755,46.4813 47.0319,46.4898 47.0249,46.5037 C 47.264,46.1729 46.7207,46.1815 46.7136,46.1954 C 46.9527,45.8647 46.4096,45.8734 46.4025,45.8874 C 46.6416,45.5568 46.0988,45.5655 46.0917,45.5796 C 46.3307,45.2491 45.7881,45.2578 45.781,45.2719 C 46.0201,44.9415 45.4777,44.9504 45.4706,44.9645 C 45.7096,44.6342 45.1675,44.6431 45.1604,44.6573 C 45.3993,44.3271 44.8575,44.3361 44.8504,44.3503 C 45.0893,44.0202 44.5477,44.0292 44.5406,44.0435 C 44.7795,43.7136 44.2381,43.7226 44.2309,43.737 C 44.4698,43.4071 43.9287,43.4162 43.9215,43.4306 C 44.1604,43.1009 43.6195,43.11 43.6124,43.1244 C 43.8512,42.7948 43.3105,42.804 43.3034,42.8185 C 43.5422,42.489 43.0017,42.4982 42.9946,42.5128 C 43.2334,42.1834 42.6932,42.1927 42.686,42.2072 C 42.9248,41.8779 42.3848,41.8873 42.3777,41.9019 C 42.6164,41.5727 42.0766,41.5821 42.0695,41.5968 C 42.3082,41.2677 41.7687,41.2772 41.7615,41.2919 C 42.0002,40.963 41.4609,40.9725 41.4538,40.9873 C 41.6924,40.6584 41.1534,40.6679 41.1463,40.6828 C 41.3849,40.354 40.8461,40.3636 40.8389,40.3785 C 41.0775,40.0498 40.5389,40.0595 40.5318,40.0744 C 40.7703,39.7459 40.232,39.7556 40.2248,39.7706 C 40.4634,39.4421 39.9253,39.4519 39.9181,39.4669 C 40.1566,39.1386 39.6188,39.1484 39.6116,39.1635 C 39.8501,38.8353 39.3125,38.8451 39.3053,38.8603 C 39.5437,38.5321 39.0063,38.5421 38.9992,38.5572 C 39.2376,38.2292 38.7004,38.2392 38.6932,38.2544 C 38.9316,37.9265 38.3947,37.9365 38.3875,37.9518 C 38.6259,37.624 38.0892,37.6341 38.082,37.6494 C 38.3204,37.3217 37.7839,37.3318 37.7767,37.3472 C 38.015,37.0196 37.4788,37.0298 37.4716,37.0452 C 37.7099,36.7177 37.1739,36.7279 37.1667,36.7434 C 37.405,36.416 36.8692,36.4263 36.862,36.4418 C 37.1002,36.1145 36.5647,36.1249 36.5575,36.1404 C 36.7957,35.8132 36.2604,35.8236 36.2532,35.8393 C 36.4914,35.5122 35.9563,35.5226 35.9491,35.5383 C 36.1873,35.2113 35.6524,35.2218 35.6452,35.2375 C 35.8833,34.9106 35.3487,34.9212 35.3415,34.9369 C 35.5796,34.6102 35.0452,34.6208 35.038,34.6366 C 35.2761,34.3099 34.7419,34.3205 34.7347,34.3364 C 34.9727,34.0099 34.4388,34.0205 34.4316,34.0365 C 34.6696,33.71 34.1359,33.7207 34.1287,33.7367 C 34.3667,33.4103 33.8332,33.4211 33.826,33.4371 C 34.0639,33.1109 33.5307,33.1217 33.5235,33.1378 C 33.7614,32.8116 33.2284,32.8225 33.2212,32.8386 C 33.4591,32.5126 32.9263,32.5235 32.919,32.5397 C 33.1569,32.2137 32.6244,32.2247 32.6171,32.2409 C 32.855,31.9151 32.3227,31.9261 32.3154,31.9424 C 32.5533,31.6167 32.0212,31.6277 32.0139,31.6441 C 32.2517,31.3184 31.7199,31.3295 31.7126,31.3459 C 31.9504,31.0204 31.4187,31.0316 31.4115,31.048 C 31.6492,30.7225 31.1178,30.7338 31.1105,30.7502 C 31.3483,30.4249 30.8171,30.4362 30.8098,30.4527 C 31.0475,30.1274 30.5166,30.1388 30.5093,30.1553 C 30.747,29.8302 30.2162,29.8416 30.2089,29.8582 C 30.4466,29.5332 29.9161,29.5446 29.9088,29.5612 C 30.1464,29.2363 29.6161,29.2478 29.6088,29.2645 C 29.8465,28.9397 29.3164,28.9512 29.3091,28.9679 C 29.5467,28.6432 29.0168,28.6548 29.0095,28.6716 C 29.2471,28.347 28.7175,28.3586 28.7102,28.3754 C 28.9477,28.0509 28.4183,28.0626 28.411,28.0795 C 28.6485,27.7551 28.1193,27.7668 28.112,27.7837 C 28.3495,27.4594 27.8206,27.4712 27.8132,27.4882 C 28.0507,27.1639 27.522,27.1758 27.5147,27.1928 C 27.7521,26.8687 27.2236,26.8806 27.2163,26.8976 C 27.4537,26.5736 26.9254,26.5855 26.9181,26.6027 C 27.1555,26.2788 26.6274,26.2907 26.6201,26.3079 C 26.8574,25.9841 26.3296,25.9961 26.3222,26.0133 C 26.5596,25.6896 26.032,25.7017 26.0246,25.7189 C 26.2619,25.3953 25.7345,25.4074 25.7272,25.4248 C 25.9645,25.1012 25.4373,25.1134 25.43,25.1308 C 25.6672,24.8074 25.1403,24.8196 25.1329,24.837 C 25.3702,24.5137 24.8434,24.5259 24.8361,24.5434 C 25.0733,24.2202 24.5468,24.2325 24.5394,24.25 C 24.7766,23.9269 24.2503,23.9392 24.2429,23.9568 C 24.4801,23.6337 23.954,23.6461 23.9467,23.6637 C 24.1838,23.3408 23.6579,23.3533 23.6506,23.3709 C 23.8877,23.0481 23.3621,23.0606 23.3547,23.0783 C 23.5918,22.7556 23.0664,22.7681 23.059,22.7859 C 23.296,22.4633 22.7708,22.4758 22.7635,22.4936 C 23.0005,22.1711 22.4755,22.1838 22.4681,22.2016 C 22.7051,21.8792 22.1804,21.8919 22.173,21.9097 C 22.41,21.5874 21.8854,21.6001 21.878,21.6181 C 22.115,21.2959 21.5907,21.3086 21.5833,21.3266 C 21.8202,21.0045 21.2961,21.0173 21.2887,21.0353 C 21.5256,20.7133 21.0017,20.7262 20.9943,20.7443 C 21.2312,20.4223 20.7076,20.4353 20.7001,20.4534 C 20.937,20.1315 20.4136,20.1445 20.4061,20.1627 C 20.643,19.8409 20.1197,19.854 20.1123,19.8722 C 20.3491,19.5505 19.8261,19.5636 19.8187,19.5818 C 20.0555,19.2603 19.5327,19.2734 19.5253,19.2917 C 19.762,18.9703 19.2394,18.9834 19.232,19.0018 C 19.4688,18.6805 18.9464,18.6937 18.9389,18.712 C 19.1757,18.3908 18.6535,18.4041 18.6461,18.4225 C 18.8828,18.1014 18.3608,18.1146 18.3534,18.1331 C 18.59,17.8121 18.0683,17.8254 18.0609,17.844 C 18.2975,17.523 17.776,17.5364 17.7685,17.555 C 18.0052,17.2341 17.4839,17.2476 17.4764,17.2662 C 17.713,16.9454 17.1919,16.9589 17.1845,16.9776 C 17.4211,16.6569 16.9002,16.6705 16.8927,16.6892 C 17.1293,16.3686 16.6086,16.3822 16.6011,16.4009 C 16.8377,16.0805 16.3172,16.0941 16.3097,16.1129 C 16.5463,15.7925 16.026,15.8062 16.0185,15.8251 C 16.255,15.5048 15.735,15.5185 15.7275,15.5374 C 15.964,15.2172 15.4442,15.231 15.4367,15.2499 C 15.6731,14.9299 15.1535,14.9437 15.146,14.9627 C 15.3824,14.6427 14.863,14.6565 14.8556,14.6756 C 15.092,14.3557 14.5728,14.3696 14.5653,14.3886 C 14.8017,14.0689 14.2827,14.0828 14.2752,14.1019 C 14.5115,13.7822 13.9928,13.7962 13.9853,13.8154 C 14.2216,13.4958 13.703,13.5098 13.6955,13.529 C 13.9318,13.2095 13.4135,13.2236 13.406,13.2429 C 13.6423,12.9235 13.1241,12.9376 13.1166,12.9569 C 13.3529,12.6376 12.8349,12.6518 12.8274,12.6711 C 13.0637,12.3519 12.5459,12.3661 12.5384,12.3855 C 12.7746,12.0664 12.2571,12.0807 12.2496,12.1001 C 12.4858,11.7811 11.9685,11.7954 11.961,11.8149 C 12.1971,11.4959 11.68,11.5103 11.6725,11.5298 C 11.9087,11.211 11.3918,11.2254 11.3843,11.245 C 11.6204,10.9262 11.1037,10.9407 11.0962,10.9603 C 11.3323,10.6416 10.8158,10.6561 10.8083,10.6758 C 11.0443,10.3572 10.5281,10.3718 10.5205,10.3915 C 10.7566,10.073 10.2405,10.0876 10.233,10.1074 C 10.469,9.789 9.95314,9.80363 9.94561,9.82344 C 10.1816,9.50516 9.66596,9.51983 9.65843,9.53968 C 9.8944,9.2215 9.37896,9.23621 9.37142,9.25611 C 9.60737,8.93802 9.09213,8.95278 9.08459,8.97272 C 9.32052,8.65473 8.80549,8.66953 8.79795,8.68952 C 9.03385,8.37162 8.51902,8.38647 8.51148,8.4065 C 8.74736,8.08869 8.23274,8.10358 8.22519,8.12366 C 8.46105,7.80595 7.94663,7.82088 7.93908,7.84101 C 8.17492,7.52339 7.66071,7.53837 7.65315,7.55853 C 7.88897,7.24101 7.37496,7.25603 7.3674,7.27624 C 7.60319,6.95881 7.08939,6.97388 7.08183,6.99413 C 7.3176,6.67679 6.804,6.69191 6.79644,6.71221 C 7.03218,6.39496 6.51879,6.41012 6.51122,6.43046 C 6.74695,6.11331 6.23375,6.12851 6.22618,6.1489 C 6.46189,5.83184 5.9489,5.84708 5.94133,5.86752 C 6.177,5.55055 5.66422,5.56584 5.65664,5.58632 C 5.8923,5.26944 5.37972,5.28477 5.37214,5.30529 C 5.60777,4.98851 5.09539,5.00389 5.08781,5.02445 C 5.32342,4.70776 4.81125,4.72319 4.80366,4.7438 C 5.03925,4.42719 4.52728,4.44266 4.51969,4.46332 C 4.75525,4.14681 4.24348,4.16232 4.23589,4.18302 C 4.47144,3.8666 3.95986,3.88216 3.95227,3.9029 C 4.18779,3.58657 3.67642,3.60217 3.66883,3.62296 C 3.90433,3.30672 3.39316,3.32237 3.38556,3.3432 C 3.62104,3.02706 3.11007,3.04274 3.10247,3.06362 C 3.33792,2.74757 2.82715,2.7633 2.81955,2.78421 C 3.05498,2.46826 2.54442,2.48403 2.53681,2.50499 C 2.77222,2.18912 2.26185,2.20494 2.25424,2.22595 C 2.48963,1.91017 1.97947,1.92603 1.97185,1.94708 C 2.20722,1.6314 1.69725,1.6473 1.68964,1.66839 C 1.92498,1.3528 1.41521,1.36875 1.40759,1.38988 C 1.64292,1.07438 1.13335,1.09037 1.12573,1.11155 C 1.36103,0.79614 0.851659,0.812175 0.844034,0.833398 C 1.07931,0.518077 0.570144,0.534155 0.562516,0.555421 C 0.797772,0.240191 0.288802,0.256312 0.281171,0.277622 C 0.516405,-0.0375175 0.00763336,-0.0213532 0,0 Z" fill="#000" /></svg>