<?xml version="1.0" encoding="utf-8" ?>
<svg baseProfile="tiny" fill-rule="evenodd" height="1.9303973092755768px" version="1.2" width="51.98446290194988px" xmlns="http://www.w3.org/2000/svg" xmlns:ev="http://www.w3.org/2001/xml-events" xmlns:xlink="http://www.w3.org/1999/xlink"><defs /><path d="M -0.078253,1.9304 m 0,0 C 0.289686,1.58118 0.151895,1.63419 0.147105,1.79431 C 0.447783,1.52895 0.320961,1.59698 0.317239,1.75931 C 0.62231,1.49281 0.499805,1.56671 0.49725,1.73015 C 0.804371,1.46313 0.683868,1.53976 0.682091,1.70377 C 0.99023,1.4365 0.870782,1.51452 0.869457,1.67884 C 1.17812,1.41146 1.05929,1.49023 1.05821,1.65475 C 1.36714,1.38731 1.24873,1.46652 1.24778,1.63118 C 1.55685,1.36371 1.43874,1.4432 1.43787,1.60795 C 1.747,1.34048 1.62914,1.42016 1.62831,1.585 C 1.93748,1.31753 1.81983,1.39735 1.81902,1.56227 C 2.1282,1.29481 2.01076,1.37475 2.00996,1.53975 C 2.31915,1.27229 2.2019,1.35235 2.2011,1.51741 C 2.5103,1.24997 2.39324,1.33013 2.39244,1.49525 C 2.70164,1.22782 2.58476,1.30808 2.58397,1.47328 C 2.89316,1.20586 2.77647,1.28622 2.77568,1.45148 C 3.08486,1.18408 2.96836,1.26453 2.96757,1.42986 C 3.27675,1.16246 3.16043,1.24301 3.15964,1.40841 C 3.46882,1.14103 3.35268,1.22167 3.35189,1.38713 C 3.66106,1.11977 3.54511,1.20051 3.54432,1.36603 C 3.85349,1.09868 3.73771,1.17951 3.73693,1.34511 C 4.04609,1.07776 3.9305,1.15869 3.92971,1.32435 C 4.23887,1.05702 4.12346,1.13805 4.12267,1.30377 C 4.43182,1.03645 4.3166,1.11757 4.31581,1.28336 C 4.62496,1.01606 4.50991,1.09727 4.50913,1.26312 C 4.81827,0.995833 4.7034,1.07714 4.70262,1.24306 C 5.01175,0.975781 4.89707,1.05718 4.89629,1.22317 C 5.20542,0.9559 5.09091,1.03739 5.09013,1.20344 C 5.39925,0.93619 5.28493,1.01777 5.28415,1.18389 C 5.59327,0.916651 5.47912,0.998329 5.47834,1.16451 C 5.78746,0.897283 5.67349,0.979054 5.67271,1.1453 C 5.98182,0.878086 5.86804,0.959949 5.86725,1.12626 C 6.17636,0.859058 6.06275,0.941014 6.06197,1.10739 C 6.37107,0.840201 6.25764,0.922249 6.25686,1.08869 C 6.56595,0.821512 6.45271,0.903653 6.45193,1.07016 C 6.76101,0.802994 6.64794,0.885226 6.64716,1.0518 C 6.95625,0.784644 6.84335,0.866969 6.84257,1.0336 C 7.15165,0.766463 7.03894,0.848879 7.03816,1.01558 C 7.34723,0.74845 7.23469,0.830958 7.23391,0.997721 C 7.54298,0.730605 7.43062,0.813205 7.42984,0.980032 C 7.7389,0.712929 7.62672,0.79562 7.62594,0.96251 C 7.935,0.69542 7.82299,0.778202 7.82221,0.945156 C 8.13126,0.678078 8.01943,0.760951 8.01865,0.927969 C 8.3277,0.660904 8.21604,0.743867 8.21527,0.910949 C 8.52431,0.643896 8.41283,0.72695 8.41205,0.894095 C 8.72108,0.627055 8.60978,0.7102 8.609,0.877408 C 8.91803,0.61038 8.8069,0.693615 8.80613,0.860886 C 9.11515,0.593871 9.0042,0.677196 9.00342,0.84453 C 9.31244,0.577528 9.20166,0.660943 9.20088,0.82834 C 9.5099,0.56135 9.39929,0.644855 9.39852,0.812315 C 9.70752,0.545338 9.59709,0.628932 9.59632,0.796455 C 9.90532,0.52949 9.79506,0.613174 9.79429,0.78076 C 10.1033,0.513807 9.9932,0.597581 9.99242,0.765229 C 10.3014,0.498289 10.1915,0.582151 10.1907,0.749862 C 10.4997,0.482935 10.39,0.566886 10.3892,0.734659 C 10.6982,0.467744 10.5886,0.551784 10.5878,0.71962 C 10.8968,0.452717 10.7874,0.536846 10.7867,0.704744 C 11.0956,0.437854 10.9864,0.522071 10.9856,0.690031 C 11.2946,0.423153 11.1855,0.507459 11.1848,0.675481 C 11.4937,0.408616 11.3848,0.49301 11.3841,0.661094 C 11.693,0.394241 11.5843,0.478723 11.5835,0.646869 C 11.8925,0.380028 11.784,0.464598 11.7832,0.632806 C 12.0921,0.365978 11.9838,0.450636 11.983,0.618905 C 12.2919,0.352089 12.1837,0.436834 12.183,0.605165 C 12.4919,0.338362 12.3839,0.423195 12.3831,0.591587 C 12.692,0.324796 12.5842,0.409716 12.5834,0.57817 C 12.8923,0.311391 12.7846,0.396398 12.7839,0.564913 C 13.0928,0.298147 12.9853,0.383241 12.9845,0.551817 C 13.2934,0.285063 13.186,0.370245 13.1853,0.538882 C 13.4942,0.27214 13.387,0.357408 13.3862,0.526106 C 13.6951,0.259377 13.5881,0.344731 13.5874,0.51349 C 13.8963,0.246773 13.7894,0.332214 13.7886,0.501034 C 14.0975,0.234329 13.9908,0.319856 13.9901,0.488737 C 14.299,0.222045 14.1925,0.307658 14.1917,0.476599 C 14.5006,0.209919 14.3942,0.295618 14.3935,0.46462 C 14.7023,0.197952 14.5961,0.283737 14.5954,0.452799 C 14.9043,0.186144 14.7982,0.272015 14.7975,0.441137 C 15.1063,0.174494 15.0005,0.26045 14.9997,0.429632 C 15.3086,0.163002 15.2029,0.249043 15.2021,0.418286 C 15.511,0.151668 15.4055,0.237794 15.4047,0.407097 C 15.7136,0.140491 15.6082,0.226703 15.6075,0.396065 C 15.9163,0.129472 15.8111,0.215768 15.8104,0.38519 C 16.1192,0.118609 16.0142,0.204991 16.0134,0.374473 C 16.3222,0.107904 16.2174,0.19437 16.2166,0.363911 C 16.5255,0.0973549 16.4208,0.183905 16.42,0.353506 C 16.7288,0.0869623 16.6243,0.173597 16.6235,0.343258 C 16.9324,0.0767258 16.828,0.163445 16.8272,0.333165 C 17.136,0.0666451 17.0318,0.153448 17.0311,0.323227 C 17.3399,0.05672 17.2359,0.143607 17.2351,0.313446 C 17.5439,0.0469504 17.44,0.133921 17.4393,0.303819 C 17.7481,0.0373358 17.6444,0.12439 17.6436,0.294347 C 17.9524,0.0278762 17.8488,0.115014 17.8481,0.28503 C 18.1569,0.0185712 18.0535,0.105792 18.0527,0.275867 C 18.3615,0.00942062 18.2583,0.0967246 18.2575,0.266858 C 18.5663,0.000424276 18.4632,0.0878113 18.4625,0.258004 C 18.7713,-0.00841814 18.6683,0.0790518 18.6676,0.249303 C 18.9764,-0.0171068 18.8736,0.0704459 18.8729,0.240755 C 19.1816,-0.025642 19.079,0.0619933 19.0783,0.232361 C 19.387,-0.0340239 19.2846,0.0536938 19.2839,0.22412 C 19.5926,-0.0422528 19.4904,0.0455473 19.4896,0.216032 C 19.7984,-0.0503289 19.6963,0.0375533 19.6955,0.208096 C 20.0042,-0.0582525 19.9023,0.0297119 19.9016,0.200312 C 20.2103,-0.0660237 20.1085,0.0220226 20.1078,0.192681 C 20.4165,-0.0736428 20.3149,0.0144853 20.3141,0.185202 C 20.6228,-0.08111 20.5214,0.00709977 20.5206,0.177874 C 20.8293,-0.0884256 20.728,-0.000134269 20.7273,0.170698 C 21.036,-0.0955896 20.9349,-0.00721701 20.9341,0.163673 C 21.2428,-0.102603 21.1418,-0.0141487 21.1411,0.156799 C 21.4498,-0.109465 21.349,-0.0209295 21.3482,0.150075 C 21.6569,-0.116176 21.5562,-0.0275598 21.5555,0.143502 C 21.8642,-0.122736 21.7637,-0.0340396 21.7629,0.13708 C 22.0716,-0.129147 21.9713,-0.0403693 21.9705,0.130807 C 22.2792,-0.135407 22.179,-0.046549 22.1783,0.124685 C 22.4869,-0.141518 22.3869,-0.052579 22.3862,0.118712 C 22.6948,-0.147478 22.5949,-0.0584595 22.5942,0.112888 C 22.9029,-0.15329 22.8031,-0.0641907 22.8024,0.107214 C 23.111,-0.158952 23.0115,-0.0697729 23.0107,0.101689 C 23.3194,-0.164465 23.22,-0.0752062 23.2192,0.0963121 C 23.5279,-0.16983 23.4286,-0.0804908 23.4279,0.091084 C 23.7365,-0.175046 23.6374,-0.0856271 23.6367,0.0860043 C 23.9453,-0.180113 23.8464,-0.0906152 23.8456,0.0810727 C 24.1543,-0.185033 24.0555,-0.0954553 24.0547,0.076289 C 24.3634,-0.189804 24.2647,-0.100148 24.264,0.0716529 C 24.5726,-0.194428 24.4741,-0.104693 24.4734,0.0671643 C 24.782,-0.198905 24.6837,-0.10909 24.683,0.062823 C 24.9916,-0.203234 24.8934,-0.11334 24.8927,0.0586286 C 25.2013,-0.207416 25.1032,-0.117444 25.1025,0.0545812 C 25.4111,-0.211452 25.3132,-0.121401 25.3125,0.0506803 C 25.6211,-0.215341 25.5234,-0.125211 25.5227,0.0469257 C 25.8312,-0.219083 25.7337,-0.128875 25.7329,0.0433173 C 26.0415,-0.222679 25.9441,-0.132393 25.9434,0.0398549 C 26.252,-0.22613 26.1547,-0.135766 26.154,0.0365382 C 26.4626,-0.229434 26.3655,-0.138992 26.3647,0.0333671 C 26.6733,-0.232594 26.5763,-0.142073 26.5756,0.0303413 C 26.8842,-0.235607 26.7874,-0.14501 26.7867,0.0274605 C 27.0952,-0.238476 26.9986,-0.147801 26.9978,0.0247247 C 27.3064,-0.2412 27.2099,-0.150447 27.2092,0.0221335 C 27.5177,-0.243779 27.4214,-0.152949 27.4206,0.0196868 C 27.7292,-0.246214 27.633,-0.155306 27.6323,0.0173845 C 27.9408,-0.248504 27.8448,-0.157519 27.844,0.0152261 C 28.1526,-0.25065 28.0567,-0.159589 28.056,0.0132116 C 28.3645,-0.252653 28.2687,-0.161514 28.268,0.0113408 C 28.5765,-0.254512 28.4809,-0.163297 28.4802,0.00961344 C 28.7887,-0.256227 28.6933,-0.164935 28.6926,0.00802932 C 29.0011,-0.257799 28.9058,-0.166431 28.9051,0.00658823 C 29.2136,-0.259228 29.1184,-0.167784 29.1177,0.00528999 C 29.4262,-0.260515 29.3312,-0.168994 29.3305,0.00413439 C 29.639,-0.261658 29.5442,-0.170061 29.5434,0.00312121 C 29.8519,-0.262659 29.7572,-0.170986 29.7565,0.00225025 C 30.065,-0.263518 29.9705,-0.17177 29.9697,0.00152133 C 30.2782,-0.264235 30.1838,-0.172411 30.1831,0.000934228 C 30.4916,-0.264811 30.3973,-0.17291 30.3966,0.000488743 C 30.7051,-0.265244 30.611,-0.173268 30.6103,0.00018467 C 30.9187,-0.265536 30.8248,-0.173485 30.824,2.18302E-05 C 31.1325,-0.265687 31.0387,-0.173561 31.038,0 C 31.3464,-0.265697 31.2528,-0.173495 31.2521,0.000119016 C 31.5605,-0.265566 31.467,-0.173289 31.4663,0.000378653 C 31.7747,-0.265295 31.6814,-0.172943 31.6807,0.000778705 C 31.9891,-0.264883 31.8959,-0.172456 31.8952,0.00131898 C 32.2036,-0.26433 32.1105,-0.171829 32.1098,0.0019993 C 32.4182,-0.263638 32.3253,-0.171062 32.3246,0.00281943 C 32.633,-0.262806 32.5403,-0.170156 32.5395,0.00377919 C 32.8479,-0.261834 32.7553,-0.16911 32.7546,0.00487837 C 33.063,-0.260723 32.9705,-0.167925 32.9698,0.00611687 C 33.2782,-0.259473 33.1859,-0.1666 33.1852,0.00749442 C 33.4936,-0.258084 33.4014,-0.165137 33.4007,0.00901079 C 33.7091,-0.256555 33.617,-0.163535 33.6163,0.0106658 C 33.9247,-0.254888 33.8328,-0.161794 33.8321,0.0124593 C 34.1405,-0.253083 34.0487,-0.159915 34.048,0.0143911 C 34.3564,-0.251139 34.2648,-0.157898 34.2641,0.016461 C 34.5724,-0.249058 34.481,-0.155743 34.4803,0.0186688 C 34.7886,-0.246838 34.6973,-0.15345 34.6966,0.0210142 C 35.0049,-0.244481 34.9138,-0.151019 34.9131,0.0234972 C 35.2214,-0.241986 35.1304,-0.148451 35.1297,0.0261175 C 35.438,-0.239354 35.3472,-0.145746 35.3464,0.028875 C 35.6548,-0.236584 35.564,-0.142904 35.5633,0.0317694 C 35.8717,-0.233678 35.7811,-0.139925 35.7804,0.0348005 C 36.0887,-0.230635 35.9982,-0.136809 35.9975,0.0379682 C 36.3058,-0.227456 36.2156,-0.133557 36.2148,0.0412723 C 36.5231,-0.22414 36.433,-0.130169 36.4323,0.0447126 C 36.7406,-0.220688 36.6506,-0.126645 36.6499,0.0482889 C 36.9582,-0.2171 36.8683,-0.122984 36.8676,0.0520011 C 37.1759,-0.213376 37.0862,-0.119188 37.0855,0.0558489 C 37.3937,-0.209516 37.3041,-0.115257 37.3034,0.0598321 C 37.6117,-0.205521 37.5223,-0.11119 37.5216,0.0639506 C 37.8298,-0.201391 37.7405,-0.106988 37.7398,0.0682042 C 38.0481,-0.197125 37.9589,-0.102651 37.9582,0.0725927 C 38.2665,-0.192725 38.1775,-0.0981791 38.1768,0.0771158 C 38.485,-0.18819 38.3962,-0.0935728 38.3955,0.0817735 C 38.7037,-0.183521 38.615,-0.088832 38.6143,0.0865655 C 38.9225,-0.178717 38.8339,-0.0839571 38.8332,0.0914916 C 39.1415,-0.173779 39.053,-0.0789481 39.0523,0.0965518 C 39.3605,-0.168707 39.2722,-0.0738052 39.2715,0.101746 C 39.5797,-0.163501 39.4916,-0.0685286 39.4909,0.107073 C 39.7991,-0.158162 39.7111,-0.0631185 39.7104,0.112534 C 40.0186,-0.152689 39.9307,-0.0575751 39.93,0.118129 C 40.2382,-0.147083 40.1504,-0.0518985 40.1497,0.123856 C 40.4579,-0.141344 40.3703,-0.0460891 40.3696,0.129716 C 40.6778,-0.135472 40.5904,-0.0401467 40.5897,0.135709 C 40.8979,-0.129468 40.8105,-0.0340718 40.8098,0.141835 C 41.118,-0.12333 41.0308,-0.0278645 41.0301,0.148093 C 41.3383,-0.117061 41.2512,-0.0215249 41.2505,0.154483 C 41.5587,-0.110659 41.4718,-0.0150531 41.4711,0.161005 C 41.7793,-0.104125 41.6925,-0.00844957 41.6918,0.167659 C 42,-0.0974595 41.9133,-0.00171424 41.9126,0.174444 C 42.2208,-0.0906623 42.1343,0.00515265 42.1336,0.181361 C 42.4417,-0.0837335 42.3554,0.0121509 42.3547,0.18841 C 42.6628,-0.0766734 42.5766,0.0192803 42.5759,0.195589 C 42.884,-0.0694823 42.7979,0.0265407 42.7973,0.202899 C 43.1054,-0.0621602 43.0194,0.033932 43.0187,0.210341 C 43.3269,-0.0547073 43.241,0.041454 43.2404,0.217913 C 43.5485,-0.0471237 43.4628,0.0491065 43.4621,0.225615 C 43.7702,-0.0394098 43.6847,0.0568893 43.684,0.233447 C 43.9921,-0.0315656 43.9067,0.0648023 43.906,0.24141 C 44.2141,-0.0235913 44.1288,0.0728453 44.1282,0.249503 C 44.4363,-0.015487 44.3511,0.081018 44.3504,0.257725 C 44.6585,-0.00725307 44.5735,0.0893205 44.5728,0.266077 C 44.8809,0.00111046 44.7961,0.0977524 44.7954,0.274558 C 45.1035,0.0096034 45.0187,0.106314 45.0181,0.283169 C 45.3261,0.0182255 45.2415,0.115004 45.2409,0.291908 C 45.5489,0.0269767 45.4645,0.123823 45.4638,0.300777 C 45.7718,0.0358569 45.6875,0.132771 45.6868,0.309774 C 45.9949,0.0448658 45.9107,0.141848 45.91,0.3189 C 46.2181,0.0540032 46.134,0.151053 46.1333,0.328154 C 46.4414,0.0632691 46.3575,0.160387 46.3568,0.337536 C 46.6648,0.0726632 46.581,0.169848 46.5804,0.347047 C 46.8884,0.0821853 46.8047,0.179438 46.8041,0.356685 C 47.1121,0.0918353 47.0286,0.189155 47.0279,0.366452 C 47.3359,0.101613 47.2525,0.199 47.2519,0.376345 C 47.5599,0.111518 47.4766,0.208973 47.476,0.386366 C 47.784,0.121551 47.7008,0.219073 47.7002,0.396515 C 48.0082,0.131711 47.9252,0.2293 47.9245,0.40679 C 48.2325,0.141998 48.1497,0.239653 48.149,0.417193 C 48.457,0.152412 48.3743,0.250134 48.3736,0.427722 C 48.6816,0.162953 48.599,0.260742 48.5983,0.438377 C 48.9063,0.17362 48.8239,0.271475 48.8232,0.44916 C 49.1312,0.184414 49.0488,0.282336 49.0482,0.460068 C 49.3561,0.195334 49.2739,0.293322 49.2733,0.471102 C 49.5812,0.20638 49.4992,0.304434 49.4985,0.482263 C 49.8065,0.217552 49.7245,0.315673 49.7239,0.493549 C 50.0318,0.22885 49.95,0.327036 49.9494,0.504961 C 50.2573,0.240273 50.1757,0.338526 50.175,0.516498 C 50.4829,0.251822 50.4014,0.350141 50.4007,0.528161 C 50.7087,0.263496 50.6273,0.36188 50.6266,0.539948 C 50.9345,0.275295 50.8533,0.373745 50.8526,0.551861 C 51.1605,0.287219 51.0794,0.385735 51.0787,0.563899 C 51.3866,0.299268 51.3056,0.39785 51.305,0.576061 C 51.6129,0.311442 51.532,0.410089 51.5313,0.588347 C 51.8392,0.32374 51.7585,0.422452 51.7578,0.600758 C 52.0657,0.336162 51.9851,0.43494 51.9845,0.613293 Z" fill="#000" /></svg>