<?xml version="1.0" encoding="utf-8" ?>
<svg baseProfile="tiny" fill-rule="evenodd" height="18.57305927760899px" version="1.2" width="86.60959216952324px" xmlns="http://www.w3.org/2000/svg" xmlns:ev="http://www.w3.org/2001/xml-events" xmlns:xlink="http://www.w3.org/1999/xlink"><defs /><path d="M -0.189741,0.0329991 M -0.189741,0.0329991 L 0.276328,0.0207309 L 0.582557,0.060993 L 0.901415,0.109312 L 1.22621,0.161342 L 1.55396,0.215221 L 1.88326,0.270096 L 2.21341,0.325556 L 2.54409,0.381403 L 2.87511,0.437536 L 3.20639,0.493905 L 3.53789,0.550484 L 3.86958,0.60726 L 4.20145,0.664227 L 4.5335,0.72138 L 4.86572,0.778718 L 5.19811,0.836239 L 5.53067,0.893943 L 5.8634,0.951829 L 6.1963,1.0099 L 6.52937,1.06815 L 6.8626,1.12658 L 7.196,1.18519 L 7.52956,1.24398 L 7.8633,1.30295 L 8.19719,1.36209 L 8.53126,1.42142 L 8.86549,1.48093 L 9.19988,1.54062 L 9.53444,1.60048 L 9.86916,1.66052 L 10.204,1.72074 L 10.5391,1.78113 L 10.8743,1.8417 L 11.2097,1.90245 L 11.5452,1.96338 L 11.8809,2.02448 L 12.2168,2.08575 L 12.5528,2.1472 L 12.889,2.20882 L 13.2253,2.27062 L 13.5618,2.3326 L 13.8985,2.39474 L 14.2353,2.45706 L 14.5723,2.51955 L 14.9095,2.58222 L 15.2468,2.64505 L 15.5842,2.70806 L 15.9218,2.77124 L 16.2596,2.8346 L 16.5975,2.89812 L 16.9356,2.96181 L 17.2739,3.02568 L 17.6123,3.08971 L 17.9508,3.15391 L 18.2896,3.21829 L 18.6284,3.28283 L 18.9674,3.34754 L 19.3066,3.41242 L 19.646,3.47747 L 19.9855,3.54268 L 20.3251,3.60806 L 20.6649,3.67361 L 21.0048,3.73933 L 21.3449,3.80521 L 21.6852,3.87126 L 22.0256,3.93748 L 22.3662,4.00386 L 22.7069,4.0704 L 23.0477,4.13712 L 23.3888,4.20399 L 23.7299,4.27103 L 24.0712,4.33824 L 24.4127,4.40561 L 24.7543,4.47314 L 25.0961,4.54083 L 25.438,4.60869 L 25.7801,4.67671 L 26.1223,4.7449 L 26.4646,4.81324 L 26.8071,4.88175 L 27.1498,4.95042 L 27.4926,5.01925 L 27.8356,5.08824 L 28.1787,5.15739 L 28.5219,5.2267 L 28.8653,5.29618 L 29.2088,5.36581 L 29.5525,5.4356 L 29.8963,5.50555 L 30.2403,5.57566 L 30.5844,5.64593 L 30.9287,5.71635 L 31.2731,5.78694 L 31.6177,5.85768 L 31.9624,5.92858 L 32.3072,5.99964 L 32.6522,6.07085 L 32.9973,6.14222 L 33.3426,6.21375 L 33.688,6.28543 L 34.0336,6.35727 L 34.3793,6.42927 L 34.7251,6.50142 L 35.0711,6.57372 L 35.4172,6.64618 L 35.7635,6.7188 L 36.1099,6.79157 L 36.4564,6.86449 L 36.8031,6.93756 L 37.1499,7.01079 L 37.4969,7.08418 L 37.844,7.15771 L 38.1912,7.2314 L 38.5386,7.30524 L 38.8861,7.37924 L 39.2338,7.45338 L 39.5816,7.52768 L 39.9295,7.60213 L 40.2776,7.67672 L 40.6258,7.75147 L 40.9741,7.82637 L 41.3226,7.90143 L 41.6712,7.97663 L 42.02,8.05198 L 42.3689,8.12748 L 42.7179,8.20313 L 43.067,8.27893 L 43.4163,8.35487 L 43.7658,8.43097 L 44.1153,8.50721 L 44.465,8.58361 L 44.8149,8.66015 L 45.1648,8.73683 L 45.5149,8.81367 L 45.8652,8.89065 L 46.2155,8.96778 L 46.566,9.04505 L 46.9167,9.12248 L 47.2674,9.20004 L 47.6183,9.27776 L 47.9694,9.35562 L 48.3205,9.43362 L 48.6718,9.51177 L 49.0232,9.59007 L 49.3748,9.6685 L 49.7265,9.74709 L 50.0783,9.82582 L 50.4303,9.90469 L 50.7823,9.9837 L 51.1345,10.0629 L 51.4869,10.1422 L 51.8393,10.2216 L 52.1919,10.3012 L 52.5447,10.3809 L 52.8975,10.4608 L 53.2505,10.5408 L 53.6036,10.621 L 53.9568,10.7013 L 54.3102,10.7817 L 54.6637,10.8623 L 55.0173,10.943 L 55.3711,11.0239 L 55.7249,11.1049 L 56.0789,11.186 L 56.4331,11.2673 L 56.7873,11.3487 L 57.1417,11.4303 L 57.4962,11.512 L 57.8508,11.5938 L 58.2056,11.6758 L 58.5605,11.7579 L 58.9155,11.8402 L 59.2706,11.9226 L 59.6259,12.0051 L 59.9813,12.0878 L 60.3368,12.1706 L 60.6924,12.2535 L 61.0481,12.3366 L 61.404,12.4198 L 61.76,12.5032 L 62.1161,12.5867 L 62.4724,12.6703 L 62.8287,12.7541 L 63.1852,12.838 L 63.5418,12.922 L 63.8986,13.0062 L 64.2554,13.0905 L 64.6124,13.1749 L 64.9695,13.2595 L 65.3267,13.3442 L 65.6841,13.4291 L 66.0415,13.514 L 66.3991,13.5992 L 66.7568,13.6844 L 67.1146,13.7698 L 67.4726,13.8553 L 67.8306,13.9409 L 68.1888,14.0267 L 68.5471,14.1126 L 68.9055,14.1987 L 69.264,14.2849 L 69.6227,14.3712 L 69.9815,14.4576 L 70.3404,14.5442 L 70.6994,14.6309 L 71.0585,14.7177 L 71.4177,14.8047 L 71.7771,14.8918 L 72.1366,14.979 L 72.4962,15.0664 L 72.8559,15.1539 L 73.2157,15.2415 L 73.5757,15.3292 L 73.9357,15.4171 L 74.2959,15.5051 L 74.6562,15.5933 L 75.0166,15.6815 L 75.3771,15.7699 L 75.7378,15.8584 L 76.0985,15.9471 L 76.4594,16.0359 L 76.8204,16.1248 L 77.1815,16.2138 L 77.5427,16.303 L 77.904,16.3923 L 78.2654,16.4817 L 78.627,16.5712 L 78.9887,16.6609 L 79.3505,16.7507 L 79.7123,16.8406 L 80.0744,16.9307 L 80.4365,17.0209 L 80.7987,17.1112 L 81.1611,17.2016 L 81.5235,17.2922 L 81.8861,17.3829 L 82.2488,17.4737 L 82.6116,17.5646 L 82.9745,17.6557 L 83.3375,17.7468 L 83.7006,17.8381 L 84.0638,17.9296 L 84.4272,18.0211 L 84.7906,18.1128 L 85.1542,18.2046 L 85.5179,18.2965 L 85.8817,18.3886 L 86.2456,18.4808 L 86.6096,18.5731 Z" fill="#000" /></svg>