<?xml version="1.0" encoding="utf-8" ?>
<svg baseProfile="tiny" fill-rule="evenodd" height="18.195761170238256px" version="1.2" width="7.212625754153123px" xmlns="http://www.w3.org/2000/svg" xmlns:ev="http://www.w3.org/2001/xml-events" xmlns:xlink="http://www.w3.org/1999/xlink"><defs /><path d="M 1.00194,18.1958 C 1.02427,18.2024 0.959575,18.1267 0.974891,18.0747 L 0.860403,17.9079 L 0.855162,17.8162 L 0.775081,17.6615 L 0.771428,17.5739 L 0.710515,17.4309 L 0.703212,17.3401 L 0.654216,17.2061 L 0.642895,17.1113 L 0.602021,16.9843 L 0.58753,16.8859 L 0.552522,16.7644 L 0.535875,16.6633 L 0.505261,16.5461 L 0.487344,16.4433 L 0.460111,16.3293 L 0.441619,16.2255 L 0.417058,16.1141 L 0.39851,16.0098 L 0.376121,15.9006 L 0.357887,15.7962 L 0.337322,15.6887 L 0.319662,15.5846 L 0.300679,15.4785 L 0.283767,15.3748 L 0.266199,15.27 L 0.250151,15.1669 L 0.233882,15.0632 L 0.218774,14.9608 L 0.203724,14.8581 L 0.189601,14.7564 L 0.175714,14.6547 L 0.162603,14.5538 L 0.149839,14.453 L 0.137755,14.3528 L 0.126086,14.2529 L 0.115034,14.1536 L 0.104438,14.0545 L 0.0944189,13.956 L 0.0848786,13.8577 L 0.0758889,13.76 L 0.0673906,13.6626 L 0.0594252,13.5656 L 0.051957,13.469 L 0.0450095,13.3728 L 0.0385609,13.277 L 0.0326239,13.1817 L 0.0271852,13.0866 L 0.0222511,12.992 L 0.0178132,12.8978 L 0.0138742,12.8039 L 0.0104285,12.7105 L 0.00747669,12.6174 L 0.00501488,12.5247 L 0.00304237,12.4323 L 0.00155626,12.3404 L 0.000555277,12.2488 L 3.7089E-05,12.1576 L 0,12.0667 L 0.000441924,11.9762 L 0.00136107,11.8861 L 0.00275552,11.7964 L 0.00462345,11.707 L 0.00696307,11.6179 L 0.00977257,11.5293 L 0.0130501,11.4409 L 0.0167938,11.353 L 0.021002,11.2654 L 0.025673,11.1781 L 0.0308049,11.0912 L 0.0363962,11.0046 L 0.0424449,10.9184 L 0.0489496,10.8326 L 0.0559083,10.747 L 0.0633197,10.6618 L 0.0711818,10.577 L 0.0794934,10.4925 L 0.0882523,10.4083 L 0.0974574,10.3245 L 0.107107,10.241 L 0.117199,10.1578 L 0.127733,10.075 L 0.138706,9.99246 L 0.150117,9.91027 L 0.161965,9.82842 L 0.174248,9.74689 L 0.186965,9.66568 L 0.200114,9.5848 L 0.213693,9.50424 L 0.227702,9.424 L 0.242139,9.34407 L 0.257001,9.26446 L 0.272289,9.18517 L 0.288,9.1062 L 0.304133,9.02753 L 0.320686,8.94918 L 0.337659,8.87114 L 0.35505,8.7934 L 0.372858,8.71598 L 0.39108,8.63886 L 0.409716,8.56205 L 0.428765,8.48554 L 0.448225,8.40933 L 0.468095,8.33343 L 0.488374,8.25783 L 0.50906,8.18252 L 0.530151,8.10752 L 0.551648,8.03281 L 0.573548,7.9584 L 0.59585,7.88428 L 0.618554,7.81046 L 0.641657,7.73692 L 0.665159,7.66368 L 0.689058,7.59074 L 0.713353,7.51808 L 0.738044,7.4457 L 0.763128,7.37362 L 0.788605,7.30182 L 0.814473,7.23031 L 0.840731,7.15908 L 0.867378,7.08813 L 0.894407,7.01746 L 0.921822,6.94707 L 0.949617,6.87696 L 0.977794,6.80713 L 1.00635,6.73757 L 1.03529,6.66829 L 1.0646,6.59929 L 1.09429,6.53055 L 1.12436,6.46209 L 1.1548,6.3939 L 1.18562,6.32598 L 1.21681,6.25834 L 1.24837,6.19096 L 1.2803,6.12384 L 1.3126,6.057 L 1.34527,5.99042 L 1.37831,5.9241 L 1.41172,5.85805 L 1.44549,5.79226 L 1.47962,5.72674 L 1.51412,5.66148 L 1.54898,5.59647 L 1.58421,5.53173 L 1.6198,5.46725 L 1.65574,5.40302 L 1.69205,5.33905 L 1.72871,5.27534 L 1.76573,5.21189 L 1.80311,5.14869 L 1.84084,5.08574 L 1.87893,5.02305 L 1.91737,4.9606 L 1.95617,4.89842 L 1.99532,4.83648 L 2.03482,4.77479 L 2.07467,4.71335 L 2.11487,4.65216 L 2.15541,4.59122 L 2.19631,4.53052 L 2.23755,4.47007 L 2.27914,4.40987 L 2.32108,4.34991 L 2.36335,4.2902 L 2.40598,4.23072 L 2.44894,4.1715 L 2.49225,4.11251 L 2.5359,4.05377 L 2.57989,3.99526 L 2.62422,3.937 L 2.66889,3.87897 L 2.7139,3.82118 L 2.75925,3.76363 L 2.80493,3.70632 L 2.85095,3.64925 L 2.8973,3.59241 L 2.94399,3.5358 L 2.99101,3.47943 L 3.03837,3.4233 L 3.08605,3.36739 L 3.13407,3.31172 L 3.18243,3.25629 L 3.23111,3.20108 L 3.28012,3.1461 L 3.32946,3.09136 L 3.37912,3.03684 L 3.42912,2.98255 L 3.47944,2.92849 L 3.53009,2.87466 L 3.58106,2.82105 L 3.63236,2.76767 L 3.68399,2.71452 L 3.73593,2.66159 L 3.7882,2.60889 L 3.84079,2.55641 L 3.89371,2.50416 L 3.94694,2.45212 L 4.0005,2.40031 L 4.05437,2.34873 L 4.10856,2.29736 L 4.16308,2.24621 L 4.21791,2.19529 L 4.27305,2.14458 L 4.32852,2.09409 L 4.3843,2.04382 L 4.44039,1.99377 L 4.4968,1.94394 L 4.55353,1.89432 L 4.61056,1.84492 L 4.66792,1.79574 L 4.72558,1.74677 L 4.78356,1.69802 L 4.84184,1.64948 L 4.90044,1.60115 L 4.95935,1.55304 L 5.01857,1.50514 L 5.07809,1.45746 L 5.13793,1.40998 L 5.19807,1.36272 L 5.25853,1.31567 L 5.31929,1.26883 L 5.38035,1.2222 L 5.44172,1.17578 L 5.5034,1.12956 L 5.56538,1.08356 L 5.62767,1.03776 L 5.69026,0.992175 L 5.75315,0.946795 L 5.81635,0.901621 L 5.87985,0.856654 L 5.94365,0.811892 L 6.00775,0.767336 L 6.07216,0.722986 L 6.13686,0.67884 L 6.20186,0.634898 L 6.26717,0.59116 L 6.33277,0.547626 L 6.39867,0.504294 L 6.46487,0.461165 L 6.53137,0.418238 L 6.59817,0.375513 L 6.66526,0.332989 L 6.73265,0.290666 L 6.80033,0.248544 L 6.86831,0.206622 L 6.93658,0.1649 L 7.00515,0.123377 L 7.07402,0.0820527 L 7.14317,0.0409272 L 7.21263,0 Z" fill="#000" /></svg>