<?xml version="1.0" encoding="utf-8" ?>
<svg baseProfile="tiny" fill-rule="evenodd" height="15.521165758371353px" version="1.2" width="24.677579451352358px" xmlns="http://www.w3.org/2000/svg" xmlns:ev="http://www.w3.org/2001/xml-events" xmlns:xlink="http://www.w3.org/1999/xlink"><defs /><path d="M -0.0888502,15.5212 L 0,15.4401 L 0.0140263,15.3104 L 0.109335,15.2444 L 0.152478,15.1255 L 0.246724,15.061 L 0.304658,14.9519 L 0.39548,14.8841 L 0.461688,14.7825 L 0.54937,14.7107 L 0.620631,14.6147 L 0.706005,14.5397 L 0.780554,14.4479 L 0.864405,14.3705 L 0.941197,14.2817 L 1.02413,14.2029 L 1.10252,14.1163 L 1.18497,14.0365 L 1.26454,13.9517 L 1.34681,13.8714 L 1.42728,13.7878 L 1.50958,13.7073 L 1.59078,13.6248 L 1.67323,13.5444 L 1.75505,13.4627 L 1.83774,13.3825 L 1.92009,13.3015 L 2.00308,13.2215 L 2.08593,13.1412 L 2.16925,13.0616 L 2.25255,12.9818 L 2.33623,12.9026 L 2.41996,12.8233 L 2.50401,12.7445 L 2.58816,12.6658 L 2.67259,12.5874 L 2.75715,12.5091 L 2.84195,12.4312 L 2.92692,12.3534 L 3.01211,12.2759 L 3.09747,12.1986 L 3.18304,12.1215 L 3.26879,12.0446 L 3.35475,11.968 L 3.44089,11.8916 L 3.52723,11.8154 L 3.61375,11.7394 L 3.70047,11.6637 L 3.78738,11.5882 L 3.87448,11.5129 L 3.96176,11.4378 L 4.04924,11.3629 L 4.1369,11.2882 L 4.22476,11.2138 L 4.3128,11.1395 L 4.40102,11.0655 L 4.48944,10.9917 L 4.57803,10.9181 L 4.66682,10.8448 L 4.75579,10.7716 L 4.84494,10.6986 L 4.93428,10.6259 L 5.0238,10.5533 L 5.1135,10.481 L 5.20339,10.4089 L 5.29346,10.337 L 5.38371,10.2652 L 5.47414,10.1937 L 5.56475,10.1224 L 5.65554,10.0513 L 5.74651,9.98044 L 5.83766,9.90975 L 5.92899,9.83925 L 6.0205,9.76896 L 6.11218,9.69887 L 6.20404,9.62899 L 6.29608,9.55929 L 6.3883,9.4898 L 6.48069,9.42051 L 6.57326,9.35141 L 6.666,9.28251 L 6.75892,9.21381 L 6.85201,9.1453 L 6.94528,9.07698 L 7.03871,9.00886 L 7.13233,8.94094 L 7.22611,8.8732 L 7.32007,8.80566 L 7.4142,8.73831 L 7.5085,8.67115 L 7.60297,8.60419 L 7.69761,8.53741 L 7.79242,8.47082 L 7.8874,8.40442 L 7.98255,8.3382 L 8.07787,8.27218 L 8.17336,8.20634 L 8.26901,8.14069 L 8.36484,8.07522 L 8.46083,8.00994 L 8.55699,7.94485 L 8.65331,7.87993 L 8.7498,7.8152 L 8.84646,7.75066 L 8.94328,7.68629 L 9.04026,7.62211 L 9.13741,7.55811 L 9.23473,7.49429 L 9.33221,7.43065 L 9.42985,7.36719 L 9.52765,7.30391 L 9.62562,7.2408 L 9.72375,7.17788 L 9.82204,7.11513 L 9.92049,7.05256 L 10.0191,6.99017 L 10.1179,6.92795 L 10.2168,6.8659 L 10.3159,6.80404 L 10.4152,6.74234 L 10.5146,6.68082 L 10.6142,6.61947 L 10.7139,6.5583 L 10.8138,6.4973 L 10.9138,6.43647 L 11.014,6.37581 L 11.1144,6.31532 L 11.2149,6.255 L 11.3156,6.19485 L 11.4164,6.13488 L 11.5174,6.07507 L 11.6186,6.01542 L 11.7199,5.95595 L 11.8213,5.89664 L 11.9229,5.8375 L 12.0247,5.77853 L 12.1266,5.71972 L 12.2287,5.66108 L 12.3309,5.60261 L 12.4333,5.54429 L 12.5358,5.48615 L 12.6385,5.42816 L 12.7413,5.37034 L 12.8443,5.31268 L 12.9474,5.25519 L 13.0507,5.19785 L 13.1541,5.14068 L 13.2577,5.08367 L 13.3615,5.02682 L 13.4653,4.97013 L 13.5694,4.9136 L 13.6736,4.85722 L 13.7779,4.80101 L 13.8824,4.74495 L 13.987,4.68906 L 14.0918,4.63332 L 14.1967,4.57773 L 14.3018,4.52231 L 14.407,4.46704 L 14.5123,4.41192 L 14.6178,4.35696 L 14.7235,4.30216 L 14.8293,4.24751 L 14.9352,4.19302 L 15.0413,4.13868 L 15.1476,4.08449 L 15.254,4.03045 L 15.3605,3.97657 L 15.4671,3.92284 L 15.574,3.86926 L 15.6809,3.81583 L 15.788,3.76256 L 15.8952,3.70943 L 16.0026,3.65645 L 16.1101,3.60363 L 16.2178,3.55095 L 16.3256,3.49842 L 16.4336,3.44604 L 16.5417,3.39381 L 16.6499,3.34173 L 16.7583,3.2898 L 16.8668,3.23801 L 16.9754,3.18637 L 17.0842,3.13487 L 17.1931,3.08352 L 17.3022,3.03232 L 17.4114,2.98126 L 17.5208,2.93034 L 17.6302,2.87957 L 17.7399,2.82895 L 17.8496,2.77847 L 17.9595,2.72813 L 18.0695,2.67794 L 18.1797,2.62788 L 18.29,2.57797 L 18.4005,2.52821 L 18.511,2.47858 L 18.6218,2.4291 L 18.7326,2.37975 L 18.8436,2.33055 L 18.9547,2.28149 L 19.066,2.23256 L 19.1774,2.18378 L 19.2889,2.13513 L 19.4005,2.08663 L 19.5123,2.03826 L 19.6243,1.99003 L 19.7363,1.94194 L 19.8485,1.89399 L 19.9608,1.84617 L 20.0733,1.7985 L 20.1859,1.75095 L 20.2986,1.70355 L 20.4115,1.65628 L 20.5245,1.60914 L 20.6376,1.56214 L 20.7508,1.51528 L 20.8642,1.46855 L 20.9777,1.42195 L 21.0913,1.37549 L 21.2051,1.32916 L 21.319,1.28297 L 21.433,1.23691 L 21.5472,1.19098 L 21.6615,1.14519 L 21.7759,1.09952 L 21.8904,1.05399 L 22.0051,1.00859 L 22.1199,0.96332 L 22.2349,0.918182 L 22.3499,0.873174 L 22.4651,0.828297 L 22.5804,0.78355 L 22.6959,0.738932 L 22.8114,0.694444 L 22.9271,0.650085 L 23.0429,0.605855 L 23.1589,0.561753 L 23.275,0.51778 L 23.3912,0.473934 L 23.5075,0.430217 L 23.6239,0.386627 L 23.7405,0.343163 L 23.8572,0.299827 L 23.974,0.256617 L 24.091,0.213534 L 24.208,0.170576 L 24.3252,0.127744 L 24.4426,0.0850378 L 24.56,0.0424564 L 24.6776,0 Z" fill="#000" /></svg>