<?xml version="1.0" encoding="utf-8" ?>
<svg baseProfile="tiny" fill-rule="evenodd" height="11.178179608657956px" version="1.2" width="5.364644573739497px" xmlns="http://www.w3.org/2000/svg" xmlns:ev="http://www.w3.org/2001/xml-events" xmlns:xlink="http://www.w3.org/1999/xlink"><defs /><path d="M -0.367265,11.0227 C -0.318048,11.062 -0.0751754,11.1105 0,11.1216 L 0.275619,11.1671 L 0.482484,11.1782 L 0.639526,11.167 L 0.761936,11.141 L 0.860703,11.1048 L 0.943456,11.062 L 1.01539,11.0147 L 1.08001,10.9644 L 1.13967,10.9122 L 1.19593,10.8589 L 1.24983,10.8047 L 1.30208,10.7502 L 1.35314,10.6953 L 1.4033,10.6404 L 1.45278,10.5853 L 1.50169,10.5304 L 1.55013,10.4754 L 1.59815,10.4205 L 1.64579,10.3658 L 1.69307,10.3111 L 1.74,10.2565 L 1.7866,10.202 L 1.83287,10.1476 L 1.87881,10.0933 L 1.92442,10.0392 L 1.9697,9.98511 L 2.01466,9.93115 L 2.0593,9.8773 L 2.10361,9.82355 L 2.14759,9.76991 L 2.19125,9.71637 L 2.23458,9.66294 L 2.27758,9.6096 L 2.32026,9.55637 L 2.36261,9.50324 L 2.40464,9.45021 L 2.44634,9.39728 L 2.48771,9.34445 L 2.52877,9.29172 L 2.56949,9.23909 L 2.6099,9.18656 L 2.64998,9.13413 L 2.68973,9.08179 L 2.72917,9.02956 L 2.76828,8.97742 L 2.80708,8.92538 L 2.84555,8.87343 L 2.8837,8.82158 L 2.92154,8.76983 L 2.95905,8.71817 L 2.99625,8.66661 L 3.03313,8.61514 L 3.0697,8.56377 L 3.10594,8.5125 L 3.14188,8.46131 L 3.17749,8.41022 L 3.2128,8.35923 L 3.24779,8.30833 L 3.28247,8.25752 L 3.31683,8.2068 L 3.35089,8.15618 L 3.38463,8.10564 L 3.41807,8.0552 L 3.45119,8.00486 L 3.48401,7.9546 L 3.51652,7.90443 L 3.54872,7.85436 L 3.58062,7.80437 L 3.61221,7.75448 L 3.64349,7.70467 L 3.67447,7.65496 L 3.70515,7.60533 L 3.73552,7.55579 L 3.76559,7.50634 L 3.79536,7.45698 L 3.82482,7.40771 L 3.85399,7.35852 L 3.88286,7.30943 L 3.91142,7.26042 L 3.93969,7.2115 L 3.96766,7.16266 L 3.99533,7.11391 L 4.02271,7.06525 L 4.04979,7.01667 L 4.07657,6.96818 L 4.10306,6.91977 L 4.12926,6.87145 L 4.15516,6.82321 L 4.18077,6.77506 L 4.20608,6.727 L 4.23111,6.67901 L 4.25584,6.63111 L 4.28028,6.5833 L 4.30444,6.53556 L 4.3283,6.48791 L 4.35187,6.44035 L 4.37516,6.39286 L 4.39816,6.34546 L 4.42087,6.29814 L 4.4433,6.2509 L 4.46544,6.20375 L 4.4873,6.15667 L 4.50887,6.10968 L 4.53016,6.06276 L 4.55116,6.01593 L 4.57189,5.96918 L 4.59233,5.92251 L 4.61249,5.87591 L 4.63236,5.8294 L 4.65196,5.78296 L 4.67128,5.73661 L 4.69032,5.69033 L 4.70908,5.64413 L 4.72757,5.59802 L 4.74577,5.55197 L 4.7637,5.50601 L 4.78136,5.46012 L 4.79873,5.41431 L 4.81584,5.36858 L 4.83267,5.32293 L 4.84922,5.27735 L 4.8655,5.23185 L 4.88151,5.18642 L 4.89725,5.14107 L 4.91272,5.0958 L 4.92791,5.0506 L 4.94284,5.00548 L 4.95749,4.96043 L 4.97188,4.91545 L 4.986,4.87055 L 4.99985,4.82573 L 5.01343,4.78098 L 5.02674,4.7363 L 5.03979,4.6917 L 5.05257,4.64717 L 5.06509,4.60271 L 5.07735,4.55833 L 5.08933,4.51402 L 5.10106,4.46978 L 5.11252,4.42561 L 5.12372,4.38152 L 5.13466,4.3375 L 5.14533,4.29354 L 5.15575,4.24967 L 5.1659,4.20586 L 5.1758,4.16212 L 5.18544,4.11845 L 5.19481,4.07486 L 5.20393,4.03133 L 5.21279,3.98788 L 5.2214,3.94449 L 5.22974,3.90118 L 5.23783,3.85793 L 5.24567,3.81475 L 5.25325,3.77164 L 5.26058,3.72861 L 5.26765,3.68563 L 5.27447,3.64273 L 5.28103,3.5999 L 5.28735,3.55713 L 5.29341,3.51444 L 5.29922,3.4718 L 5.30478,3.42924 L 5.31009,3.38675 L 5.31515,3.34432 L 5.31996,3.30195 L 5.32452,3.25966 L 5.32883,3.21743 L 5.3329,3.17527 L 5.33671,3.13317 L 5.34028,3.09114 L 5.34361,3.04917 L 5.34669,3.00727 L 5.34952,2.96544 L 5.35211,2.92367 L 5.35446,2.88196 L 5.35656,2.84032 L 5.35841,2.79875 L 5.36003,2.75723 L 5.3614,2.71579 L 5.36253,2.6744 L 5.36342,2.63308 L 5.36407,2.59182 L 5.36448,2.55063 L 5.36464,2.5095 L 5.36457,2.46843 L 5.36426,2.42743 L 5.36371,2.38648 L 5.36293,2.3456 L 5.3619,2.30479 L 5.36064,2.26403 L 5.35915,2.22333 L 5.35741,2.1827 L 5.35545,2.14213 L 5.35324,2.10162 L 5.3508,2.06117 L 5.34813,2.02078 L 5.34523,1.98045 L 5.34209,1.94018 L 5.33871,1.89998 L 5.33511,1.85983 L 5.33127,1.81974 L 5.32721,1.77971 L 5.32291,1.73975 L 5.31838,1.69984 L 5.31362,1.65999 L 5.30864,1.6202 L 5.30342,1.58046 L 5.29798,1.54079 L 5.2923,1.50118 L 5.2864,1.46162 L 5.28027,1.42212 L 5.27392,1.38268 L 5.26734,1.3433 L 5.26053,1.30397 L 5.2535,1.26471 L 5.24624,1.2255 L 5.23876,1.18634 L 5.23106,1.14725 L 5.22313,1.10821 L 5.21498,1.06922 L 5.20661,1.0303 L 5.19801,0.991428 L 5.18919,0.952614 L 5.18015,0.913856 L 5.17089,0.875153 L 5.16141,0.836506 L 5.15171,0.797915 L 5.14179,0.759378 L 5.13165,0.720897 L 5.12129,0.682471 L 5.11072,0.644099 L 5.09992,0.605782 L 5.08891,0.567519 L 5.07768,0.529311 L 5.06624,0.491157 L 5.05458,0.453056 L 5.0427,0.41501 L 5.03061,0.377017 L 5.0183,0.339077 L 5.00578,0.301191 L 4.99305,0.263358 L 4.9801,0.225578 L 4.96694,0.18785 L 4.95357,0.150175 L 4.93998,0.112553 L 4.92618,0.0749834 L 4.91217,0.0374657 L 4.89795,0 Z" fill="#000" /></svg>