<?xml version="1.0" encoding="utf-8" ?>
<svg baseProfile="tiny" fill-rule="evenodd" height="9.552518618293107px" version="1.2" width="5.235336736484896px" xmlns="http://www.w3.org/2000/svg" xmlns:ev="http://www.w3.org/2001/xml-events" xmlns:xlink="http://www.w3.org/1999/xlink"><defs /><path d="M 2.78082,9.32271 m 0,0 L 3.51153,9.5268 L 3.73849,9.55252 L 3.90325,9.55109 L 4.02467,9.53196 L 4.11652,9.50129 L 4.18831,9.46313 L 4.24648,9.42013 L 4.29535,9.37406 L 4.33779,9.32607 L 4.37573,9.27688 L 4.41044,9.22699 L 4.44278,9.17672 L 4.47333,9.12625 L 4.50247,9.07571 L 4.53048,9.0252 L 4.55752,8.97476 L 4.58373,8.92442 L 4.60919,8.8742 L 4.63397,8.82412 L 4.65811,8.77419 L 4.68163,8.7244 L 4.70457,8.67476 L 4.72695,8.62527 L 4.74877,8.57593 L 4.77006,8.52675 L 4.79081,8.47772 L 4.81104,8.42883 L 4.83076,8.3801 L 4.84997,8.33151 L 4.86867,8.28308 L 4.88687,8.23479 L 4.90457,8.18665 L 4.92178,8.13865 L 4.9385,8.09079 L 4.95474,8.04308 L 4.97049,7.99552 L 4.98576,7.94809 L 5.00056,7.90081 L 5.01488,7.85366 L 5.02872,7.80666 L 5.0421,7.75979 L 5.05501,7.71306 L 5.06746,7.66647 L 5.07944,7.62001 L 5.09096,7.57369 L 5.10203,7.5275 L 5.11263,7.48144 L 5.12279,7.43551 L 5.13249,7.38972 L 5.14174,7.34405 L 5.15054,7.29852 L 5.15889,7.25311 L 5.1668,7.20783 L 5.17427,7.16268 L 5.1813,7.11765 L 5.18789,7.07275 L 5.19404,7.02797 L 5.19976,6.98332 L 5.20504,6.93878 L 5.20989,6.89437 L 5.21432,6.85008 L 5.21831,6.80591 L 5.22188,6.76186 L 5.22503,6.71792 L 5.22776,6.67411 L 5.23006,6.63041 L 5.23195,6.58683 L 5.23341,6.54336 L 5.23447,6.5 L 5.23511,6.45676 L 5.23534,6.41364 L 5.23516,6.37062 L 5.23457,6.32772 L 5.23357,6.28492 L 5.23217,6.24224 L 5.23036,6.19967 L 5.22816,6.1572 L 5.22555,6.11484 L 5.22254,6.07259 L 5.21914,6.03045 L 5.21535,5.98841 L 5.21116,5.94647 L 5.20657,5.90464 L 5.2016,5.86292 L 5.19624,5.82129 L 5.19049,5.77977 L 5.18435,5.73835 L 5.17784,5.69703 L 5.17093,5.65581 L 5.16365,5.61469 L 5.15599,5.57367 L 5.14795,5.53275 L 5.13953,5.49193 L 5.13074,5.4512 L 5.12157,5.41057 L 5.11204,5.37003 L 5.10213,5.32959 L 5.09185,5.28925 L 5.0812,5.24899 L 5.07019,5.20884 L 5.05881,5.16877 L 5.04707,5.12879 L 5.03497,5.08891 L 5.02251,5.04912 L 5.00968,5.00942 L 4.9965,4.96981 L 4.98296,4.93028 L 4.96907,4.89085 L 4.95482,4.8515 L 4.94023,4.81224 L 4.92527,4.77307 L 4.90997,4.73399 L 4.89433,4.69499 L 4.87833,4.65607 L 4.86199,4.61724 L 4.8453,4.57849 L 4.82827,4.53983 L 4.8109,4.50125 L 4.79319,4.46276 L 4.77514,4.42434 L 4.75675,4.38601 L 4.73802,4.34775 L 4.71896,4.30958 L 4.69957,4.27149 L 4.67984,4.23348 L 4.65978,4.19554 L 4.63939,4.15769 L 4.61867,4.11991 L 4.59762,4.08221 L 4.57624,4.04458 L 4.55454,4.00704 L 4.53251,3.96957 L 4.51017,3.93217 L 4.48749,3.89485 L 4.4645,3.8576 L 4.44119,3.82043 L 4.41756,3.78333 L 4.39361,3.74631 L 4.36935,3.70935 L 4.34477,3.67247 L 4.31988,3.63566 L 4.29467,3.59893 L 4.26915,3.56226 L 4.24332,3.52566 L 4.21719,3.48914 L 4.19074,3.45268 L 4.16399,3.41629 L 4.13693,3.37997 L 4.10956,3.34372 L 4.08189,3.30754 L 4.05392,3.27142 L 4.02565,3.23537 L 3.99708,3.19939 L 3.9682,3.16347 L 3.93903,3.12762 L 3.90956,3.09183 L 3.8798,3.05611 L 3.84974,3.02046 L 3.81938,2.98487 L 3.78873,2.94934 L 3.75779,2.91387 L 3.72656,2.87847 L 3.69504,2.84313 L 3.66323,2.80785 L 3.63113,2.77263 L 3.59874,2.73748 L 3.56607,2.70238 L 3.53311,2.66735 L 3.49987,2.63238 L 3.46634,2.59746 L 3.43253,2.56261 L 3.39845,2.52781 L 3.36408,2.49308 L 3.32943,2.4584 L 3.2945,2.42378 L 3.2593,2.38921 L 3.22382,2.35471 L 3.18806,2.32026 L 3.15203,2.28587 L 3.11573,2.25153 L 3.07915,2.21725 L 3.04231,2.18303 L 3.00519,2.14886 L 2.9678,2.11474 L 2.93014,2.08068 L 2.89222,2.04668 L 2.85403,2.01272 L 2.81557,1.97882 L 2.77684,1.94498 L 2.73786,1.91118 L 2.69861,1.87744 L 2.65909,1.84375 L 2.61932,1.81012 L 2.57928,1.77653 L 2.53898,1.743 L 2.49843,1.70951 L 2.45762,1.67608 L 2.41655,1.6427 L 2.37522,1.60937 L 2.33364,1.57608 L 2.2918,1.54285 L 2.24971,1.50966 L 2.20737,1.47653 L 2.16477,1.44344 L 2.12192,1.4104 L 2.07882,1.37741 L 2.03548,1.34446 L 1.99188,1.31156 L 1.94804,1.27871 L 1.90395,1.24591 L 1.85961,1.21315 L 1.81503,1.18044 L 1.7702,1.14777 L 1.72513,1.11515 L 1.67981,1.08258 L 1.63425,1.05005 L 1.58846,1.01756 L 1.54242,0.985121 L 1.49614,0.952724 L 1.44962,0.92037 L 1.40286,0.88806 L 1.35587,0.855793 L 1.30864,0.82357 L 1.26117,0.791389 L 1.21347,0.75925 L 1.16553,0.727153 L 1.11736,0.695099 L 1.06896,0.663086 L 1.02032,0.631115 L 0.971457,0.599184 L 0.92236,0.567295 L 0.873032,0.535446 L 0.823476,0.503638 L 0.773691,0.47187 L 0.723678,0.440142 L 0.673439,0.408453 L 0.622973,0.376804 L 0.572282,0.345194 L 0.521365,0.313623 L 0.470225,0.28209 L 0.418862,0.250596 L 0.367276,0.219141 L 0.315468,0.187723 L 0.263439,0.156343 L 0.211189,0.125 L 0.15872,0.0936947 L 0.106031,0.0624264 L 0.0531244,0.0311949 L 0,0 Z" fill="#000" /></svg>