<?xml version="1.0" encoding="utf-8" ?>
<svg baseProfile="tiny" fill-rule="evenodd" height="8.830703908577561px" version="1.2" width="5.280167228542268px" xmlns="http://www.w3.org/2000/svg" xmlns:ev="http://www.w3.org/2001/xml-events" xmlns:xlink="http://www.w3.org/1999/xlink"><defs /><path d="M -0.317969,-0.166369 M -0.317969,-0.166369 m 0.317969,0.166369 m 0.252452,0.135028 m 0.199515,0.110449 m 0.156919,0.0915611 m 0.123317,0.0770373 m 0.0971151,0.0658764 m 0.0767956,0.0573002 m 0.0610712,0.0507091 m 0.0489095,0.0456424 m 0.0395022,0.041747 m 0.0322234,0.0387527 m 0.0265912,0.0364526 m 0.0222338,0.0346879 m 0.0188653,0.0333369 m 0.0162649,0.0323056 m 0.014262,0.031522 m 0.0127245,0.0309301 m 0.01155,0.0304867 m 0.0106587,0.0301585 m 0.00998887,0.0299195 m 0.00949205,0.0297496 m 0.00913082,0.0296332 m 0.00887561,0.0295583 m 0.00870355,0.0295153 m 0.00859657,0.0294969 m 0.00854048,0.0294975 m 0.00852439,0.0295127 m 0.00853959,0.0295389 m 0.00857922,0.0295736 m 0.00863787,0.0296147 m 0.00871153,0.0296606 m 0.00879679,0.0297101 m 0.00889093,0.0297622 m 0.00899198,0.0298161 m 0.0090984,0.0298714 m 0.00920884,0.0299275 m 0.00932231,0.0299843 m 0.009438,0.0300413 m 0.00955529,0.0300985 m 0.00967377,0.0301556 m 0.00979291,0.0302127 m 0.00991246,0.0302695 m 0.0100322,0.0303261 m 0.0101519,0.0303825 m 0.0102715,0.0304385 m 0.0103908,0.0304942 m 0.0105096,0.0305496 m 0.0106281,0.0306046 m 0.0107459,0.0306593 m 0.0108633,0.0307136 m 0.01098,0.0307676 m 0.0110962,0.0308213 m 0.0112116,0.0308746 m 0.0113264,0.0309276 m 0.0114405,0.0309803 m 0.0115539,0.0310327 m 0.0116666,0.0310847 m 0.0117787,0.0311364 m 0.0118901,0.0311879 m 0.0120007,0.031239 m 0.0121106,0.0312899 m 0.0122198,0.0313405 m 0.0123284,0.0313908 m 0.0124362,0.0314408 m 0.0125434,0.0314905 m 0.0126498,0.03154 m 0.0127556,0.0315892 m 0.0128606,0.0316381 m 0.012965,0.0316867 m 0.0130688,0.0317351 m 0.0131718,0.0317833 m 0.0132741,0.0318312 m 0.0133759,0.0318788 m 0.0134768,0.0319261 m 0.0135772,0.0319733 m 0.0136768,0.0320201 m 0.013776,0.0320668 m 0.0138743,0.0321131 m 0.0139721,0.0321593 m 0.0140692,0.0322051 m 0.0141656,0.0322508 m 0.0142615,0.0322962 m 0.0143566,0.0323414 m 0.0144512,0.0323863 m 0.0145451,0.032431 m 0.0146385,0.0324755 m 0.0147312,0.0325198 m 0.0148233,0.0325637 m 0.0149149,0.0326075 m 0.0150057,0.0326511 m 0.0150961,0.0326944 m 0.0151858,0.0327375 m 0.0152748,0.0327804 m 0.0153634,0.032823 m 0.0154513,0.0328655 m 0.0155386,0.0329077 m 0.0156255,0.0329497 m 0.0157117,0.0329915 m 0.0157973,0.033033 m 0.0158824,0.0330744 m 0.0159669,0.0331155 m 0.0160509,0.0331564 m 0.0161343,0.0331972 m 0.0162171,0.0332377 m 0.0162995,0.033278 m 0.0163811,0.0333181 m 0.0164624,0.0333579 m 0.0165431,0.0333976 m 0.0166232,0.0334371 m 0.0167028,0.0334764 m 0.016782,0.0335154 m 0.0168606,0.0335543 m 0.0169385,0.033593 m 0.0170161,0.0336315 m 0.0170931,0.0336697 m 0.0171697,0.0337078 m 0.0172457,0.0337457 m 0.0173212,0.0337834 m 0.0173962,0.0338209 m 0.0174706,0.0338582 m 0.0175447,0.0338953 m 0.0176183,0.0339322 m 0.0176913,0.033969 m 0.0177639,0.0340055 m 0.0178359,0.0340419 m 0.0179075,0.0340781 m 0.0179786,0.0341141 m 0.0180492,0.0341499 m 0.0181194,0.0341855 m 0.0181891,0.034221 m 0.0182585,0.0342562 m 0.0183272,0.0342913 m 0.0183956,0.0343262 m 0.0184634,0.034361 m 0.0185309,0.0343955 m 0.0185979,0.0344299 m 0.0186645,0.0344641 m 0.0187305,0.0344982 m 0.0187963,0.034532 m 0.0188614,0.0345657 m 0.0189262,0.0345992 m 0.0189906,0.0346326 m 0.0190545,0.0346658 m 0.0191181,0.0346988 m 0.0191811,0.0347317 m 0.0192438,0.0347643 m 0.0193061,0.0347968 m 0.0193679,0.0348292 m 0.0194293,0.0348614 m 0.0194904,0.0348934 m 0.019551,0.0349253 m 0.0196112,0.034957 m 0.019671,0.0349886 m 0.0197305,0.0350199 m 0.0197895,0.0350512 m 0.0198481,0.0350823 m 0.0199065,0.0351132 m 0.0199642,0.0351439 m 0.0200217,0.0351745 m 0.0200787,0.035205 m 0.0201355,0.0352353 m 0.0201918,0.0352655 m 0.0202478,0.0352955 m 0.0203034,0.0353254 m 0.0203586,0.0353551 m 0.0204134,0.0353846 m 0.0204679,0.035414 m 0.0205221,0.0354433 m 0.0205758,0.0354724 m 0.0206291,0.0355014 m 0.0206822,0.0355302 m 0.0207349,0.0355589 m 0.0207872,0.0355874 m 0.0208392,0.0356159 m 0.0208909,0.0356441 m 0.0209422,0.0356722 m 0.0209931,0.0357002 m 0.0210437,0.035728 m 0.021094,0.0357557 m 0.021144,0.0357833 m 0.0211936,0.0358108 m 0.0212428,0.0358381 m 0.0212918,0.0358652 m 0.0213405,0.0358922 m 0.0213888,0.0359192 m 0.0214367,0.0359459 m 0.0214844,0.0359725 m 0.0215317,0.035999 m 0.0215787,0.0360254 m 0.0216255,0.0360516 m 0.0216719,0.0360777 m 0.0217179,0.0361038 m 0.0217637,0.0361296 m 0.0218092,0.0361553 m 0.0218544,0.0361809 m 0.0218992,0.0362064 m 0.0219437,0.0362317 m 0.0219881,0.036257 m 0.0220321,0.0362821 m 0.0220757,0.0363071 m 0.0221191,0.0363319 m 0.0221622,0.0363567 m 0.022205,0.0363813 m 0.0222475,0.0364058 m 0.0222898,0.0364302 m 0.0223318,0.0364544 m 0.0223735,0.0364786 m 0.0224147,0.0365026 m 0.0224559,0.0365265 m 0.0224968,0.0365503 m 0.0225373,0.036574 m 0.0225776,0.0365975 m 0.0226176,0.036621 m 0.0226575,0.0366443 m 0.0226969,0.0366675 m 0.0227361,0.0366906 m 0.0227752,0.0367136 m 0.0228138,0.0367365 m 0.0228523,0.0367593 m 0.0228904,0.036782 m 0.0229284,0.0368045 m 0.022966,0.036827 m 0.0230034,0.0368493 m 0.0230407,0.0368715 m 0.0230775,0.0368937 m 0.0231142,0.0369157 m 0.0231507,0.0369376 m 0.0231868,0.0369594 m 0.0232228,0.0369811 m 0.0232585,0.0370027 m 0.0232939,0.0370242 m 0.0233291,0.0370456 m 0.0233641,0.0370669 m 0.0233989,0.0370881 m 0.0234334,0.0371092 m 0.0234677,0.0371301 m 0.0235017,0.037151 m 0.0235356,0.0371718 m 0.0235691,0.0371925 m 0.0236025,0.0372131 m 0.0236357,0.0372336 m 0.0236685,0.037254 m 0.0237012,0.0372743 m 0.0237337,0.0372945 m 0.0237659,0.0373146 m 0.023798,0.0373346 m 0.0238299,0.0373545 m 0.0238615,0.0373744 m 0.0238929,0.0373941 Z" fill="#000" /></svg>