<?xml version="1.0" encoding="utf-8" ?>
<svg baseProfile="tiny" fill-rule="evenodd" height="8.395908689126372px" version="1.2" width="4.983695413451642px" xmlns="http://www.w3.org/2000/svg" xmlns:ev="http://www.w3.org/2001/xml-events" xmlns:xlink="http://www.w3.org/1999/xlink"><defs /><path d="M -0.362479,-0.194208 M -0.362479,-0.194208 m 0.362479,0.194208 m 0.28974,0.15387 m 0.227484,0.122649 m 0.176404,0.0990404 m 0.135942,0.0810861 m 0.10444,0.0674129 m 0.0801096,0.0569888 m 0.0613807,0.0490342 m 0.0469818,0.0429597 m 0.0359168,0.0383194 m 0.0274163,0.0347758 m 0.0208907,0.0320725 m 0.0158872,0.0300146 m 0.0120596,0.0284531 m 0.00914122,0.0272741 m 0.00692768,0.0263903 m 0.00526075,0.0257344 m 0.00401834,0.0252547 m 0.00310605,0.0249111 m 0.00245058,0.0246727 m 0.00199499,0.0245159 m 0.00169504,0.0244218 m 0.0015161,0.0243763 m 0.00143152,0.0243681 m 0.00142014,0.0243888 m 0.00146571,0.0244315 m 0.00155529,0.024491 m 0.00167891,0.0245634 m 0.00182879,0.0246456 m 0.00199884,0.024735 m 0.00218403,0.0248298 m 0.00238084,0.0249286 m 0.0025863,0.0250303 m 0.00279783,0.0251339 m 0.00301396,0.0252389 m 0.00323315,0.0253447 m 0.00345419,0.0254509 m 0.00367631,0.0255572 m 0.0038989,0.0256634 m 0.00412128,0.0257693 m 0.00434306,0.0258749 m 0.00456404,0.0259799 m 0.00478383,0.0260843 m 0.00500234,0.0261881 m 0.00521935,0.0262912 m 0.00543473,0.0263936 m 0.00564852,0.0264953 m 0.00586053,0.0265963 m 0.00607069,0.0266965 m 0.00627915,0.026796 m 0.00648561,0.0268947 m 0.00669025,0.0269927 m 0.00689308,0.02709 m 0.00709391,0.0271865 m 0.00729301,0.0272823 m 0.00749017,0.0273774 m 0.00768542,0.0274718 m 0.0078788,0.0275654 m 0.00807044,0.0276584 m 0.00826015,0.0277506 m 0.00844807,0.0278422 m 0.00863414,0.0279331 m 0.00881849,0.0280233 m 0.00900101,0.0281128 m 0.00918178,0.0282016 m 0.00936073,0.0282898 m 0.00953788,0.0283773 m 0.00971346,0.0284642 m 0.00988725,0.0285504 m 0.0100593,0.0286359 m 0.0102297,0.0287209 m 0.0103985,0.0288052 m 0.0105655,0.0288888 m 0.0107308,0.0289718 m 0.0108946,0.0290543 m 0.0110567,0.0291361 m 0.0112174,0.0292173 m 0.0113762,0.0292979 m 0.0115337,0.0293779 m 0.0116895,0.0294573 m 0.0118438,0.0295361 m 0.0119965,0.0296143 m 0.0121478,0.0296919 m 0.0122974,0.029769 m 0.0124457,0.0298455 m 0.0125925,0.0299214 m 0.0127377,0.0299967 m 0.0128815,0.0300715 m 0.0130239,0.0301458 m 0.0131649,0.0302195 m 0.0133044,0.0302926 m 0.0134425,0.0303652 m 0.0135792,0.0304373 m 0.0137147,0.0305088 m 0.0138487,0.0305798 m 0.0139814,0.0306503 m 0.0141126,0.0307202 m 0.0142427,0.0307897 m 0.0143713,0.0308586 m 0.0144986,0.030927 m 0.0146247,0.0309949 m 0.0147495,0.0310623 m 0.014873,0.0311292 m 0.0149954,0.0311956 m 0.0151163,0.0312615 m 0.0152361,0.031327 m 0.0153547,0.0313919 m 0.015472,0.0314564 m 0.0155882,0.0315204 m 0.0157032,0.0315839 m 0.0158169,0.031647 m 0.0159296,0.0317096 m 0.016041,0.0317717 m 0.0161514,0.0318334 m 0.0162606,0.0318946 m 0.0163687,0.0319554 m 0.0164755,0.0320157 m 0.0165814,0.0320756 m 0.0166862,0.032135 m 0.0167898,0.032194 m 0.0168924,0.0322526 m 0.016994,0.0323108 m 0.0170944,0.0323685 m 0.0171939,0.0324258 m 0.0172923,0.0324827 m 0.0173897,0.0325392 m 0.017486,0.0325952 m 0.0175814,0.0326509 m 0.0176758,0.0327061 m 0.0177691,0.032761 m 0.0178616,0.0328154 m 0.0179529,0.0328694 m 0.0180434,0.0329231 m 0.0181329,0.0329764 m 0.0182215,0.0330292 m 0.0183092,0.0330817 m 0.0183959,0.0331338 m 0.0184817,0.0331856 m 0.0185666,0.0332369 m 0.0186506,0.0332879 m 0.0187337,0.0333385 m 0.0188159,0.0333888 m 0.0188974,0.0334387 m 0.018978,0.0334882 m 0.0190576,0.0335374 m 0.0191364,0.0335862 m 0.0192144,0.0336347 m 0.0192915,0.0336828 m 0.0193678,0.0337306 m 0.0194433,0.033778 m 0.019518,0.0338251 m 0.0195919,0.0338718 m 0.019665,0.0339182 m 0.0197373,0.0339643 m 0.0198088,0.0340101 m 0.0198796,0.0340555 m 0.0199497,0.0341006 m 0.0200189,0.0341454 m 0.0200874,0.0341898 m 0.0201552,0.034234 m 0.0202223,0.0342778 m 0.0202885,0.0343213 m 0.0203541,0.0343645 m 0.020419,0.0344074 m 0.0204832,0.03445 m 0.0205467,0.0344923 m 0.0206094,0.0345343 m 0.0206716,0.034576 m 0.020733,0.0346174 m 0.0207938,0.0346585 m 0.020854,0.0346993 m 0.0209134,0.0347399 m 0.0209721,0.0347801 m 0.0210302,0.0348201 m 0.0210877,0.0348598 m 0.0211446,0.0348992 m 0.0212008,0.0349383 m 0.0212564,0.0349771 m 0.0213114,0.0350157 m 0.0213658,0.035054 m 0.0214196,0.0350921 m 0.0214728,0.0351298 m 0.0215255,0.0351673 m 0.0215774,0.0352046 m 0.0216289,0.0352416 m 0.0216797,0.0352783 m 0.02173,0.0353148 m 0.0217798,0.035351 m 0.0218289,0.035387 m 0.0218776,0.0354227 m 0.0219256,0.0354582 m 0.0219731,0.0354934 m 0.0220202,0.0355284 m 0.0220666,0.0355631 m 0.0221126,0.0355976 m 0.022158,0.0356319 m 0.0222029,0.0356659 m 0.0222473,0.0356997 m 0.0222912,0.0357333 m 0.0223346,0.0357666 m 0.0223775,0.0357998 m 0.0224199,0.0358326 m 0.0224619,0.0358653 m 0.0225032,0.0358977 m 0.0225443,0.0359299 m 0.0225847,0.0359619 m 0.0226248,0.0359937 m 0.0226643,0.0360252 m 0.0227034,0.0360565 m 0.0227421,0.0360877 m 0.0227803,0.0361186 m 0.0228181,0.0361493 m 0.0228554,0.0361798 m 0.0228923,0.0362101 m 0.0229288,0.0362402 m 0.0229648,0.03627 m 0.0230004,0.0362997 m 0.0230356,0.0363292 m 0.0230705,0.0363585 m 0.0231048,0.0363876 m 0.0231388,0.0364165 m 0.0231724,0.0364452 m 0.0232056,0.0364737 m 0.0232384,0.036502 m 0.0232708,0.0365301 m 0.0233027,0.0365581 m 0.0233344,0.0365858 m 0.0233656,0.0366134 m 0.0233965,0.0366407 m 0.0234271,0.0366679 m 0.0234572,0.036695 m 0.0234869,0.0367218 m 0.0235164,0.0367485 m 0.0235454,0.036775 m 0.0235742,0.0368013 m 0.0236026,0.0368274 m 0.0236305,0.0368534 m 0.0236582,0.0368792 m 0.0236856,0.0369048 m 0.0237125,0.0369303 m 0.0237392,0.0369556 m 0.0237656,0.0369807 m 0.0237916,0.0370056 m 0.0238174,0.0370304 m 0.0238428,0.0370551 m 0.0238678,0.0370796 m 0.0238925,0.0371039 m 0.023917,0.037128 m 0.0239412,0.037152 Z" fill="#000" /></svg>