<?xml version="1.0" encoding="utf-8" ?>
<svg baseProfile="tiny" fill-rule="evenodd" height="0.7337542393361218px" version="1.2" width="9.868148183450103px" xmlns="http://www.w3.org/2000/svg" xmlns:ev="http://www.w3.org/2001/xml-events" xmlns:xlink="http://www.w3.org/1999/xlink"><defs /><path d="M -0.348915,-0.178421 C -0.278512,-0.186831 -0.029002,0.00147054 0,0 C 0.0634514,-0.00241747 0.23603,0.147583 0.305914,0.144448 C 0.361395,0.145477 0.486861,0.266034 0.568622,0.262489 C 0.616076,0.264985 0.709596,0.363225 0.792154,0.35913 C 0.832313,0.362121 0.902115,0.442863 0.981783,0.438197 C 1.01563,0.441292 1.06682,0.50791 1.14268,0.502731 C 1.17117,0.505749 1.20735,0.560831 1.27944,0.555229 C 1.30343,0.55811 1.32734,0.603687 1.39601,0.597731 C 1.41625,0.60047 1.43005,0.638174 1.49575,0.631919 C 1.51285,0.634521 1.51833,0.665698 1.58146,0.659187 C 1.59595,0.661664 1.59455,0.687427 1.65549,0.680697 C 1.66781,0.683058 1.66073,0.704335 1.71981,0.697413 C 1.73031,0.699665 1.71856,0.717227 1.77605,0.710136 C 1.78504,0.712286 1.76942,0.726778 1.82558,0.719535 C 1.83331,0.72159 1.81452,0.733549 1.86954,0.726169 C 1.87622,0.728131 1.85481,0.738008 1.90887,0.730501 C 1.91468,0.732376 1.89113,0.740546 1.94439,0.732922 C 1.94947,0.734711 1.92417,0.74149 1.97674,0.733754 C 1.98122,0.735461 1.95448,0.741112 2.00649,0.733271 C 2.01047,0.734897 1.98257,0.739642 2.03409,0.731699 C 2.03766,0.733246 2.00882,0.737271 2.05995,0.729229 C 2.06318,0.730697 2.03358,0.734158 2.08437,0.72602 C 2.08732,0.727411 2.05712,0.730438 2.10764,0.722205 C 2.11036,0.72352 2.07968,0.726222 2.12998,0.717896 C 2.13251,0.719136 2.10145,0.721606 2.15158,0.713187 C 2.15396,0.714352 2.12261,0.716667 2.17259,0.708156 C 2.17486,0.709247 2.14329,0.711472 2.19316,0.702869 C 2.19533,0.703887 2.16361,0.706075 2.21339,0.697381 C 2.21549,0.698326 2.18366,0.700524 2.23337,0.691738 C 2.23542,0.692611 2.20352,0.694856 2.25319,0.68598 C 2.25519,0.68678 2.22326,0.689104 2.27291,0.680137 C 2.27488,0.680865 2.24293,0.683296 2.29257,0.674238 C 2.29453,0.674894 2.2626,0.677454 2.31223,0.668305 C 2.31418,0.668889 2.28228,0.671596 2.33193,0.662356 C 2.33387,0.662869 2.30202,0.665739 2.35168,0.656408 C 2.35363,0.65685 2.32183,0.659895 2.37153,0.650474 C 2.37349,0.650845 2.34176,0.654076 2.39149,0.644564 C 2.39346,0.644866 2.3618,0.648291 2.41158,0.638688 C 2.41356,0.63892 2.38199,0.642547 2.4318,0.632854 C 2.43381,0.633016 2.40232,0.636851 2.45219,0.627067 C 2.45422,0.62716 2.42281,0.631208 2.47274,0.621333 C 2.47479,0.621357 2.44348,0.625621 2.49345,0.615657 C 2.49554,0.615611 2.46432,0.620095 2.51435,0.610041 C 2.51646,0.609926 2.48533,0.614632 2.53543,0.604488 C 2.53757,0.604305 2.50654,0.609234 2.5567,0.599001 C 2.55887,0.598751 2.52793,0.603904 2.57816,0.593582 C 2.58035,0.593264 2.54951,0.598643 2.5998,0.588231 C 2.60203,0.587846 2.57129,0.593452 2.62165,0.582952 C 2.62391,0.582499 2.59326,0.588332 2.64369,0.577743 C 2.64598,0.577224 2.61543,0.583283 2.66592,0.572606 C 2.66824,0.572021 2.63779,0.578307 2.68835,0.567542 C 2.6907,0.566891 2.66034,0.573403 2.71097,0.562551 C 2.71336,0.561834 2.68309,0.568571 2.7338,0.557632 C 2.73622,0.55685 2.70604,0.563813 2.75681,0.552787 C 2.75926,0.55194 2.72918,0.559127 2.78002,0.548015 C 2.78251,0.547103 2.75252,0.554514 2.80343,0.543316 C 2.80595,0.54234 2.77605,0.549974 2.82703,0.53869 C 2.82958,0.53765 2.79977,0.545506 2.85082,0.534137 C 2.8534,0.533033 2.82368,0.541111 2.87481,0.529656 C 2.87742,0.528489 2.84779,0.536787 2.89898,0.525248 C 2.90163,0.524018 2.87208,0.532536 2.92334,0.520912 C 2.92602,0.519619 2.89657,0.528356 2.9479,0.516649 C 2.95061,0.515293 2.92124,0.524247 2.97264,0.512456 C 2.97538,0.511039 2.94609,0.520209 2.99756,0.508335 C 3.00033,0.506856 2.97114,0.516242 3.02267,0.504285 C 3.02548,0.502744 2.99636,0.512345 3.04797,0.500306 C 3.0508,0.498704 3.02177,0.508518 3.07344,0.496397 C 3.07631,0.494734 3.04736,0.504761 3.0991,0.492558 C 3.102,0.490835 3.07313,0.501073 3.12494,0.488789 C 3.12787,0.487005 3.09908,0.497453 3.15096,0.485089 C 3.15392,0.483245 3.12521,0.493903 3.17715,0.481458 C 3.18015,0.479555 3.15152,0.49042 3.20353,0.477896 C 3.20655,0.475933 3.178,0.487006 3.23007,0.474401 C 3.23313,0.472379 3.20466,0.483659 3.25679,0.470975 C 3.25988,0.468894 3.23149,0.480379 3.28369,0.467616 C 3.2868,0.465477 3.25849,0.477165 3.31076,0.464324 C 3.3139,0.462127 3.28566,0.474019 3.33799,0.461099 C 3.34117,0.458844 3.31301,0.470938 3.3654,0.457941 C 3.36861,0.455628 3.34052,0.467923 3.39298,0.454848 C 3.39621,0.452478 3.3682,0.464974 3.42072,0.451822 C 3.42398,0.449395 3.39605,0.462089 3.44863,0.448861 C 3.45192,0.446377 3.42406,0.459269 3.47671,0.445965 C 3.48003,0.443424 3.45224,0.456514 3.50494,0.443133 C 3.5083,0.440537 3.48058,0.453823 3.53335,0.440366 C 3.53673,0.437714 3.50908,0.451195 3.56191,0.437663 C 3.56532,0.434956 3.53774,0.448631 3.59063,0.435024 C 3.59407,0.432261 3.56656,0.44613 3.61952,0.432448 C 3.62298,0.42963 3.59555,0.443691 3.64856,0.429936 C 3.65205,0.427063 3.62469,0.441315 3.67776,0.427486 C 3.68128,0.424558 3.65398,0.439001 3.70712,0.425098 C 3.71067,0.422117 3.68344,0.436749 3.73663,0.422773 C 3.74021,0.419737 3.71304,0.434558 3.76629,0.420509 C 3.7699,0.41742 3.74281,0.432429 3.79611,0.418307 C 3.79975,0.415164 3.77272,0.43036 3.82608,0.416166 C 3.82975,0.41297 3.80279,0.428351 3.85621,0.414086 C 3.8599,0.410837 3.833,0.426403 3.88648,0.412066 C 3.8902,0.408765 3.86337,0.424515 3.9169,0.410107 C 3.92065,0.406753 3.89388,0.422686 3.94748,0.408207 C 3.95125,0.404801 3.92455,0.420917 3.97819,0.406367 C 3.982,0.402909 3.95536,0.419207 4.00906,0.404587 C 4.01289,0.401077 3.98631,0.417555 4.04007,0.402865 C 4.04392,0.399304 4.01741,0.415962 4.07123,0.401202 C 4.07511,0.39759 4.04865,0.414427 4.10252,0.399598 C 4.10643,0.395934 4.08004,0.412949 4.13397,0.398052 C 4.1379,0.394337 4.11157,0.411529 4.16555,0.396563 C 4.16951,0.392798 4.14324,0.410167 4.19727,0.395132 C 4.20126,0.391317 4.17505,0.408861 4.22914,0.393758 C 4.23315,0.389894 4.207,0.407612 4.26114,0.392442 C 4.26518,0.388527 4.23909,0.406419 4.29328,0.391182 C 4.29734,0.387217 4.27131,0.405283 4.32555,0.389978 C 4.32965,0.385965 4.30367,0.404202 4.35797,0.38883 C 4.36209,0.384768 4.33617,0.403177 4.39052,0.387739 C 4.39466,0.383627 4.3688,0.402207 4.4232,0.386702 C 4.42737,0.382543 4.40157,0.401292 4.45602,0.385722 C 4.46021,0.381514 4.43447,0.400431 4.48897,0.384796 C 4.49319,0.38054 4.4675,0.399626 4.52205,0.383925 C 4.52629,0.379621 4.50066,0.398874 4.55526,0.383108 C 4.55953,0.378756 4.53395,0.398177 4.5886,0.382346 C 4.5929,0.377947 4.56738,0.397533 4.62208,0.381638 C 4.62639,0.377191 4.60093,0.396942 4.65568,0.380983 C 4.66002,0.376489 4.63461,0.396405 4.6894,0.380382 C 4.69377,0.375841 4.66841,0.39592 4.72326,0.379834 C 4.72765,0.375247 4.70234,0.395489 4.75724,0.379339 C 4.76166,0.374705 4.7364,0.395109 4.79134,0.378896 C 4.79579,0.374216 4.77058,0.394782 4.82558,0.378506 C 4.83004,0.37378 4.80489,0.394506 4.85993,0.378168 C 4.86442,0.373397 4.83932,0.394283 4.89441,0.377882 C 4.89892,0.373065 4.87387,0.39411 4.929,0.377648 C 4.93354,0.372786 4.90855,0.393989 4.96372,0.377465 C 4.96829,0.372558 4.94334,0.393919 4.99856,0.377334 C 5.00315,0.372381 4.97825,0.393899 5.03352,0.377253 C 5.03813,0.372256 5.01329,0.39393 5.0686,0.377223 C 5.07324,0.372181 5.04844,0.394011 5.1038,0.377243 C 5.10846,0.372157 5.08371,0.394142 5.13911,0.377314 C 5.14379,0.372183 5.11909,0.394323 5.17455,0.377434 C 5.17925,0.37226 5.1546,0.394553 5.21009,0.377605 C 5.21482,0.372387 5.19021,0.394832 5.24576,0.377825 C 5.2505,0.372563 5.22595,0.39516 5.28153,0.378094 C 5.2863,0.372789 5.26179,0.395537 5.31742,0.378412 C 5.32222,0.373063 5.29775,0.395963 5.35343,0.378779 C 5.35824,0.373387 5.33382,0.396437 5.38954,0.379194 C 5.39438,0.37376 5.37001,0.396959 5.42577,0.379658 C 5.43063,0.374181 5.4063,0.397529 5.46211,0.38017 C 5.46699,0.374651 5.44271,0.398147 5.49856,0.38073 C 5.50346,0.375169 5.47923,0.398812 5.53511,0.381337 C 5.54004,0.375734 5.51585,0.399524 5.57178,0.381993 C 5.57673,0.376347 5.55258,0.400284 5.60855,0.382695 C 5.61353,0.377008 5.58942,0.40109 5.64544,0.383444 C 5.65043,0.377716 5.62637,0.401942 5.68243,0.38424 C 5.68744,0.378471 5.66343,0.402841 5.71952,0.385083 C 5.72456,0.379272 5.70058,0.403786 5.75672,0.385972 C 5.76178,0.38012 5.73785,0.404778 5.79403,0.386907 C 5.79911,0.381015 5.77522,0.405814 5.83144,0.387889 C 5.83654,0.381955 5.81269,0.406897 5.86895,0.388916 C 5.87407,0.382942 5.85027,0.408024 5.90656,0.389988 C 5.91171,0.383974 5.88794,0.409197 5.94428,0.391106 C 5.94945,0.385052 5.92572,0.410415 5.9821,0.392269 C 5.98729,0.386175 5.96361,0.411677 6.02002,0.393477 C 6.02523,0.387343 6.00159,0.412984 6.05804,0.394729 C 6.06327,0.388556 6.03967,0.414335 6.09616,0.396027 C 6.10142,0.389814 6.07785,0.41573 6.13438,0.397368 C 6.13966,0.391116 6.11613,0.417169 6.1727,0.398754 C 6.17799,0.392463 6.15451,0.418652 6.21111,0.400183 C 6.21643,0.393853 6.19298,0.420178 6.24963,0.401656 C 6.25496,0.395288 6.23155,0.421747 6.28824,0.403173 C 6.29359,0.396766 6.27022,0.42336 6.32694,0.404733 C 6.33232,0.398287 6.30898,0.425016 6.36574,0.406336 C 6.37114,0.399852 6.34784,0.426714 6.40464,0.407982 C 6.41006,0.40146 6.3868,0.428455 6.44363,0.409671 C 6.44907,0.403111 6.42584,0.430238 6.48271,0.411403 C 6.48817,0.404805 6.46498,0.432063 6.52189,0.413176 C 6.52737,0.406541 6.50422,0.433931 6.56116,0.414992 C 6.56666,0.40832 6.54354,0.43584 6.60052,0.41685 C 6.60604,0.410141 6.58296,0.43779 6.63997,0.41875 C 6.64551,0.412003 6.62247,0.439782 6.67951,0.420691 C 6.68507,0.413908 6.66206,0.441816 6.71915,0.422674 C 6.72472,0.415854 6.70175,0.44389 6.75887,0.424698 C 6.76447,0.417841 6.74153,0.446005 6.79868,0.426764 C 6.8043,0.41987 6.7814,0.448161 6.83858,0.42887 C 6.84422,0.42194 6.82135,0.450358 6.87857,0.431017 C 6.88423,0.42405 6.86139,0.452594 6.91865,0.433204 C 6.92432,0.426202 6.90152,0.454871 6.95881,0.435432 C 6.96451,0.428393 6.94174,0.457188 6.99906,0.4377 C 7.00478,0.430626 6.98204,0.459545 7.0394,0.440008 C 7.04513,0.432898 7.02243,0.461942 7.07982,0.442355 C 7.08557,0.43521 7.0629,0.464377 7.12033,0.444743 C 7.1261,0.437562 7.10346,0.466853 7.16092,0.44717 C 7.16671,0.439954 7.1441,0.469367 7.20159,0.449636 C 7.2074,0.442385 7.18483,0.47192 7.24235,0.452142 C 7.24818,0.444856 7.22564,0.474512 7.28319,0.454686 C 7.28904,0.447366 7.26653,0.477143 7.32412,0.457269 C 7.32998,0.449914 7.3075,0.479812 7.36512,0.459891 C 7.371,0.452502 7.34855,0.48252 7.40621,0.462552 C 7.41211,0.455128 7.38969,0.485265 7.44738,0.46525 C 7.45329,0.457793 7.43091,0.488049 7.48862,0.467987 C 7.49456,0.460495 7.4722,0.49087 7.52995,0.470762 C 7.53591,0.463236 7.51358,0.493729 7.57136,0.473575 C 7.57733,0.466015 7.55503,0.496626 7.61285,0.476425 C 7.61884,0.468832 7.59657,0.49956 7.65441,0.479313 C 7.66042,0.471687 7.63818,0.502531 7.69605,0.482239 C 7.70208,0.474579 7.67987,0.505539 7.73777,0.485201 C 7.74382,0.477508 7.72164,0.508584 7.77957,0.488201 C 7.78563,0.480474 7.76348,0.511665 7.82145,0.491237 C 7.82753,0.483478 7.8054,0.514783 7.8634,0.49431 C 7.86949,0.486518 7.8474,0.517938 7.90542,0.49742 C 7.91154,0.489595 7.88947,0.521129 7.94752,0.500566 C 7.95366,0.492709 7.93161,0.524356 7.9897,0.503749 C 7.99585,0.495859 7.97384,0.527619 8.03195,0.506967 C 8.03812,0.499045 8.01613,0.530917 8.07427,0.510222 C 8.08046,0.502268 8.0585,0.534251 8.11667,0.513512 C 8.12288,0.505526 8.10094,0.537621 8.15914,0.516838 C 8.16536,0.50882 8.14346,0.541026 8.20169,0.520199 C 8.20792,0.51215 8.18604,0.544467 8.2443,0.523596 C 8.25056,0.515515 8.2287,0.547942 8.28699,0.527028 C 8.29326,0.518916 8.27143,0.551452 8.32975,0.530496 C 8.33604,0.522352 8.31424,0.554997 8.37258,0.533998 C 8.37888,0.525822 8.35711,0.558577 8.41548,0.537535 C 8.4218,0.529328 8.40005,0.562191 8.45845,0.541106 C 8.46479,0.532869 8.44306,0.565839 8.50149,0.544712 C 8.50785,0.536444 8.48614,0.569522 8.5446,0.548353 C 8.55097,0.540054 8.52929,0.573239 8.58778,0.552027 C 8.59417,0.543697 8.57251,0.576989 8.63102,0.555736 C 8.63743,0.547376 8.6158,0.580774 8.67434,0.559479 C 8.68076,0.551088 8.65916,0.584592 8.71772,0.563255 C 8.72416,0.554834 8.70258,0.588443 8.76117,0.567065 C 8.76762,0.558614 8.74607,0.592328 8.80469,0.570909 C 8.81116,0.562428 8.78963,0.596246 8.84827,0.574786 C 8.85476,0.566275 8.83325,0.600197 8.89192,0.578696 C 8.89842,0.570155 8.87694,0.604181 8.93563,0.58264 C 8.94215,0.574069 8.92069,0.608198 8.97941,0.586616 C 8.98595,0.578016 8.96451,0.612248 9.02326,0.590625 C 9.02981,0.581995 9.00839,0.61633 9.06717,0.594667 C 9.07373,0.586008 9.05234,0.620445 9.11114,0.598742 C 9.11772,0.590053 9.09635,0.624592 9.15518,0.602849 C 9.16178,0.594131 9.14043,0.628771 9.19928,0.606988 C 9.20589,0.598242 9.18457,0.632982 9.24344,0.611159 C 9.25007,0.602384 9.22877,0.637225 9.28767,0.615363 C 9.29431,0.606559 9.27303,0.641499 9.33195,0.619598 C 9.33862,0.610766 9.31736,0.645806 9.37631,0.623866 C 9.38298,0.615004 9.36174,0.650144 9.42072,0.628165 C 9.42741,0.619275 9.40619,0.654513 9.46519,0.632495 C 9.4719,0.623577 9.4507,0.658914 9.50973,0.636857 C 9.51645,0.627911 9.49527,0.663346 9.55432,0.64125 C 9.56106,0.632276 9.5399,0.667808 9.59897,0.645675 C 9.60573,0.636672 9.58459,0.672302 9.64369,0.65013 C 9.65046,0.6411 9.62935,0.676826 9.68846,0.654616 C 9.69525,0.645559 9.67415,0.681382 9.7333,0.659133 C 9.7401,0.650048 9.71902,0.685967 9.77819,0.663681 C 9.785,0.654568 9.76395,0.690583 9.82314,0.66826 C 9.82997,0.659119 9.80894,0.69523 9.86815,0.672869 Z" fill="#000" /></svg>