<?xml version="1.0" encoding="utf-8" ?>
<svg baseProfile="tiny" fill-rule="evenodd" height="1.2498436411842704px" version="1.2" width="9.473470494151115px" xmlns="http://www.w3.org/2000/svg" xmlns:ev="http://www.w3.org/2001/xml-events" xmlns:xlink="http://www.w3.org/1999/xlink"><defs /><path d="M -0.30247,-0.147922 C -0.241113,-0.152443 -0.0385736,-0.00228068 0,0 C 0.0551055,-0.00189288 0.198409,0.124404 0.265252,0.122032 C 0.313875,0.122003 0.420531,0.227484 0.494437,0.223674 C 0.536704,0.224535 0.617808,0.313414 0.691299,0.308455 C 0.72782,0.309625 0.789448,0.385166 0.860219,0.379229 C 0.891744,0.380465 0.937774,0.445046 1.00538,0.43829 C 1.03265,0.439501 1.06589,0.494962 1.13049,0.487535 C 1.15415,0.488693 1.17682,0.536519 1.23873,0.528546 C 1.25935,0.529645 1.27324,0.571065 1.3328,0.562649 C 1.35087,0.56369 1.35745,0.599732 1.41499,0.590956 C 1.43091,0.591942 1.43142,0.623468 1.48721,0.614398 C 1.50132,0.615332 1.49679,0.643068 1.55109,0.633757 C 1.56367,0.634642 1.55496,0.659199 1.60797,0.649689 C 1.61927,0.650527 1.60709,0.672422 1.65899,0.662746 C 1.66922,0.663538 1.65416,0.683207 1.70512,0.67339 C 1.71444,0.674139 1.69701,0.691947 1.74715,0.682012 C 1.75571,0.682717 1.73632,0.698976 1.78577,0.688938 C 1.79369,0.689601 1.77268,0.704572 1.82154,0.694443 C 1.82893,0.695064 1.80659,0.70897 1.85493,0.69876 C 1.86188,0.69934 1.83845,0.712367 1.88636,0.702085 C 1.89293,0.702624 1.86861,0.714929 1.91615,0.70458 C 1.9224,0.705078 1.89737,0.716796 1.94459,0.706385 C 1.95058,0.706842 1.92497,0.718086 1.97192,0.707616 C 1.9777,0.708032 1.95161,0.718898 1.99834,0.708371 C 2.00393,0.708747 1.97748,0.719316 2.02401,0.708734 C 2.02946,0.709069 2.00271,0.719409 2.04908,0.708773 C 2.05441,0.709067 2.02744,0.719236 2.07368,0.708548 C 2.0789,0.708801 2.05176,0.718849 2.09788,0.708108 C 2.10303,0.70832 2.07577,0.718288 2.12179,0.707495 C 2.12688,0.707666 2.09952,0.717588 2.14548,0.706743 C 2.15051,0.706873 2.1231,0.71678 2.16899,0.705883 C 2.17398,0.705972 2.14654,0.715889 2.19239,0.70494 C 2.19735,0.704987 2.1699,0.714935 2.21571,0.703933 C 2.22064,0.703939 2.1932,0.713936 2.23898,0.702882 C 2.2439,0.702846 2.21648,0.712907 2.26225,0.7018 C 2.26716,0.701722 2.23977,0.711861 2.28553,0.7007 C 2.29043,0.700581 2.26308,0.710807 2.30883,0.699593 C 2.31374,0.699432 2.28643,0.709755 2.33219,0.698487 C 2.3371,0.698284 2.30984,0.708712 2.35561,0.69739 C 2.36052,0.697145 2.33333,0.707684 2.37911,0.696308 C 2.38403,0.696021 2.35689,0.706677 2.40269,0.695245 C 2.40762,0.694917 2.38054,0.705693 2.42636,0.694207 C 2.4313,0.693837 2.40429,0.704738 2.45014,0.693197 C 2.45509,0.692785 2.42814,0.703814 2.47401,0.692217 C 2.47898,0.691764 2.4521,0.702923 2.498,0.691271 C 2.50298,0.690776 2.47617,0.702068 2.5221,0.69036 C 2.52709,0.689824 2.50035,0.701249 2.54632,0.689486 C 2.55132,0.688908 2.52465,0.700469 2.57065,0.68865 C 2.57567,0.688031 2.54907,0.699729 2.5951,0.687854 C 2.60014,0.687194 2.5736,0.699029 2.61968,0.687099 C 2.62473,0.686397 2.59826,0.69837 2.64437,0.686384 C 2.64945,0.685641 2.62304,0.697753 2.66919,0.685711 C 2.67429,0.684927 2.64794,0.697178 2.69413,0.68508 C 2.69925,0.684255 2.67297,0.696646 2.7192,0.684492 C 2.72433,0.683626 2.69811,0.696156 2.74439,0.683946 C 2.74954,0.683039 2.72339,0.695709 2.7697,0.683443 C 2.77487,0.682496 2.74878,0.695305 2.79514,0.682984 C 2.80032,0.681996 2.7743,0.694944 2.8207,0.682567 C 2.8259,0.681539 2.79994,0.694626 2.84638,0.682193 C 2.8516,0.681125 2.8257,0.694351 2.87219,0.681863 C 2.87743,0.680754 2.85158,0.694119 2.89812,0.681576 C 2.90338,0.680427 2.87759,0.69393 2.92417,0.681331 C 2.92945,0.680142 2.90372,0.693784 2.95034,0.68113 C 2.95564,0.679901 2.92997,0.69368 2.97663,0.680972 C 2.98195,0.679703 2.95633,0.693619 3.00305,0.680856 C 3.00838,0.679547 2.98282,0.693601 3.02958,0.680782 C 3.03493,0.679434 3.00943,0.693624 3.05623,0.680752 C 3.0616,0.679364 3.03616,0.693691 3.08301,0.680763 C 3.08839,0.679336 3.063,0.693799 3.1099,0.680817 C 3.1153,0.679351 3.08997,0.693949 3.1369,0.680913 C 3.14232,0.679407 3.11705,0.69414 3.16403,0.68105 C 3.16947,0.679506 3.14424,0.694374 3.19127,0.681229 C 3.19673,0.679647 3.17156,0.694648 3.21863,0.68145 C 3.2241,0.679829 3.19898,0.694964 3.2461,0.681712 C 3.25159,0.680052 3.22653,0.695321 3.27369,0.682016 C 3.2792,0.680317 3.25419,0.695719 3.30139,0.682361 C 3.30692,0.680624 3.28196,0.696158 3.32921,0.682746 C 3.33475,0.680971 3.30984,0.696637 3.35713,0.683172 C 3.3627,0.681359 3.33784,0.697157 3.38518,0.683639 C 3.39076,0.681788 3.36595,0.697717 3.41333,0.684146 C 3.41893,0.682257 3.39417,0.698317 3.4416,0.684694 C 3.44721,0.682767 3.42251,0.698957 3.46997,0.685281 C 3.4756,0.683317 3.45095,0.699636 3.49846,0.685909 C 3.50411,0.683907 3.4795,0.700356 3.52706,0.686576 C 3.53272,0.684537 3.50817,0.701115 3.55576,0.687283 C 3.56145,0.685207 3.53694,0.701913 3.58458,0.68803 C 3.59028,0.685916 3.56582,0.70275 3.6135,0.688815 C 3.61922,0.686665 3.59481,0.703627 3.64253,0.68964 C 3.64827,0.687453 3.6239,0.704542 3.67167,0.690504 C 3.67742,0.68828 3.65311,0.705496 3.70092,0.691407 C 3.70669,0.689146 3.68242,0.706489 3.73027,0.692349 C 3.73605,0.690051 3.71183,0.70752 3.75973,0.693329 C 3.76553,0.690995 3.74135,0.708589 3.78929,0.694347 C 3.79511,0.691977 3.77098,0.709696 3.81896,0.695404 C 3.82479,0.692998 3.80071,0.710841 3.84873,0.696499 C 3.85458,0.694057 3.83055,0.712024 3.87861,0.697632 C 3.88448,0.695154 3.86049,0.713245 3.90859,0.698802 C 3.91447,0.696289 3.89053,0.714503 3.93867,0.700011 C 3.94457,0.697461 3.92067,0.715799 3.96886,0.701256 C 3.97477,0.698672 3.95092,0.717132 3.99915,0.70254 C 4.00508,0.699919 3.98127,0.718502 4.02953,0.70386 C 4.03548,0.701204 4.01171,0.719909 4.06002,0.705218 C 4.06599,0.702527 4.04226,0.721352 4.09061,0.706612 C 4.09659,0.703886 4.07291,0.722833 4.1213,0.708044 C 4.1273,0.705283 4.10366,0.72435 4.15209,0.709512 C 4.1581,0.706716 4.13451,0.725903 4.18298,0.711016 C 4.18901,0.708186 4.16546,0.727492 4.21397,0.712557 C 4.22001,0.709692 4.19651,0.729118 4.24506,0.714134 C 4.25111,0.711235 4.22765,0.73078 4.27624,0.715748 C 4.28231,0.712814 4.25889,0.732477 4.30752,0.717397 C 4.31361,0.714429 4.29023,0.73421 4.3389,0.719082 C 4.345,0.71608 4.32167,0.735979 4.37037,0.720803 C 4.37649,0.717766 4.3532,0.737783 4.40194,0.72256 C 4.40808,0.719489 4.38483,0.739623 4.43361,0.724352 C 4.43976,0.721247 4.41655,0.741497 4.46537,0.726179 C 4.47154,0.723041 4.44837,0.743407 4.49723,0.728041 C 4.50341,0.724869 4.48028,0.745352 4.52918,0.729939 C 4.53537,0.726733 4.51228,0.747331 4.56122,0.731871 C 4.56743,0.728632 4.54438,0.749345 4.59336,0.733839 C 4.59958,0.730566 4.57658,0.751394 4.62559,0.735841 C 4.63183,0.732535 4.60886,0.753477 4.65791,0.737877 C 4.66417,0.734538 4.64124,0.755594 4.69033,0.739948 C 4.6966,0.736576 4.67371,0.757745 4.72283,0.742053 C 4.72912,0.738648 4.70627,0.759931 4.75543,0.744192 C 4.76173,0.740755 4.73892,0.76215 4.78812,0.746366 C 4.79444,0.742895 4.77166,0.764403 4.8209,0.748573 C 4.82723,0.74507 4.8045,0.76669 4.85377,0.750814 C 4.86011,0.747278 4.83742,0.76901 4.88673,0.753089 C 4.89309,0.749521 4.87043,0.771364 4.91978,0.755397 C 4.92615,0.751797 4.90353,0.773751 4.95292,0.757739 C 4.9593,0.754106 4.93672,0.776171 4.98614,0.760114 C 4.99254,0.756449 4.97,0.778624 5.01946,0.762522 C 5.02587,0.758825 5.00336,0.78111 5.05286,0.764963 C 5.05929,0.761234 5.03682,0.783629 5.08635,0.767437 C 5.09279,0.763677 5.07036,0.78618 5.11992,0.769944 C 5.12638,0.766152 5.10399,0.788764 5.15358,0.772484 C 5.16006,0.76866 5.1377,0.791381 5.18733,0.775056 C 5.19382,0.7712 5.1715,0.79403 5.22117,0.77766 C 5.22767,0.773774 5.20538,0.796711 5.25509,0.780297 C 5.2616,0.776379 5.23935,0.799424 5.28909,0.782967 C 5.29562,0.779017 5.27341,0.802169 5.32318,0.785668 C 5.32973,0.781687 5.30754,0.804946 5.35735,0.788401 C 5.36391,0.784389 5.34177,0.807754 5.39161,0.791166 C 5.39818,0.787124 5.37607,0.810595 5.42595,0.793963 C 5.43254,0.78989 5.41046,0.813467 5.46038,0.796792 C 5.46698,0.792687 5.44494,0.81637 5.49488,0.799652 C 5.5015,0.795517 5.47949,0.819304 5.52947,0.802543 C 5.5361,0.798378 5.51413,0.82227 5.56414,0.805466 C 5.57079,0.80127 5.54885,0.825267 5.5989,0.80842 C 5.60555,0.804194 5.58365,0.828295 5.63373,0.811405 C 5.6404,0.807148 5.61853,0.831353 5.66865,0.814421 C 5.67533,0.810134 5.65349,0.834442 5.70364,0.817468 C 5.71034,0.813151 5.68853,0.837562 5.73872,0.820546 C 5.74543,0.816199 5.72366,0.840713 5.77387,0.823654 C 5.7806,0.819277 5.75886,0.843894 5.80911,0.826793 C 5.81584,0.822386 5.79414,0.847105 5.84442,0.829962 C 5.85117,0.825526 5.8295,0.850346 5.87982,0.833162 C 5.88658,0.828696 5.86494,0.853618 5.91529,0.836392 C 5.92206,0.831896 5.90046,0.856919 5.95084,0.839652 C 5.95763,0.835126 5.93605,0.860251 5.98647,0.842942 C 5.99327,0.838387 5.97173,0.863612 6.02217,0.846261 C 6.02899,0.841677 6.00748,0.867002 6.05795,0.849611 C 6.06478,0.844997 6.0433,0.870423 6.09381,0.85299 C 6.10065,0.848348 6.07921,0.873873 6.12975,0.856399 C 6.1366,0.851727 6.11519,0.877352 6.16576,0.859837 C 6.17263,0.855137 6.15124,0.88086 6.20185,0.863305 C 6.20873,0.858576 6.18738,0.884398 6.23801,0.866802 C 6.2449,0.862044 6.22358,0.887964 6.27425,0.870328 C 6.28116,0.865541 6.25986,0.89156 6.31056,0.873883 C 6.31748,0.869068 6.29622,0.895184 6.34695,0.877468 C 6.35388,0.872623 6.33265,0.898837 6.38341,0.881081 C 6.39036,0.876208 6.36916,0.902519 6.41995,0.884723 C 6.4269,0.879821 6.40573,0.906229 6.45656,0.888393 C 6.46353,0.883463 6.44239,0.909968 6.49324,0.892092 C 6.50022,0.887134 6.47911,0.913735 6.53,0.895819 C 6.53699,0.890833 6.51591,0.917531 6.56682,0.899575 C 6.57383,0.894561 6.55278,0.921354 6.60372,0.903359 C 6.61074,0.898317 6.58972,0.925206 6.6407,0.907172 C 6.64773,0.902102 6.62673,0.929086 6.67774,0.911012 C 6.68478,0.905914 6.66382,0.932993 6.71485,0.91488 C 6.72191,0.909755 6.70097,0.936928 6.75204,0.918777 C 6.75911,0.913623 6.7382,0.940891 6.7893,0.922701 C 6.79638,0.91752 6.7755,0.944881 6.82663,0.926652 C 6.83372,0.921444 6.81287,0.948899 6.86402,0.930632 C 6.87113,0.925396 6.8503,0.952945 6.90149,0.934638 C 6.90861,0.929375 6.88781,0.957017 6.93903,0.938672 C 6.94616,0.933382 6.92539,0.961117 6.97663,0.942734 C 6.98377,0.937417 6.96303,0.965244 7.01431,0.946823 C 7.02146,0.941478 7.00075,0.969398 7.05205,0.950938 C 7.05922,0.945567 7.03853,0.973579 7.08986,0.955081 C 7.09704,0.949683 7.07638,0.977786 7.12774,0.959251 C 7.13493,0.953826 7.1143,0.982021 7.16569,0.963448 C 7.17289,0.957996 7.15229,0.986282 7.20371,0.967671 C 7.21092,0.962192 7.19034,0.99057 7.24179,0.971921 C 7.24901,0.966416 7.22846,0.994884 7.27994,0.976198 C 7.28717,0.970666 7.26665,0.999224 7.31816,0.980501 C 7.3254,0.974942 7.30491,1.00359 7.35644,0.98483 C 7.3637,0.979245 7.34323,1.00798 7.39479,0.989186 C 7.40206,0.983575 7.38161,1.0124 7.4332,0.993568 C 7.44048,0.987931 7.42006,1.01685 7.47168,0.997976 C 7.47897,0.992313 7.45858,1.02132 7.51023,1.00241 C 7.51753,0.996721 7.49716,1.02582 7.54884,1.00687 C 7.55615,1.00115 7.53581,1.03034 7.58751,1.01136 C 7.59484,1.00561 7.57452,1.03489 7.62625,1.01587 C 7.63359,1.0101 7.6133,1.03946 7.66506,1.02041 C 7.6724,1.01461 7.65214,1.04406 7.70392,1.02497 C 7.71128,1.01915 7.69104,1.04868 7.74285,1.02956 C 7.75023,1.02371 7.73001,1.05334 7.78185,1.03417 C 7.78923,1.0283 7.76904,1.05801 7.82091,1.03881 C 7.8283,1.03291 7.80813,1.06271 7.86003,1.04348 C 7.86743,1.03755 7.84729,1.06744 7.89921,1.04817 C 7.90662,1.04222 7.88651,1.07219 7.93845,1.05288 C 7.94588,1.04691 7.92579,1.07696 7.97776,1.05762 C 7.9852,1.05162 7.96513,1.08176 8.01713,1.06238 C 8.02458,1.05636 8.00453,1.08659 8.05656,1.06717 C 8.06402,1.06113 8.044,1.09144 8.09605,1.07199 C 8.10352,1.06592 8.08352,1.09631 8.1356,1.07683 C 8.14309,1.07073 8.12311,1.10121 8.17522,1.08169 C 8.18271,1.07557 8.16276,1.10613 8.21489,1.08658 C 8.2224,1.08043 8.20247,1.11108 8.25463,1.09149 C 8.26214,1.08532 8.24223,1.11605 8.29442,1.09643 C 8.30195,1.09023 8.28206,1.12105 8.33427,1.10139 C 8.34181,1.09517 8.32195,1.12607 8.37419,1.10638 C 8.38173,1.10013 8.3619,1.13111 8.41416,1.11139 C 8.42172,1.10512 8.4019,1.13618 8.45419,1.11642 C 8.46176,1.11012 8.44197,1.14127 8.49428,1.12148 C 8.50186,1.11516 8.48209,1.14639 8.53443,1.12656 C 8.54202,1.12021 8.52227,1.15153 8.57464,1.13166 C 8.58224,1.1253 8.56251,1.15669 8.6149,1.13679 C 8.62251,1.1304 8.60281,1.16188 8.65523,1.14195 C 8.66285,1.13553 8.64317,1.16709 8.69561,1.14712 C 8.70324,1.14068 8.68358,1.17232 8.73605,1.15232 C 8.74369,1.14586 8.72405,1.17758 8.77654,1.15754 C 8.78419,1.15106 8.76458,1.18286 8.81709,1.16279 C 8.82475,1.15628 8.80516,1.18816 8.8577,1.16806 C 8.86537,1.16152 8.8458,1.19349 8.89837,1.17335 C 8.90605,1.16679 8.8865,1.19884 8.93909,1.17867 C 8.94678,1.17209 8.92725,1.20421 8.97986,1.18401 C 8.98757,1.1774 8.96806,1.2096 9.0207,1.18937 C 9.02841,1.18274 9.00892,1.21502 9.06159,1.19475 C 9.06931,1.1881 9.04984,1.22046 9.10253,1.20016 C 9.11026,1.19349 9.09082,1.22593 9.14353,1.20559 C 9.15127,1.19889 9.13185,1.23141 9.18458,1.21104 C 9.19233,1.20432 9.17293,1.23692 9.22569,1.21652 C 9.23345,1.20977 9.21407,1.24245 9.26685,1.22202 C 9.27463,1.21525 9.25526,1.248 9.30807,1.22754 C 9.31585,1.22075 9.29651,1.25358 9.34934,1.23308 C 9.35713,1.22627 9.33781,1.25918 9.39066,1.23865 C 9.39847,1.23181 9.37916,1.2648 9.43204,1.24423 C 9.43985,1.23737 9.42057,1.27044 9.47347,1.24984 Z" fill="#000" /></svg>