<?xml version="1.0" encoding="utf-8" ?>
<svg baseProfile="tiny" fill-rule="evenodd" height="10.963014492765069px" version="1.2" width="39.88615026068874px" xmlns="http://www.w3.org/2000/svg" xmlns:ev="http://www.w3.org/2001/xml-events" xmlns:xlink="http://www.w3.org/1999/xlink"><defs /><path d="M 39.5055,10.3363 C 39.5739,10.3469 39.7618,10.4397 39.6737,10.47 C 39.7474,10.4972 39.8609,10.5379 39.7854,10.5848 C 39.8548,10.617 39.9205,10.6297 39.8545,10.682 C 39.9164,10.7149 39.9472,10.7082 39.8862,10.7608 C 39.9407,10.7933 39.9429,10.7707 39.8842,10.8237 C 39.9319,10.8554 39.9099,10.8191 39.8526,10.8726 L 39.7952,10.9093 L 39.7156,10.9354 L 39.617,10.9523 L 39.5021,10.9611 L 39.3734,10.963 L 39.233,10.9589 L 39.0828,10.9497 L 38.9244,10.936 L 38.7591,10.9185 L 38.5881,10.8976 L 38.4122,10.8738 L 38.2324,10.8476 L 38.0493,10.8191 L 37.8636,10.7888 L 37.6756,10.7568 L 37.486,10.7233 L 37.2949,10.6886 L 37.1026,10.6527 L 36.9096,10.6157 L 36.7158,10.5779 L 36.5216,10.5393 L 36.3271,10.4999 L 36.1324,10.4599 L 35.9375,10.4192 L 35.7427,10.378 L 35.5479,10.3363 L 35.3532,10.2941 L 35.1587,10.2515 L 34.9644,10.2084 L 34.7703,10.165 L 34.5766,10.1212 L 34.3831,10.0771 L 34.19,10.0327 L 33.9972,9.98797 L 33.8048,9.94297 L 33.6127,9.8977 L 33.4211,9.85218 L 33.2298,9.80641 L 33.0389,9.76042 L 32.8484,9.71422 L 32.6583,9.6678 L 32.4687,9.6212 L 32.2794,9.5744 L 32.0906,9.52742 L 31.9021,9.48028 L 31.7141,9.43297 L 31.5265,9.38551 L 31.3393,9.3379 L 31.1526,9.29015 L 30.9662,9.24227 L 30.7802,9.19426 L 30.5947,9.14613 L 30.4096,9.09788 L 30.2249,9.04952 L 30.0406,9.00106 L 29.8566,8.9525 L 29.6731,8.90384 L 29.49,8.8551 L 29.3073,8.80626 L 29.125,8.75735 L 28.9431,8.70837 L 28.7615,8.65931 L 28.5804,8.61018 L 28.3996,8.56099 L 28.2193,8.51174 L 28.0393,8.46243 L 27.8597,8.41307 L 27.6804,8.36367 L 27.5015,8.31421 L 27.323,8.26471 L 27.1449,8.21517 L 26.9671,8.1656 L 26.7897,8.11599 L 26.6127,8.06635 L 26.436,8.01668 L 26.2596,7.96698 L 26.0836,7.91727 L 25.908,7.86753 L 25.7327,7.81777 L 25.5577,7.76799 L 25.3831,7.7182 L 25.2088,7.6684 L 25.0349,7.61859 L 24.8612,7.56877 L 24.6879,7.51894 L 24.515,7.46911 L 24.3423,7.41928 L 24.17,7.36944 L 23.998,7.31961 L 23.8263,7.26977 L 23.6549,7.21995 L 23.4839,7.17012 L 23.3131,7.12031 L 23.1426,7.0705 L 22.9725,7.0207 L 22.8026,6.97091 L 22.6331,6.92113 L 22.4638,6.87137 L 22.2948,6.82162 L 22.1261,6.77189 L 21.9577,6.72217 L 21.7896,6.67248 L 21.6218,6.6228 L 21.4542,6.57314 L 21.2869,6.5235 L 21.1199,6.47388 L 20.9532,6.42429 L 20.7868,6.37471 L 20.6206,6.32517 L 20.4547,6.27564 L 20.289,6.22615 L 20.1236,6.17668 L 19.9585,6.12724 L 19.7936,6.07782 L 19.629,6.02844 L 19.4646,5.97908 L 19.3005,5.92975 L 19.1366,5.88046 L 18.973,5.83119 L 18.8096,5.78196 L 18.6465,5.73276 L 18.4836,5.68359 L 18.3209,5.63446 L 18.1585,5.58536 L 17.9964,5.53629 L 17.8344,5.48726 L 17.6727,5.43826 L 17.5112,5.3893 L 17.35,5.34038 L 17.1889,5.29149 L 17.0281,5.24264 L 16.8676,5.19382 L 16.7072,5.14505 L 16.5471,5.09631 L 16.3872,5.04761 L 16.2275,4.99895 L 16.068,4.95032 L 15.9087,4.90174 L 15.7497,4.85319 L 15.5908,4.80469 L 15.4322,4.75623 L 15.2737,4.7078 L 15.1155,4.65942 L 14.9575,4.61108 L 14.7997,4.56278 L 14.6421,4.51452 L 14.4847,4.4663 L 14.3274,4.41812 L 14.1704,4.36998 L 14.0136,4.32189 L 13.857,4.27384 L 13.7005,4.22583 L 13.5443,4.17787 L 13.3882,4.12994 L 13.2324,4.08206 L 13.0767,4.03423 L 12.9212,3.98643 L 12.7659,3.93868 L 12.6108,3.89098 L 12.4559,3.84331 L 12.3011,3.79569 L 12.1465,3.74812 L 11.9921,3.70058 L 11.8379,3.6531 L 11.6839,3.60565 L 11.53,3.55825 L 11.3764,3.5109 L 11.2228,3.46359 L 11.0695,3.41632 L 10.9163,3.3691 L 10.7633,3.32192 L 10.6105,3.27479 L 10.4579,3.2277 L 10.3054,3.18066 L 10.1531,3.13366 L 10.0009,3.08671 L 9.84892,3.0398 L 9.6971,2.99294 L 9.54544,2.94612 L 9.39394,2.89935 L 9.2426,2.85262 L 9.09143,2.80594 L 8.94041,2.7593 L 8.78955,2.71271 L 8.63885,2.66616 L 8.4883,2.61966 L 8.33791,2.57321 L 8.18768,2.52679 L 8.0376,2.48043 L 7.88767,2.43411 L 7.7379,2.38784 L 7.58828,2.34161 L 7.43881,2.29542 L 7.28949,2.24929 L 7.14032,2.20319 L 6.9913,2.15715 L 6.84242,2.11114 L 6.69369,2.06519 L 6.54511,2.01928 L 6.39668,1.97341 L 6.24839,1.92759 L 6.10024,1.88182 L 5.95224,1.83609 L 5.80438,1.79041 L 5.65666,1.74477 L 5.50909,1.69917 L 5.36165,1.65363 L 5.21436,1.60812 L 5.0672,1.56267 L 4.92019,1.51726 L 4.77331,1.47189 L 4.62657,1.42657 L 4.47996,1.38129 L 4.3335,1.33606 L 4.18716,1.29088 L 4.04097,1.24574 L 3.8949,1.20064 L 3.74897,1.15559 L 3.60318,1.11059 L 3.45752,1.06563 L 3.31199,1.02071 L 3.16659,0.975842 L 3.02132,0.931017 L 2.87618,0.886237 L 2.73117,0.841501 L 2.58629,0.796811 L 2.44154,0.752165 L 2.29692,0.707564 L 2.15243,0.663008 L 2.00806,0.618496 L 1.86382,0.574029 L 1.71971,0.529607 L 1.57572,0.485229 L 1.43186,0.440896 L 1.28812,0.396607 L 1.1445,0.352362 L 1.00101,0.308162 L 0.857645,0.264006 L 0.7144,0.219895 L 0.571277,0.175828 L 0.428276,0.131805 L 0.285397,0.0878257 L 0.142638,0.0438908 L 0,0 Z" fill="#000" /></svg>