<?xml version="1.0" encoding="utf-8" ?>
<svg baseProfile="tiny" fill-rule="evenodd" height="8.866330905351788px" version="1.2" width="38.619124844204634px" xmlns="http://www.w3.org/2000/svg" xmlns:ev="http://www.w3.org/2001/xml-events" xmlns:xlink="http://www.w3.org/1999/xlink"><defs /><path d="M 38.3217,8.28045 C 38.3686,8.26355 38.529,8.35826 38.4562,8.38894 C 38.5097,8.38706 38.6125,8.44009 38.5423,8.48507 C 38.5932,8.48731 38.6602,8.51828 38.5948,8.56885 C 38.6403,8.57161 38.6815,8.58803 38.6191,8.63909 C 38.659,8.6415 38.6789,8.64603 38.618,8.69735 C 38.6527,8.69917 38.6542,8.6934 38.5941,8.74491 C 38.6242,8.74612 38.6095,8.73126 38.5501,8.783 C 38.576,8.78362 38.5472,8.76076 38.4884,8.81272 C 38.5106,8.81279 38.4693,8.78289 38.4111,8.83504 C 38.4299,8.83459 38.3779,8.7985 38.3203,8.85083 C 38.3361,8.8499 38.2746,8.80839 38.2175,8.86086 C 38.2307,8.85948 38.161,8.81323 38.1045,8.86583 C 38.1152,8.86403 38.0385,8.81364 37.9824,8.86633 C 37.991,8.86415 37.9082,8.81012 37.8525,8.86294 C 37.8592,8.8604 37.7711,8.80318 37.7159,8.85614 C 37.7209,8.85326 37.6282,8.79326 37.5734,8.84635 C 37.5769,8.84314 37.4803,8.78072 37.4259,8.83391 C 37.4279,8.8304 37.3281,8.76587 37.274,8.81916 C 37.2748,8.81535 37.1721,8.74899 37.1184,8.80236 C 37.118,8.79827 37.0129,8.73032 36.9595,8.78375 C 36.9581,8.7794 36.851,8.71006 36.7979,8.76355 C 36.7955,8.75894 36.6866,8.6884 36.6338,8.74194 C 36.6306,8.73707 36.5203,8.6655 36.4678,8.71907 C 36.4637,8.71397 36.3523,8.64148 36.3,8.69509 C 36.2951,8.68975 36.1827,8.61648 36.1307,8.67012 C 36.1252,8.66455 36.012,8.5906 35.9602,8.64425 C 35.954,8.63846 35.8401,8.56392 35.7886,8.61759 C 35.7818,8.61158 35.6674,8.53652 35.6161,8.59021 C 35.6087,8.58399 35.4939,8.50848 35.4429,8.56217 C 35.4349,8.55575 35.3199,8.47986 35.269,8.53355 C 35.2605,8.52693 35.1453,8.4507 35.0946,8.50439 C 35.0857,8.49757 34.9702,8.42106 34.9198,8.47474 C 34.9104,8.46772 34.7949,8.39096 34.7446,8.44464 C 34.7347,8.43743 34.6192,8.36046 34.5691,8.41413 C 34.5589,8.40673 34.4434,8.32957 34.3934,8.38323 C 34.3828,8.37565 34.2673,8.29832 34.2176,8.35197 C 34.2065,8.34421 34.0912,8.26675 34.0416,8.32038 C 34.0302,8.31244 33.915,8.23487 33.8656,8.28848 C 33.8538,8.28037 33.7387,8.20269 33.6895,8.25629 C 33.6773,8.248 33.5624,8.17025 33.5133,8.22382 C 33.5008,8.21536 33.3862,8.13754 33.3372,8.19109 C 33.3244,8.18247 33.2099,8.10459 33.1611,8.15812 C 33.148,8.14932 33.0338,8.0714 32.9851,8.1249 C 32.9716,8.11595 32.8576,8.03799 32.8091,8.09147 C 32.7953,8.08235 32.6816,8.00437 32.6332,8.05782 C 32.6191,8.04854 32.5057,7.97054 32.4574,8.02396 C 32.443,8.01453 32.3298,7.93652 32.2817,7.98991 C 32.2671,7.98032 32.1541,7.90231 32.1061,7.95567 C 32.0912,7.94592 31.9785,7.86792 31.9306,7.92124 C 31.9155,7.91135 31.8031,7.83335 31.7553,7.88664 C 31.7399,7.8766 31.6277,7.79861 31.5801,7.85187 C 31.5644,7.84168 31.4526,7.76372 31.405,7.81694 C 31.3891,7.8066 31.2775,7.72866 31.2301,7.78184 C 31.2139,7.77136 31.1027,7.69345 31.0553,7.74659 C 31.0389,7.73597 30.9279,7.65809 30.8807,7.7112 C 30.8641,7.70044 30.7534,7.62258 30.7063,7.67565 C 30.6894,7.66475 30.579,7.58694 30.532,7.63997 L 30.3579,7.60415 L 30.1839,7.5682 L 30.0101,7.53212 L 29.8365,7.49591 L 29.6631,7.45958 L 29.4899,7.42313 L 29.3168,7.38657 L 29.1439,7.34989 L 28.9712,7.3131 L 28.7987,7.27621 L 28.6263,7.23921 L 28.4542,7.20211 L 28.2822,7.16491 L 28.1104,7.12761 L 27.9388,7.09022 L 27.7674,7.05274 L 27.5962,7.01517 L 27.4252,6.97752 L 27.2543,6.93978 L 27.0837,6.90195 L 26.9132,6.86405 L 26.7429,6.82607 L 26.5728,6.78801 L 26.403,6.74988 L 26.2333,6.71167 L 26.0637,6.6734 L 25.8944,6.63505 L 25.7253,6.59664 L 25.5563,6.55817 L 25.3876,6.51963 L 25.219,6.48103 L 25.0507,6.44237 L 24.8825,6.40365 L 24.7145,6.36488 L 24.5467,6.32605 L 24.3791,6.28716 L 24.2116,6.24823 L 24.0444,6.20924 L 23.8774,6.1702 L 23.7105,6.13112 L 23.5438,6.09199 L 23.3773,6.05281 L 23.211,6.01359 L 23.0449,5.97433 L 22.879,5.93502 L 22.7132,5.89567 L 22.5477,5.85629 L 22.3823,5.81686 L 22.2171,5.7774 L 22.0521,5.73791 L 21.8873,5.69837 L 21.7226,5.65881 L 21.5582,5.61921 L 21.3939,5.57958 L 21.2298,5.53992 L 21.0659,5.50022 L 20.9021,5.4605 L 20.7386,5.42075 L 20.5752,5.38097 L 20.412,5.34117 L 20.2489,5.30134 L 20.0861,5.26149 L 19.9234,5.22161 L 19.7609,5.18171 L 19.5985,5.14178 L 19.4364,5.10184 L 19.2744,5.06187 L 19.1126,5.02189 L 18.9509,4.98188 L 18.7894,4.94185 L 18.6281,4.90181 L 18.467,4.86175 L 18.306,4.82167 L 18.1452,4.78158 L 17.9846,4.74147 L 17.8241,4.70134 L 17.6638,4.6612 L 17.5036,4.62105 L 17.3436,4.58088 L 17.1838,4.5407 L 17.0242,4.50051 L 16.8647,4.46031 L 16.7053,4.4201 L 16.5462,4.37987 L 16.3872,4.33964 L 16.2283,4.29939 L 16.0696,4.25914 L 15.9111,4.21887 L 15.7527,4.1786 L 15.5944,4.13832 L 15.4364,4.09804 L 15.2784,4.05775 C 15.252,4.0386 15.1642,3.96857 15.1207,4.01745 C 15.0942,3.99824 15.0066,3.92831 14.9631,3.97714 C 14.9365,3.95788 14.8491,3.88803 14.8056,3.93683 C 14.779,3.91751 14.6918,3.84775 14.6483,3.89651 C 14.6217,3.87714 14.5346,3.80747 14.4911,3.85619 C 14.4645,3.83676 14.3776,3.76718 14.3341,3.81586 C 14.3074,3.79638 14.2207,3.72689 14.1772,3.77553 C 14.1505,3.756 14.064,3.68659 14.0205,3.7352 C 13.9938,3.71561 13.9074,3.64629 13.8639,3.69486 C 13.8372,3.67521 13.751,3.60598 13.7075,3.65452 C 13.6807,3.63482 13.5947,3.56568 13.5512,3.61417 C 13.5244,3.59442 13.4386,3.52537 13.3951,3.57383 C 13.3682,3.55402 13.2826,3.48505 13.2391,3.53348 C 13.2122,3.51362 13.1267,3.44474 13.0833,3.49313 C 13.0563,3.47322 12.971,3.40442 12.9276,3.45277 C 12.9006,3.43281 12.8155,3.3641 12.772,3.41242 C 12.745,3.39241 12.66,3.32378 12.6166,3.37207 C 12.5895,3.352 12.5048,3.28346 12.4613,3.33171 C 12.4342,3.3116 12.3496,3.24314 12.3062,3.29136 C 12.279,3.27119 12.1946,3.20282 12.1512,3.251 C 12.124,3.23079 12.0397,3.1625 11.9963,3.21065 C 11.9691,3.19038 11.885,3.12218 11.8416,3.17029 C 11.8144,3.14998 11.7304,3.08186 11.687,3.12994 C 11.6598,3.10958 11.576,3.04154 11.5325,3.08958 C 11.5053,3.06917 11.4216,3.00122 11.3782,3.04923 C 11.3509,3.02877 11.2675,2.96091 11.2241,3.00888 C 11.1967,2.98837 11.1134,2.92059 11.07,2.96853 C 11.0427,2.94798 10.9595,2.88028 10.9161,2.92819 C 10.8887,2.90758 10.8057,2.83997 10.7623,2.88784 C 10.7349,2.86719 10.6521,2.79966 10.6087,2.8475 C 10.5812,2.8268 10.4986,2.75935 10.4552,2.80716 C 10.4277,2.78642 10.3452,2.71905 10.3018,2.76683 C 10.2743,2.74604 10.1919,2.67874 10.1485,2.72649 C 10.121,2.70566 10.0388,2.63845 9.9954,2.68616 C 9.96786,2.66528 9.88579,2.59815 9.84241,2.64584 C 9.81484,2.62491 9.73293,2.55786 9.68954,2.60551 C 9.66195,2.58454 9.58019,2.51757 9.5368,2.5652 C 9.50919,2.54418 9.42757,2.47729 9.38419,2.52488 C 9.35656,2.50382 9.27509,2.43701 9.23171,2.48457 C 9.20405,2.46347 9.12273,2.39673 9.07935,2.44427 C 9.05166,2.42312 8.97049,2.35646 8.92712,2.40396 C 8.89941,2.38277 8.81838,2.3162 8.77501,2.36367 C 8.74728,2.34243 8.66639,2.27594 8.62302,2.32338 C 8.59527,2.3021 8.51453,2.23568 8.47116,2.28309 C 8.44338,2.26177 8.36279,2.19543 8.31942,2.24281 C 8.29162,2.22145 8.21117,2.15519 8.1678,2.20254 C 8.13998,2.18113 8.05967,2.11495 8.0163,2.16227 C 7.98846,2.14082 7.90829,2.07471 7.86493,2.12201 C 7.83707,2.10051 7.75704,2.03448 7.71367,2.08175 C 7.68579,2.06022 7.6059,1.99426 7.56254,2.0415 C 7.53463,2.01992 7.45488,1.95405 7.41152,2.00126 C 7.3836,1.97964 7.30398,1.91384 7.26062,1.96102 C 7.23268,1.93936 7.1532,1.87363 7.10984,1.92079 C 7.08188,1.89909 7.00254,1.83344 6.95917,1.88057 C 6.93119,1.85882 6.85199,1.79325 6.80863,1.84035 C 6.78062,1.81857 6.70156,1.75307 6.6582,1.80014 C 6.63017,1.77832 6.55124,1.71289 6.50788,1.75994 C 6.47984,1.73808 6.40104,1.67272 6.35768,1.71974 C 6.32962,1.69784 6.25095,1.63256 6.20759,1.67955 C 6.17951,1.65761 6.10098,1.59241 6.05762,1.63938 C 6.02952,1.6174 5.95111,1.55227 5.90776,1.5992 C 5.87964,1.57718 5.80137,1.51213 5.75801,1.55904 C 5.72988,1.53698 5.65173,1.472 5.60837,1.51888 C 5.58022,1.49679 5.50221,1.43188 5.45885,1.47874 C 5.43068,1.4566 5.35279,1.39176 5.30943,1.4386 C 5.28125,1.41642 5.20349,1.35166 5.16013,1.39847 C 5.13193,1.37626 5.0543,1.31156 5.01093,1.35834 C 4.98272,1.3361 4.90521,1.27147 4.86185,1.31823 C 4.83362,1.29595 4.75624,1.23139 4.71287,1.27813 C 4.68462,1.2558 4.60737,1.19132 4.56401,1.23803 C 4.53574,1.21567 4.45861,1.15126 4.41525,1.19794 C 4.38696,1.17555 4.30996,1.11121 4.26659,1.15787 C 4.23829,1.13543 4.16141,1.07116 4.11805,1.1178 C 4.08973,1.09533 4.01297,1.03113 3.96961,1.07774 C 3.94128,1.05523 3.86464,0.991102 3.82127,1.03769 C 3.79293,1.01515 3.71641,0.951086 3.67304,0.997649 C 3.64468,0.975069 3.56828,0.911079 3.52492,0.957619 C 3.49654,0.935003 3.42026,0.871082 3.37689,0.917598 C 3.3485,0.894946 3.27234,0.831094 3.22898,0.877587 C 3.20057,0.854899 3.12453,0.791116 3.08116,0.837586 C 3.05274,0.814863 2.97682,0.751148 2.93345,0.797594 C 2.90502,0.774837 2.82921,0.71119 2.78584,0.757613 C 2.75739,0.734821 2.6817,0.671242 2.63833,0.717643 C 2.60987,0.694815 2.5343,0.631304 2.49092,0.677682 C 2.46245,0.65482 2.38699,0.591376 2.34361,0.637732 C 2.31513,0.614835 2.23978,0.551458 2.19641,0.597792 C 2.16791,0.574861 2.09268,0.511551 2.0493,0.557863 C 2.02078,0.534897 1.94567,0.471655 1.90229,0.517944 C 1.87376,0.494945 1.79876,0.431768 1.75538,0.478036 C 1.72684,0.455003 1.65195,0.391893 1.60857,0.438139 C 1.58002,0.415072 1.50524,0.352028 1.46186,0.398252 C 1.43329,0.375152 1.35863,0.312174 1.31524,0.358377 C 1.28666,0.335243 1.21211,0.272331 1.16872,0.318512 C 1.14013,0.295346 1.06569,0.232498 1.0223,0.278659 C 0.993694,0.255459 0.919361,0.192677 0.875972,0.238816 C 0.847355,0.215584 0.773131,0.152867 0.72974,0.198985 C 0.701111,0.17572 0.626996,0.113067 0.583604,0.159165 C 0.554963,0.135868 0.480956,0.0732795 0.437562,0.119357 C 0.408909,0.096027 0.33501,0.0335028 0.291614,0.0795597 C 0.26295,0.0561977 0.189158,-0.00626252 0.14576,0.0397741 C 0.117085,0.01638 0.0433994,-0.0460164 0,0 Z" fill="#000" /></svg>