<?xml version="1.0" encoding="utf-8" ?>
<svg baseProfile="tiny" fill-rule="evenodd" height="7.015549266536254px" version="1.2" width="9.780842947307974px" xmlns="http://www.w3.org/2000/svg" xmlns:ev="http://www.w3.org/2001/xml-events" xmlns:xlink="http://www.w3.org/1999/xlink"><defs /><path d="M 8.90522,6.72671 C 8.91687,6.7098 9.1175,6.81275 9.08639,6.80361 C 9.10051,6.80172 9.24598,6.86603 9.24208,6.86524 C 9.25397,6.86694 9.36821,6.91501 9.37417,6.91589 C 9.38194,6.91913 9.47238,6.95504 9.48272,6.95354 C 9.48687,6.95761 9.55817,6.9835 9.57005,6.981 C 9.57101,6.98572 9.626,7.0029 9.63879,6.99965 C 9.63701,7.0049 9.67802,7.01457 9.69142,7.01082 C 9.68728,7.01652 9.71626,7.01972 9.73014,7.01555 C 9.72398,7.02164 9.7426,7.01928 9.75688,7.01475 C 9.74898,7.02118 9.75869,7.01403 9.7733,7.00921 C 9.76392,7.01592 9.76596,7.00466 9.78084,6.99958 C 9.77018,7.00654 9.76563,6.99175 9.78075,6.98644 C 9.769,6.99363 9.75878,6.9758 9.77409,6.9703 C 9.7614,6.97768 9.74632,6.95725 9.76179,6.95158 C 9.74831,6.95913 9.72904,6.93646 9.74464,6.93065 C 9.73049,6.93834 9.70762,6.91375 9.72333,6.90782 C 9.7086,6.91564 9.68265,6.88941 9.69845,6.88336 C 9.68324,6.8913 9.65464,6.86366 9.67051,6.85752 C 9.65488,6.86556 9.62401,6.83671 9.63993,6.83049 C 9.62395,6.83861 9.59113,6.80873 9.60711,6.80244 C 9.59083,6.81064 9.55634,6.77988 9.57234,6.77352 C 9.55582,6.7818 9.5199,6.75028 9.53593,6.74387 C 9.5192,6.75221 9.48205,6.72005 9.49809,6.71359 C 9.48119,6.72198 9.44299,6.68928 9.45904,6.68277 C 9.44201,6.69122 9.4029,6.65805 9.41896,6.6515 C 9.40181,6.66 9.36193,6.62643 9.37799,6.61985 C 9.36075,6.62839 9.32022,6.59448 9.33627,6.58787 C 9.31895,6.59645 9.27786,6.56227 9.2939,6.55563 C 9.27653,6.56424 9.23496,6.52982 9.25099,6.52315 C 9.23358,6.53181 9.1916,6.49718 9.20761,6.49049 C 9.19017,6.49918 9.14784,6.46439 9.16385,6.45768 C 9.14638,6.46639 9.10376,6.43146 9.11975,6.42473 C 9.10227,6.43348 9.05941,6.39844 9.07537,6.39168 C 9.05789,6.40046 9.01482,6.36532 9.03076,6.35856 C 9.01329,6.36735 8.97003,6.33215 8.98595,6.32536 C 8.96849,6.33419 8.92509,6.29892 8.94099,6.29212 C 8.92354,6.30097 8.88002,6.26566 8.89589,6.25885 C 8.87846,6.26772 8.83484,6.23237 8.85069,6.22554 C 8.83328,6.23444 8.78958,6.19907 8.8054,6.19223 C 8.78802,6.20115 8.74425,6.16576 8.76004,6.15891 C 8.74269,6.16785 8.69886,6.13246 8.71463,6.12559 C 8.69731,6.13455 8.65344,6.09916 8.66918,6.09228 C 8.6519,6.10126 8.608,6.06587 8.62371,6.05898 C 8.60646,6.06798 8.56254,6.0326 8.57822,6.0257 C 8.56101,6.03472 8.51707,5.99935 8.53273,5.99244 C 8.51555,6.00148 8.4716,5.96613 8.48723,5.95921 C 8.47009,5.96827 8.42614,5.93294 8.44174,5.926 C 8.42464,5.93508 8.38069,5.89977 8.39626,5.89283 C 8.3792,5.90193 8.33526,5.86664 8.3508,5.85969 C 8.33378,5.8688 8.28985,5.83354 8.30536,5.82658 C 8.28838,5.83572 8.24446,5.80048 8.25994,5.79351 C 8.243,5.80266 8.1991,5.76745 8.21456,5.76047 C 8.19765,5.76965 8.15376,5.73446 8.1692,5.72748 C 8.15233,5.73667 8.10846,5.70152 8.12387,5.69452 C 8.10705,5.70373 8.0632,5.66861 8.07857,5.6616 C 8.06179,5.67083 8.01797,5.63574 8.03331,5.62872 C 8.01658,5.63797 7.97277,5.60292 7.98809,5.59589 C 7.9714,5.60516 7.92762,5.57013 7.9429,5.5631 C 7.92625,5.57238 7.8825,5.53739 7.89776,5.53035 C 7.88115,5.53965 7.83742,5.50469 7.85265,5.49764 C 7.83608,5.50696 7.79238,5.47204 7.80758,5.46497 C 7.79106,5.47431 7.74738,5.43942 7.76256,5.43235 C 7.74608,5.44171 7.70243,5.40685 7.71757,5.39977 C 7.70113,5.40915 7.65751,5.37433 7.67263,5.36724 C 7.65623,5.37663 7.61264,5.34184 7.62773,5.33474 C 7.61138,5.34416 7.56781,5.3094 7.58287,5.3023 C 7.56656,5.31173 7.52302,5.27701 7.53806,5.26989 C 7.52179,5.27934 7.47828,5.24466 7.49329,5.23753 C 7.47706,5.247 7.43358,5.21235 7.44856,5.20521 C 7.43237,5.2147 7.38892,5.18008 7.40387,5.17294 C 7.38773,5.18244 7.3443,5.14786 7.35923,5.14071 C 7.34313,5.15023 7.29973,5.11569 7.31463,5.10853 C 7.29857,5.11806 7.2552,5.08355 7.27007,5.07638 C 7.25406,5.08594 7.21072,5.05146 7.22556,5.04428 C 7.20959,5.05386 7.16627,5.01942 7.18109,5.01223 C 7.16516,5.02182 7.12188,4.98741 7.13667,4.98022 C 7.12078,4.98983 7.07752,4.95545 7.09229,4.94825 C 7.07643,4.95787 7.03321,4.92354 7.04795,4.91633 C 7.03214,4.92597 6.98894,4.89166 7.00365,4.88445 C 6.98788,4.8941 6.94471,4.85983 6.9594,4.85261 C 6.94367,4.86228 6.90053,4.82805 6.91519,4.82081 C 6.8995,4.83051 6.85639,4.79631 6.87102,4.78906 C 6.85538,4.79877 6.8123,4.76461 6.8269,4.75735 C 6.8113,4.76708 6.76824,4.73295 6.78282,4.72569 C 6.76726,4.73543 6.72423,4.70133 6.73878,4.69406 C 6.72326,4.70383 6.68027,4.66976 6.69479,4.66248 C 6.67931,4.67227 6.63634,4.63823 6.65084,4.63095 C 6.6354,4.64075 6.59246,4.60675 6.60693,4.59945 C 6.59153,4.60927 6.54862,4.5753 6.56307,4.568 C 6.54771,4.57783 6.50482,4.5439 6.51924,4.53659 C 6.50393,4.54644 6.46107,4.51254 6.47546,4.50522 C 6.46019,4.51509 6.41736,4.48123 6.43173,4.4739 C 6.41649,4.48378 6.37369,4.44995 6.38803,4.44262 C 6.37283,4.45252 6.33006,4.41872 6.34438,4.41138 C 6.32922,4.42129 6.28647,4.38753 6.30077,4.38018 C 6.28565,4.39011 6.24293,4.35638 6.2572,4.34902 C 6.24212,4.35897 6.19943,4.32527 6.21367,4.31791 C 6.19863,4.32787 6.15597,4.29421 6.17019,4.28683 C 6.15519,4.29682 6.11255,4.26318 6.12674,4.2558 C 6.11179,4.2658 6.06918,4.2322 6.08334,4.22481 C 6.06842,4.23483 6.02584,4.20126 6.03998,4.19386 C 6.0251,4.2039 5.98255,4.17036 5.99666,4.16296 C 5.98183,4.17301 5.9393,4.13951 5.95339,4.13209 C 5.93859,4.14216 5.89609,4.10869 5.91015,4.10127 C 5.89539,4.11135 5.85292,4.07791 5.86696,4.07048 C 5.85224,4.08059 5.80979,4.04718 5.82381,4.03974 C 5.80912,4.04986 5.7667,4.01649 5.78069,4.00904 C 5.76605,4.01918 5.72366,3.98583 5.73762,3.97838 C 5.72302,3.98853 5.68065,3.95522 5.6946,3.94776 C 5.68003,3.95793 5.63769,3.92465 5.65161,3.91718 C 5.63708,3.92737 5.59477,3.89412 5.60866,3.88664 C 5.59417,3.89685 5.55188,3.86363 5.56575,3.85615 C 5.5513,3.86636 5.50904,3.83318 5.52289,3.82569 C 5.50848,3.83592 5.46624,3.80277 5.48006,3.79527 C 5.46569,3.80552 5.42348,3.7724 5.43728,3.76489 C 5.42294,3.77516 5.38076,3.74207 5.39453,3.73456 C 5.38024,3.74484 5.33808,3.71178 5.35183,3.70426 C 5.33757,3.71456 5.29544,3.68153 5.30916,3.674 C 5.29495,3.68432 5.25284,3.65132 5.26654,3.64379 C 5.25236,3.65412 5.21028,3.62115 5.22396,3.61361 C 5.20981,3.62396 5.16776,3.59102 5.18141,3.58347 C 5.16731,3.59384 5.12528,3.56094 5.13891,3.55338 C 5.12484,3.56376 5.08284,3.53088 5.09644,3.52332 C 5.08242,3.53372 5.04044,3.50087 5.05402,3.4933 C 5.04003,3.50371 4.99807,3.4709 5.01164,3.46332 C 4.99768,3.47375 4.95575,3.44097 4.96929,3.43338 C 4.95537,3.44383 4.91347,3.41108 4.92698,3.40348 C 4.9131,3.41394 4.87123,3.38122 4.88472,3.37362 C 4.87088,3.3841 4.82902,3.35141 4.84249,3.3438 C 4.82869,3.35429 4.78686,3.32163 4.8003,3.31401 C 4.78654,3.32453 4.74473,3.29189 4.75815,3.28427 C 4.74442,3.2948 4.70265,3.2622 4.71605,3.25456 C 4.70235,3.26511 4.6606,3.23254 4.67397,3.2249 C 4.66032,3.23546 4.61859,3.20292 4.63194,3.19527 C 4.61832,3.20584 4.57662,3.17333 4.58995,3.16568 C 4.57637,3.17627 4.53469,3.14379 4.548,3.13613 C 4.53445,3.14674 4.49279,3.11428 4.50608,3.10662 C 4.49257,3.11724 4.45094,3.08482 4.4642,3.07714 C 4.45073,3.08778 4.40912,3.05539 4.42237,3.04771 C 4.40893,3.05836 4.36735,3.026 4.38057,3.01831 C 4.36716,3.02898 4.32561,2.99664 4.3388,2.98895 C 4.32544,2.99963 4.28391,2.96733 4.29708,2.95963 C 4.28375,2.97033 4.24224,2.93805 4.2554,2.93034 C 4.2421,2.94106 4.20062,2.90881 4.21375,2.9011 C 4.20049,2.91183 4.15903,2.87961 4.17214,2.87189 C 4.15892,2.88263 4.11748,2.85045 4.13057,2.84272 C 4.11738,2.85348 4.07597,2.82132 4.08904,2.81358 C 4.07589,2.82436 4.0345,2.79223 4.04754,2.78449 C 4.03443,2.79528 3.99306,2.76318 4.00608,2.75543 C 3.993,2.76624 3.95166,2.73417 3.96466,2.72641 C 3.95162,2.73723 3.9103,2.70519 3.92328,2.69742 C 3.91027,2.70826 3.86898,2.67625 3.88193,2.66848 C 3.86896,2.67933 3.82769,2.64735 3.84063,2.63957 C 3.82769,2.65044 3.78644,2.61848 3.79936,2.6107 C 3.78645,2.62158 3.74523,2.58965 3.75812,2.58186 C 3.74526,2.59276 3.70406,2.56086 3.71693,2.55306 C 3.70409,2.56398 3.66292,2.5321 3.67577,2.5243 C 3.66297,2.53523 3.62182,2.50339 3.63465,2.49558 C 3.62188,2.50652 3.58075,2.4747 3.59356,2.46689 C 3.58083,2.47785 3.53973,2.44606 3.55251,2.43824 C 3.53982,2.44921 3.49874,2.41745 3.5115,2.40962 C 3.49884,2.42061 3.45778,2.38888 3.47053,2.38104 C 3.4579,2.39205 3.41687,2.36034 3.42959,2.3525 C 3.417,2.36352 3.37599,2.33184 3.38869,2.32399 C 3.37613,2.33503 3.33514,2.30338 3.34782,2.29552 C 3.3353,2.30657 3.29433,2.27495 3.30699,2.26709 C 3.29451,2.27815 3.25356,2.24656 3.2662,2.23869 C 3.25375,2.24977 3.21283,2.2182 3.22545,2.21033 C 3.21303,2.22142 3.17213,2.18988 3.18473,2.182 C 3.17234,2.19311 3.13146,2.1616 3.14404,2.15371 C 3.13169,2.16484 3.09084,2.13335 3.10339,2.12546 C 3.09108,2.1366 3.05024,2.10514 3.06278,2.09724 C 3.0505,2.10839 3.00969,2.07696 3.02221,2.06905 C 3.00996,2.08022 2.96917,2.04882 2.98167,2.0409 C 2.96945,2.05209 2.92868,2.02071 2.94116,2.01279 C 2.92898,2.02399 2.88824,1.99264 2.90069,1.98471 C 2.88855,1.99593 2.84782,1.9646 2.86026,1.95667 C 2.84815,1.9679 2.80745,1.9366 2.81986,1.92867 C 2.80778,1.93991 2.7671,1.90864 2.7795,1.90069 C 2.76745,1.91195 2.7268,1.88071 2.73917,1.87276 C 2.72716,1.88403 2.68652,1.85281 2.69888,1.84485 C 2.6869,1.85614 2.64629,1.82495 2.65863,1.81699 C 2.64668,1.82829 2.60609,1.79713 2.6184,1.78916 C 2.60649,1.80047 2.56592,1.76933 2.57822,1.76136 C 2.56634,1.77269 2.52579,1.74158 2.53807,1.7336 C 2.52622,1.74494 2.48569,1.71386 2.49795,1.70587 C 2.48613,1.71723 2.44563,1.68617 2.45787,1.67817 C 2.44609,1.68955 2.4056,1.65851 2.41782,1.65051 C 2.40607,1.6619 2.36561,1.6309 2.37781,1.62289 C 2.36609,1.63429 2.32565,1.60331 2.33783,1.5953 C 2.32615,1.60672 2.28573,1.57576 2.29789,1.56774 C 2.28624,1.57918 2.24584,1.54825 2.25798,1.54022 C 2.24636,1.55167 2.20599,1.52076 2.21811,1.51273 C 2.20652,1.52419 2.16616,1.49331 2.17827,1.48528 C 2.16671,1.49675 2.12638,1.4659 2.13847,1.45786 C 2.12694,1.46935 2.08663,1.43852 2.09869,1.43047 C 2.0872,1.44198 2.04691,1.41117 2.05896,1.40312 C 2.0475,1.41464 2.00723,1.38386 2.01926,1.3758 C 2.00783,1.38733 1.96758,1.35658 1.97959,1.34852 C 1.96819,1.36006 1.92796,1.32934 1.93995,1.32127 C 1.92859,1.33282 1.88838,1.30212 1.90035,1.29405 C 1.88902,1.30562 1.84883,1.27495 1.86078,1.26686 C 1.84948,1.27845 1.80931,1.2478 1.82125,1.23971 C 1.80998,1.25131 1.76983,1.22069 1.78175,1.21259 C 1.77051,1.22421 1.73039,1.19361 1.74229,1.18551 C 1.73108,1.19714 1.69097,1.16656 1.70285,1.15846 C 1.69168,1.1701 1.65159,1.13955 1.66345,1.13144 C 1.65231,1.1431 1.61224,1.11257 1.62409,1.10445 C 1.61297,1.11613 1.57293,1.08562 1.58476,1.0775 C 1.57367,1.08919 1.53365,1.05871 1.54546,1.05058 C 1.5344,1.06228 1.4944,1.03183 1.50619,1.0237 C 1.49517,1.03541 1.45519,1.00498 1.46696,0.996842 C 1.45597,1.00857 1.416,0.978166 1.42776,0.970021 C 1.4168,0.981761 1.37686,0.951383 1.38859,0.943233 C 1.37766,0.954986 1.33774,0.924633 1.34946,0.916477 C 1.33856,0.928243 1.29866,0.897915 1.31036,0.889753 C 1.29949,0.901533 1.25961,0.871229 1.27129,0.863062 C 1.26045,0.874856 1.22059,0.844576 1.23225,0.836403 C 1.22145,0.848211 1.1816,0.817955 1.19325,0.809777 C 1.18247,0.821598 1.14265,0.791366 1.15428,0.783182 C 1.14353,0.795017 1.10373,0.764809 1.11534,0.75662 C 1.10463,0.768468 1.06484,0.738284 1.07644,0.73009 C 1.06575,0.741951 1.02599,0.711792 1.03756,0.703592 C 1.02691,0.715467 0.987164,0.685331 0.998723,0.677126 C 0.988099,0.689014 0.948373,0.658902 0.959915,0.650692 C 0.949321,0.662593 0.909614,0.632505 0.921139,0.624289 C 0.910575,0.636204 0.870888,0.606139 0.882395,0.597918 C 0.871861,0.609846 0.832193,0.579805 0.843683,0.571579 C 0.833179,0.583521 0.79353,0.553503 0.805003,0.545272 C 0.794528,0.557226 0.754899,0.527233 0.766354,0.518996 C 0.75591,0.530964 0.7163,0.500993 0.727738,0.492752 C 0.717324,0.504733 0.677733,0.474786 0.689154,0.466538 C 0.678769,0.478533 0.639197,0.448609 0.650601,0.440357 C 0.640246,0.452364 0.600693,0.422464 0.61208,0.414206 C 0.601754,0.426227 0.562221,0.39635 0.573591,0.388087 C 0.563294,0.400121 0.52378,0.370267 0.535133,0.361999 C 0.524866,0.374046 0.48537,0.344215 0.496707,0.335942 C 0.486469,0.348002 0.446992,0.318194 0.458312,0.309916 C 0.448103,0.321989 0.408645,0.292204 0.419948,0.283921 C 0.409769,0.296007 0.370329,0.266245 0.381616,0.257957 C 0.371465,0.270056 0.332045,0.240317 0.343315,0.232023 C 0.333193,0.244135 0.293792,0.214419 0.305045,0.206121 C 0.294952,0.218245 0.255569,0.188552 0.266806,0.180249 C 0.256742,0.192387 0.217378,0.162716 0.228598,0.154408 C 0.218563,0.166558 0.179218,0.136911 0.190421,0.128597 C 0.180415,0.14076 0.141088,0.111135 0.152276,0.102817 C 0.142298,0.114993 0.10299,0.0853905 0.114161,0.0770672 C 0.104212,0.089256 0.0649216,0.0596761 0.0760763,0.0513478 C 0.0661563,0.0635494 0.0268844,0.033992 0.0380228,0.0256588 C 0.0281313,0.0378731 -0.0111222,0.00833814 0,0 Z" fill="#000" /></svg>