<?xml version="1.0" encoding="utf-8" ?>
<svg baseProfile="tiny" fill-rule="evenodd" height="7.357118926884141px" version="1.2" width="9.655954619229306px" xmlns="http://www.w3.org/2000/svg" xmlns:ev="http://www.w3.org/2001/xml-events" xmlns:xlink="http://www.w3.org/1999/xlink"><defs /><path d="M 8.9594,7.16904 C 8.96742,7.15998 9.11937,7.23603 9.1046,7.2232 C 9.1141,7.22633 9.22491,7.27165 9.22664,7.2649 C 9.23487,7.27092 9.32259,7.3033 9.33049,7.29969 C 9.33562,7.30689 9.40541,7.32991 9.41644,7.32473 C 9.4188,7.33252 9.47405,7.34791 9.48614,7.34207 C 9.48601,7.35034 9.52864,7.359 9.5414,7.35254 C 9.53911,7.36122 9.57074,7.36399 9.58397,7.35712 C 9.57978,7.36616 9.6018,7.36376 9.6154,7.35654 C 9.60957,7.36589 9.62317,7.35897 9.63708,7.35146 C 9.62982,7.36108 9.63606,7.35022 9.65025,7.34246 C 9.64173,7.35232 9.64154,7.33801 9.65595,7.33003 C 9.64635,7.3401 9.64054,7.32278 9.65515,7.31461 C 9.64459,7.32486 9.63387,7.30491 9.64864,7.29658 C 9.63726,7.30699 9.62225,7.28475 9.63716,7.27628 C 9.62507,7.28683 9.60631,7.26258 9.62134,7.25399 C 9.60862,7.26466 9.58659,7.23867 9.60172,7.22997 C 9.58846,7.24076 9.56358,7.21325 9.57879,7.20445 C 9.56506,7.21533 9.5377,7.1865 9.55296,7.17762 C 9.53884,7.18858 9.5093,7.1586 9.52462,7.14964 C 9.51015,7.16068 9.47871,7.1297 9.49408,7.12068 C 9.4793,7.13179 9.44622,7.09994 9.46162,7.09087 C 9.44659,7.10203 9.41207,7.06942 9.42748,7.0603 C 9.41223,7.07152 9.37646,7.03825 9.3919,7.02909 C 9.37646,7.04035 9.3396,7.00652 9.35504,6.99732 C 9.33944,7.00863 9.30163,6.97431 9.31708,6.96508 C 9.30135,6.97641 9.26271,6.94167 9.27817,6.93241 C 9.26232,6.94378 9.22297,6.90867 9.23841,6.89939 C 9.22247,6.91079 9.1825,6.87537 9.19794,6.86606 C 9.18192,6.87749 9.14141,6.8418 9.15684,6.83247 C 9.14076,6.84392 9.09978,6.808 9.11519,6.79866 C 9.09906,6.81013 9.05768,6.77401 9.07308,6.76466 C 9.0569,6.77615 9.01518,6.73987 9.03056,6.7305 C 9.01435,6.742 8.97233,6.70558 8.98769,6.69621 C 8.97146,6.70773 8.92918,6.67119 8.94452,6.66181 C 8.92828,6.67334 8.88577,6.63671 8.90109,6.62731 C 8.88484,6.63886 8.84215,6.60215 8.85744,6.59275 C 8.84119,6.6043 8.79834,6.56753 8.81361,6.55812 C 8.79736,6.56969 8.75437,6.53286 8.76961,6.52345 C 8.75337,6.53503 8.71027,6.49816 8.72549,6.48875 C 8.70925,6.50033 8.66606,6.46344 8.68125,6.45402 C 8.66503,6.46561 8.62175,6.4287 8.63692,6.41928 C 8.62071,6.43088 8.57737,6.39396 8.59251,6.38453 C 8.57632,6.39614 8.53293,6.35921 8.54804,6.34978 C 8.53188,6.3614 8.48845,6.32447 8.50353,6.31504 C 8.48738,6.32667 8.44392,6.28974 8.45897,6.28031 C 8.44286,6.29194 8.39937,6.25503 8.41439,6.2456 C 8.3983,6.25723 8.3548,6.22033 8.36979,6.2109 C 8.35373,6.22254 8.31022,6.18566 8.32518,6.17623 C 8.30915,6.18788 8.26564,6.15102 8.28057,6.14158 C 8.26456,6.15324 8.22105,6.1164 8.23595,6.10696 C 8.21998,6.11862 8.17647,6.08181 8.19135,6.07237 C 8.1754,6.08404 8.13191,6.04726 8.14675,6.03782 C 8.13083,6.04949 8.08735,6.01273 8.10216,6.0033 C 8.08628,6.01498 8.04282,5.97825 8.0576,5.96881 C 8.04175,5.9805 7.9983,5.9438 8.01305,5.93436 C 7.99723,5.94605 7.95381,5.90939 7.96853,5.89995 C 7.95274,5.91165 7.90934,5.87502 7.92403,5.86558 C 7.90828,5.87728 7.8649,5.84069 7.87956,5.83125 C 7.86384,5.84296 7.82049,5.8064 7.83512,5.79696 C 7.81943,5.80867 7.77611,5.77215 7.79071,5.76271 C 7.77505,5.77443 7.73175,5.73794 7.74632,5.72851 C 7.7307,5.74023 7.68744,5.70378 7.70198,5.69434 C 7.68639,5.70607 7.64315,5.66966 7.65766,5.66022 C 7.64211,5.67195 7.5989,5.63558 7.61338,5.62614 C 7.59786,5.63788 7.55468,5.60154 7.56913,5.59211 C 7.55365,5.60385 7.5105,5.56755 7.52492,5.55811 C 7.50947,5.56986 7.46636,5.5336 7.48075,5.52417 C 7.46533,5.53592 7.42225,5.4997 7.43661,5.49026 C 7.42123,5.50202 7.37818,5.46584 7.39251,5.4564 C 7.37716,5.46816 7.33414,5.43202 7.34844,5.42259 C 7.33313,5.43435 7.29015,5.39825 7.30442,5.38882 C 7.28914,5.40059 7.24619,5.36453 7.26043,5.35509 C 7.24518,5.36686 7.20227,5.33084 7.21648,5.32141 C 7.20127,5.33319 7.15838,5.2972 7.17257,5.28777 C 7.15739,5.29955 7.11454,5.26361 7.12869,5.25418 C 7.11355,5.26596 7.07073,5.23006 7.08486,5.22063 C 7.06975,5.23242 7.02696,5.19655 7.04106,5.18712 C 7.02598,5.19892 6.98323,5.16309 6.9973,5.15366 C 6.98226,5.16546 6.93954,5.12968 6.95358,5.12025 C 6.93857,5.13205 6.89589,5.09631 6.9099,5.08687 C 6.89492,5.09868 6.85228,5.06298 6.86625,5.05355 C 6.85131,5.06536 6.8087,5.02969 6.82265,5.02026 C 6.80774,5.03208 6.76516,4.99645 6.77908,4.98702 C 6.76421,4.99885 6.72166,4.96326 6.73556,4.95383 C 6.72072,4.96566 6.6782,4.93011 6.69207,4.92068 C 6.67726,4.93251 6.63478,4.897 6.64862,4.88757 C 6.63384,4.89941 6.5914,4.86394 6.6052,4.85451 C 6.59047,4.86635 6.54806,4.83092 6.56183,4.82149 C 6.54713,4.83334 6.50475,4.79794 6.5185,4.78852 C 6.50383,4.80037 6.46148,4.76501 6.4752,4.75559 C 6.46056,4.76744 6.41825,4.73212 6.43194,4.7227 C 6.41734,4.73456 6.37506,4.69928 6.38872,4.68985 C 6.37415,4.70172 6.33191,4.66648 6.34554,4.65705 C 6.331,4.66892 6.28879,4.63372 6.3024,4.6243 C 6.28789,4.63617 6.24572,4.60101 6.25929,4.59158 C 6.24482,4.60346 6.20268,4.56834 6.21623,4.55891 C 6.20179,4.5708 6.15968,4.53571 6.1732,4.52629 C 6.15879,4.53818 6.11671,4.50313 6.13021,4.4937 C 6.11584,4.5056 6.07379,4.47059 6.08726,4.46116 C 6.07292,4.47306 6.0309,4.43809 6.04434,4.42867 C 6.03003,4.44057 5.98805,4.40563 6.00146,4.39621 C 5.98719,4.40812 5.94524,4.37322 5.95863,4.3638 C 5.94438,4.37571 5.90247,4.34085 5.91582,4.33143 C 5.90161,4.34335 5.85973,4.30853 5.87306,4.29911 C 5.85888,4.31103 5.81703,4.27624 5.83033,4.26683 C 5.81619,4.27875 5.77437,4.244 5.78765,4.23458 C 5.77353,4.24652 5.73175,4.2118 5.74499,4.20239 C 5.73091,4.21432 5.68916,4.17965 5.70238,4.17023 C 5.68833,4.18217 5.64661,4.14753 5.6598,4.13812 C 5.64579,4.15006 5.6041,4.11546 5.61726,4.10605 C 5.60328,4.118 5.56163,4.08343 5.57476,4.07402 C 5.56081,4.08597 5.51919,4.05145 5.5323,4.04203 C 5.51838,4.05399 5.47679,4.0195 5.48987,4.01009 C 5.47598,4.02205 5.43442,3.9876 5.44748,3.97819 C 5.43362,3.99015 5.3921,3.95574 5.40512,3.94633 C 5.3913,3.9583 5.3498,3.92392 5.36281,3.91451 C 5.34902,3.92648 5.30755,3.89214 5.32053,3.88273 C 5.30677,3.89471 5.26533,3.86041 5.27828,3.851 C 5.26456,3.86298 5.22315,3.82871 5.23608,3.8193 C 5.22238,3.83129 5.18101,3.79706 5.19391,3.78765 C 5.18024,3.79965 5.1389,3.76545 5.15177,3.75604 C 5.13814,3.76804 5.09683,3.73388 5.10968,3.72447 C 5.09607,3.73648 5.0548,3.70235 5.06761,3.69294 C 5.05404,3.70495 5.0128,3.67086 5.02559,3.66146 C 5.01205,3.67347 4.97084,3.63942 4.9836,3.63001 C 4.97009,3.64203 4.92891,3.60801 4.94165,3.59861 C 4.92817,3.61063 4.88702,3.57665 4.89973,3.56724 C 4.88629,3.57927 4.84517,3.54533 4.85785,3.53592 C 4.84444,3.54795 4.80335,3.51404 4.81601,3.50464 C 4.80263,3.51668 4.76157,3.4828 4.7742,3.4734 C 4.76085,3.48544 4.71982,3.4516 4.73243,3.4422 C 4.71911,3.45425 4.67811,3.42044 4.69069,3.41104 C 4.6774,3.42309 4.63643,3.38932 4.64899,3.37992 C 4.63573,3.39198 4.59479,3.35824 4.60733,3.34884 C 4.5941,3.3609 4.55319,3.32721 4.5657,3.31781 C 4.5525,3.32987 4.51162,3.29621 4.5241,3.28681 C 4.51094,3.29888 4.47009,3.26525 4.48255,3.25585 C 4.46941,3.26792 4.42859,3.23433 4.44102,3.22493 C 4.42792,3.23701 4.38713,3.20346 4.39953,3.19406 C 4.38646,3.20614 4.3457,3.17262 4.35808,3.16322 C 4.34504,3.17531 4.30431,3.14182 4.31667,3.13242 C 4.30365,3.14452 4.26295,3.11106 4.27528,3.10167 C 4.2623,3.11376 4.22163,3.08035 4.23394,3.07095 C 4.22098,3.08305 4.18035,3.04967 4.19263,3.04027 C 4.1797,3.05238 4.13909,3.01903 4.15135,3.00964 C 4.13845,3.02174 4.09788,2.98843 4.11011,2.97904 C 4.09724,2.99115 4.05669,2.95787 4.0689,2.94848 C 4.05607,2.9606 4.01555,2.92735 4.02773,2.91796 C 4.01492,2.93008 3.97443,2.89687 3.98659,2.88748 C 3.97382,2.89961 3.93336,2.86643 3.94549,2.85704 C 3.93274,2.86917 3.89231,2.83603 3.90442,2.82664 C 3.8917,2.83878 3.8513,2.80567 3.86339,2.79628 C 3.8507,2.80842 3.81033,2.77534 3.82239,2.76595 C 3.80973,2.7781 3.76939,2.74506 3.78142,2.73567 C 3.7688,2.74782 3.72848,2.71481 3.74049,2.70543 C 3.7279,2.71758 3.68761,2.68461 3.69959,2.67522 C 3.68703,2.68738 3.64677,2.65444 3.65873,2.64505 C 3.6462,2.65722 3.60597,2.62431 3.6179,2.61493 C 3.6054,2.62709 3.5652,2.59422 3.57711,2.58484 C 3.56463,2.59701 3.52446,2.56417 3.53635,2.55479 C 3.5239,2.56696 3.48376,2.53416 3.49563,2.52477 C 3.48321,2.53696 3.44309,2.50418 3.45493,2.4948 C 3.44254,2.50699 3.40246,2.47425 3.41428,2.46486 C 3.40192,2.47706 3.36186,2.44435 3.37365,2.43497 C 3.36132,2.44716 3.32129,2.41449 3.33306,2.40511 C 3.32076,2.41731 3.28076,2.38467 3.2925,2.37529 C 3.28023,2.38749 3.24026,2.35489 3.25198,2.34551 C 3.23974,2.35772 3.19979,2.32514 3.21149,2.31576 C 3.19928,2.32798 3.15936,2.29543 3.17104,2.28606 C 3.15885,2.29827 3.11896,2.26576 3.13061,2.25639 C 3.11846,2.26861 3.0786,2.23613 3.09022,2.22676 C 3.07809,2.23898 3.03826,2.20654 3.04987,2.19716 C 3.03777,2.2094 2.99796,2.17698 3.00954,2.16761 C 2.99747,2.17985 2.9577,2.14747 2.96926,2.13809 C 2.95721,2.15033 2.91747,2.11799 2.929,2.10861 C 2.91698,2.12086 2.87727,2.08854 2.88878,2.07917 C 2.87679,2.09142 2.8371,2.05914 2.84859,2.04977 C 2.83663,2.06202 2.79696,2.02977 2.80843,2.0204 C 2.7965,2.03266 2.75686,2.00044 2.7683,1.99107 C 2.7564,2.00333 2.71679,1.97115 2.72821,1.96178 C 2.71634,1.97404 2.67676,1.94189 2.68815,1.93252 C 2.67631,1.94479 2.63675,1.91267 2.64813,1.9033 C 2.63631,1.91558 2.59678,1.88349 2.60813,1.87412 C 2.59635,1.8864 2.55685,1.85434 2.56817,1.84498 C 2.55641,1.85726 2.51694,1.82524 2.52824,1.81587 C 2.51651,1.82816 2.47707,1.79616 2.48835,1.7868 C 2.47664,1.79909 2.43723,1.76713 2.44848,1.75777 C 2.43681,1.77006 2.39742,1.73813 2.40865,1.72877 C 2.39701,1.74107 2.35764,1.70917 2.36885,1.69981 C 2.35723,1.71212 2.3179,1.68025 2.32909,1.67088 C 2.3175,1.6832 2.27818,1.65136 2.28935,1.642 C 2.27779,1.65431 2.2385,1.62251 2.24965,1.61315 C 2.23811,1.62547 2.19886,1.59369 2.20998,1.58433 C 2.19847,1.59666 2.15924,1.56491 2.17034,1.55555 C 2.15886,1.56788 2.11966,1.53617 2.13074,1.52681 C 2.11928,1.53915 2.0801,1.50746 2.09116,1.49811 C 2.07974,1.51045 2.04058,1.47879 2.05162,1.46944 C 2.04022,1.48178 2.0011,1.45016 2.01211,1.4408 C 2.00074,1.45315 1.96164,1.42156 1.97263,1.41221 C 1.96129,1.42456 1.92221,1.393 1.93318,1.38364 C 1.92187,1.396 1.88282,1.36447 1.89377,1.35512 C 1.88248,1.36748 1.84346,1.33598 1.85438,1.32663 C 1.84312,1.339 1.80413,1.30753 1.81503,1.29818 C 1.8038,1.31055 1.76483,1.27911 1.77571,1.26976 C 1.7645,1.28213 1.72556,1.25073 1.73642,1.24137 C 1.72524,1.25375 1.68632,1.22238 1.69716,1.21303 C 1.68601,1.22541 1.64712,1.19407 1.65794,1.18472 C 1.64681,1.1971 1.60794,1.16579 1.61874,1.15644 C 1.60764,1.16883 1.5688,1.13755 1.57958,1.1282 C 1.5685,1.14059 1.52969,1.10934 1.54044,1.09999 C 1.5294,1.11239 1.49061,1.08117 1.50134,1.07182 C 1.49032,1.08423 1.45156,1.05303 1.46227,1.04369 C 1.45128,1.0561 1.41254,1.02493 1.42323,1.01559 C 1.41226,1.028 1.37355,0.996867 1.38422,0.987522 C 1.37328,0.999941 1.33459,0.968836 1.34524,0.959492 C 1.33433,0.971915 1.29566,0.94084 1.30629,0.931496 C 1.29541,0.943924 1.25677,0.912879 1.26738,0.903536 C 1.25651,0.915968 1.2179,0.884953 1.22849,0.875611 C 1.21765,0.888047 1.17907,0.857061 1.18963,0.84772 C 1.17882,0.860161 1.14026,0.829204 1.15081,0.819864 C 1.14003,0.832309 1.10149,0.801382 1.11201,0.792042 C 1.10126,0.804492 1.06275,0.773594 1.07325,0.764255 C 1.06252,0.776709 1.02403,0.745841 1.03451,0.736503 C 1.02381,0.748961 0.98535,0.718122 0.995811,0.708785 C 0.985134,0.721248 0.946697,0.690438 0.957138,0.681101 C 0.946487,0.693568 0.908075,0.662788 0.918495,0.653452 C 0.90787,0.665923 0.869482,0.635172 0.879882,0.625837 C 0.869283,0.638313 0.83092,0.60759 0.8413,0.598256 C 0.830726,0.610736 0.792388,0.580042 0.802747,0.570709 C 0.7922,0.583194 0.753886,0.552529 0.764225,0.543196 C 0.753703,0.555685 0.715414,0.525049 0.725732,0.515718 C 0.715236,0.528211 0.676971,0.497604 0.68727,0.488273 C 0.676799,0.50077 0.638559,0.470192 0.648837,0.460862 C 0.638392,0.473364 0.600176,0.442814 0.610434,0.433485 C 0.600015,0.445991 0.561823,0.41547 0.572061,0.406141 C 0.561668,0.418652 0.523499,0.388159 0.533717,0.378831 C 0.52335,0.391346 0.485206,0.360882 0.495404,0.351555 C 0.485061,0.364075 0.446942,0.333639 0.457119,0.324313 C 0.446803,0.336837 0.408707,0.306429 0.418865,0.297104 C 0.408573,0.309632 0.370502,0.279253 0.38064,0.269928 C 0.370374,0.282461 0.332326,0.25211 0.342444,0.242786 C 0.332203,0.255323 0.294179,0.225 0.304278,0.215677 C 0.294062,0.228218 0.256062,0.197924 0.266141,0.188602 C 0.255951,0.201147 0.217974,0.170881 0.228033,0.16156 C 0.217868,0.174109 0.179916,0.143871 0.189955,0.13455 C 0.179815,0.147104 0.141886,0.116894 0.151906,0.107574 C 0.141791,0.120133 0.103885,0.0899502 0.113886,0.0806314 C 0.103796,0.0931939 0.065914,0.0630394 0.0758948,0.0537214 C 0.0658302,0.0662882 0.0279716,0.0361614 0.0379329,0.0268443 C 0.0278933,0.0394154 -0.00994191,0.00931635 0,0 Z" fill="#000" /></svg>