<?xml version="1.0" encoding="utf-8" ?>
<svg baseProfile="tiny" fill-rule="evenodd" height="1.9021268088836223px" version="1.2" width="1.9337284332432318px" xmlns="http://www.w3.org/2000/svg" xmlns:ev="http://www.w3.org/2001/xml-events" xmlns:xlink="http://www.w3.org/1999/xlink"><defs /><path d="M -0.179078,-0.0905482 C -0.160467,-0.118154 0.044866,-0.00528674 0,0 C 0.0231456,-0.0180453 0.193642,0.0743584 0.169458,0.0857316 C 0.192453,0.0710775 0.343113,0.153063 0.329216,0.165352 C 0.35039,0.152208 0.486545,0.226574 0.47704,0.237633 C 0.496276,0.225394 0.620477,0.293039 0.612777,0.303554 C 0.630134,0.292019 0.743616,0.353451 0.736954,0.363648 C 0.752549,0.352727 0.856195,0.408401 0.850292,0.418385 C 0.864248,0.408026 0.958785,0.458364 0.953531,0.46816 C 0.96597,0.458328 1.05206,0.503724 1.04739,0.51334 C 1.05843,0.504004 1.13668,0.544827 1.13254,0.55427 C 1.14229,0.545402 1.21329,0.581999 1.20964,0.591272 C 1.2182,0.582848 1.28249,0.615541 1.2793,0.624649 C 1.28678,0.616646 1.34487,0.645726 1.34207,0.654718 C 1.34858,0.647117 1.40096,0.672853 1.39851,0.681771 C 1.40412,0.67455 1.45124,0.697204 1.44912,0.70605 C 1.4539,0.699189 1.49618,0.719008 1.49435,0.727781 C 1.49838,0.72126 1.5362,0.738475 1.53464,0.747172 C 1.53799,0.740975 1.57171,0.755798 1.57039,0.764419 C 1.57312,0.758529 1.60308,0.771157 1.60197,0.779701 C 1.60414,0.774102 1.63065,0.784718 1.62973,0.793184 C 1.63138,0.787863 1.65474,0.796637 1.65399,0.805024 C 1.65518,0.799967 1.67564,0.807054 1.67504,0.815362 C 1.67581,0.810556 1.69362,0.816103 1.69315,0.824331 C 1.69354,0.819765 1.70894,0.823903 1.70859,0.832052 C 1.70863,0.827714 1.72183,0.830567 1.72157,0.838636 C 1.72131,0.834517 1.73249,0.836198 1.73232,0.844187 C 1.73178,0.840278 1.74112,0.840891 1.74102,0.8488 C 1.74024,0.845091 1.74791,0.844733 1.74787,0.852562 C 1.74686,0.849045 1.75303,0.847804 1.75303,0.855554 C 1.75183,0.852222 1.75661,0.850179 1.75665,0.85785 C 1.75527,0.854695 1.75881,0.851926 1.75888,0.859518 C 1.75735,0.856533 1.75975,0.853106 1.75984,0.86062 C 1.75817,0.857799 1.75955,0.853777 1.75965,0.861213 C 1.75787,0.85855 1.75833,0.853993 1.75842,0.861351 C 1.75654,0.858841 1.75617,0.8538 1.75626,0.861081 C 1.75429,0.858719 1.75318,0.853244 1.75326,0.860448 C 1.75121,0.858229 1.74943,0.852365 1.74949,0.859493 C 1.74739,0.857413 1.745,0.851201 1.74505,0.858254 C 1.74289,0.856307 1.73997,0.849785 1.73999,0.856763 C 1.73779,0.854947 1.7344,0.84815 1.73439,0.855054 C 1.73216,0.853364 1.72835,0.846324 1.7283,0.853154 C 1.72605,0.851588 1.72187,0.844333 1.72178,0.85109 C 1.71952,0.849644 1.71502,0.842202 1.71489,0.848887 C 1.71261,0.847557 1.70784,0.839953 1.70766,0.846566 C 1.70538,0.84535 1.70037,0.837606 1.70014,0.844148 C 1.69787,0.843043 1.69265,0.83518 1.69237,0.841651 C 1.6901,0.840655 1.68471,0.832691 1.68438,0.839092 C 1.68213,0.838202 1.6766,0.830155 1.67621,0.836487 C 1.67398,0.835701 1.66833,0.827587 1.66788,0.83385 C 1.66568,0.833166 1.65994,0.825 1.65943,0.831195 C 1.65725,0.830611 1.65144,0.822405 1.65088,0.828532 C 1.64873,0.828046 1.64287,0.819813 1.64225,0.825874 C 1.64013,0.825483 1.63425,0.817234 1.63356,0.823229 C 1.63148,0.822933 1.62559,0.814678 1.62483,0.820608 C 1.62279,0.820403 1.6169,0.812153 1.61609,0.818017 C 1.61408,0.817904 1.60822,0.809665 1.60733,0.815465 C 1.60537,0.815441 1.59954,0.807222 1.59859,0.812959 C 1.59667,0.813023 1.59089,0.804831 1.58987,0.810505 C 1.58799,0.810655 1.58227,0.802497 1.58119,0.808108 C 1.57935,0.808343 1.5737,0.800225 1.57255,0.805774 C 1.57076,0.806093 1.56519,0.79802 1.56397,0.803508 C 1.56223,0.803909 1.55674,0.795885 1.55545,0.801313 C 1.55376,0.801796 1.54837,0.793826 1.54701,0.799194 C 1.54537,0.799757 1.54008,0.791845 1.53865,0.797154 C 1.53706,0.797795 1.53187,0.789946 1.53037,0.795196 C 1.52884,0.795915 1.52376,0.788132 1.52219,0.793323 C 1.52071,0.79412 1.51576,0.786404 1.51412,0.791538 C 1.51268,0.79241 1.50785,0.784766 1.50614,0.789843 C 1.50476,0.79079 1.50006,0.783219 1.49828,0.788239 C 1.49695,0.78926 1.49238,0.781765 1.49053,0.78673 C 1.48926,0.787824 1.48482,0.780407 1.4829,0.785315 C 1.48168,0.786482 1.47738,0.779144 1.47539,0.783998 C 1.47422,0.785235 1.47006,0.777979 1.468,0.782779 C 1.46689,0.784087 1.46287,0.776913 1.46074,0.781659 C 1.45968,0.783036 1.45581,0.775946 1.45361,0.780639 C 1.45261,0.782085 1.44888,0.77508 1.44661,0.77972 C 1.44566,0.781234 1.44209,0.774315 1.43975,0.778903 C 1.43885,0.780484 1.43542,0.773652 1.43301,0.778188 C 1.43217,0.779836 1.4289,0.773091 1.42642,0.777576 C 1.42563,0.77929 1.42251,0.772633 1.41996,0.777068 C 1.41922,0.778846 1.41625,0.772279 1.41364,0.776662 C 1.41295,0.778505 1.41014,0.772027 1.40746,0.776361 C 1.40682,0.778268 1.40416,0.771879 1.40141,0.776164 C 1.40083,0.778133 1.39833,0.771834 1.39551,0.776071 C 1.39498,0.778102 1.39263,0.771894 1.38975,0.776082 C 1.38927,0.778175 1.38708,0.772056 1.38412,0.776197 C 1.3837,0.778351 1.38167,0.772323 1.37864,0.776416 C 1.37827,0.77863 1.37639,0.772693 1.3733,0.776739 C 1.37298,0.779013 1.37126,0.773166 1.3681,0.777166 C 1.36783,0.779499 1.36627,0.773742 1.36305,0.777696 C 1.36283,0.780088 1.36142,0.774422 1.35813,0.77833 C 1.35796,0.78078 1.35671,0.775204 1.35335,0.779067 C 1.35323,0.781574 1.35214,0.776088 1.34872,0.779907 C 1.34865,0.782471 1.34771,0.777075 1.34422,0.78085 C 1.3442,0.78347 1.34341,0.778163 1.33986,0.781894 C 1.33989,0.78457 1.33926,0.779353 1.33565,0.783041 C 1.33572,0.785772 1.33525,0.780644 1.33157,0.784289 C 1.33169,0.787074 1.33137,0.782035 1.32763,0.785638 C 1.3278,0.788478 1.32763,0.783527 1.32382,0.787088 C 1.32404,0.789981 1.32403,0.785119 1.32016,0.788638 C 1.32043,0.791584 1.32056,0.78681 1.31663,0.790288 C 1.31694,0.793286 1.31723,0.7886 1.31324,0.792037 C 1.3136,0.795088 1.31404,0.790488 1.30998,0.793886 C 1.31038,0.796987 1.31098,0.792475 1.30685,0.795832 C 1.30731,0.798985 1.30805,0.794559 1.30386,0.797877 C 1.30436,0.80108 1.30525,0.796741 1.30101,0.800019 C 1.30155,0.803273 1.30259,0.799019 1.29828,0.802259 C 1.29887,0.805561 1.30006,0.801393 1.29569,0.804595 C 1.29632,0.807946 1.29766,0.803863 1.29323,0.807027 C 1.2939,0.810427 1.29538,0.806428 1.2909,0.809554 C 1.29161,0.813002 1.29324,0.809088 1.28869,0.812177 C 1.28945,0.815673 1.29123,0.811842 1.28662,0.814894 C 1.28742,0.818437 1.28934,0.814689 1.28467,0.817705 C 1.28552,0.821295 1.28758,0.81763 1.28285,0.820609 C 1.28374,0.824246 1.28595,0.820663 1.28116,0.823607 C 1.28209,0.827289 1.28444,0.823789 1.27959,0.826697 C 1.28057,0.830425 1.28305,0.827006 1.27815,0.829879 C 1.27916,0.833652 1.28179,0.830315 1.27683,0.833153 C 1.27789,0.83697 1.28066,0.833714 1.27564,0.836518 C 1.27673,0.840379 1.27964,0.837203 1.27456,0.839973 C 1.2757,0.843878 1.27875,0.840782 1.27361,0.843518 C 1.27479,0.847467 1.27797,0.84445 1.27278,0.847153 C 1.274,0.851144 1.27732,0.848206 1.27207,0.850876 C 1.27332,0.85491 1.27678,0.852051 1.27148,0.854688 C 1.27277,0.858764 1.27636,0.855983 1.27101,0.858588 C 1.27234,0.862706 1.27606,0.860003 1.27065,0.862576 C 1.27202,0.866735 1.27588,0.864109 1.27041,0.86665 C 1.27182,0.87085 1.27581,0.868301 1.27029,0.870811 C 1.27173,0.875052 1.27586,0.872579 1.27028,0.875057 C 1.27176,0.879339 1.27602,0.876942 1.27039,0.87939 C 1.27191,0.883711 1.2763,0.88139 1.27061,0.883807 C 1.27216,0.888168 1.27669,0.885921 1.27094,0.888309 C 1.27253,0.892708 1.27719,0.890537 1.27139,0.892895 C 1.27302,0.897333 1.2778,0.895236 1.27195,0.897564 C 1.27361,0.902041 1.27852,0.900018 1.27261,0.902316 C 1.27431,0.906831 1.27935,0.904882 1.27339,0.907151 C 1.27513,0.911704 1.28029,0.909827 1.27428,0.912068 C 1.27605,0.916658 1.28134,0.914855 1.27528,0.917067 C 1.27708,0.921694 1.28249,0.919963 1.27638,0.922147 C 1.27822,0.926811 1.28376,0.925151 1.27759,0.927308 C 1.27946,0.932008 1.28513,0.93042 1.27891,0.932549 C 1.28082,0.937285 1.2866,0.935768 1.28033,0.93787 C 1.28227,0.942641 1.28818,0.941195 1.28186,0.94327 C 1.28383,0.948077 1.28986,0.946701 1.28349,0.948749 C 1.2855,0.953591 1.29165,0.952285 1.28523,0.954307 C 1.28727,0.959183 1.29354,0.957947 1.28707,0.959942 C 1.28914,0.964853 1.29553,0.963686 1.28901,0.965656 C 1.29111,0.970601 1.29763,0.969502 1.29106,0.971446 C 1.29319,0.976425 1.29982,0.975394 1.2932,0.977313 C 1.29536,0.982325 1.30211,0.981363 1.29544,0.983257 C 1.29764,0.988302 1.30451,0.987407 1.29779,0.989276 C 1.30002,0.994354 1.307,0.993526 1.30023,0.995371 C 1.30249,1.00048 1.30959,0.999721 1.30277,1.00154 C 1.30506,1.00668 1.31227,1.00599 1.30541,1.00779 C 1.30773,1.01296 1.31506,1.01233 1.30815,1.0141 C 1.3105,1.01931 1.31794,1.01875 1.31098,1.0205 C 1.31336,1.02573 1.32091,1.02524 1.3139,1.02696 C 1.31631,1.03223 1.32398,1.0318 1.31693,1.0335 C 1.31937,1.0388 1.32715,1.03843 1.32005,1.04011 C 1.32251,1.04544 1.33041,1.04514 1.32326,1.0468 C 1.32575,1.05216 1.33376,1.05192 1.32656,1.05355 C 1.32909,1.05894 1.3372,1.05877 1.32996,1.06038 C 1.33251,1.0658 1.34074,1.06569 1.33345,1.06728 C 1.33603,1.07273 1.34436,1.07268 1.33703,1.07425 C 1.33964,1.07972 1.34808,1.07974 1.3407,1.08128 C 1.34334,1.08679 1.35189,1.08687 1.34446,1.08839 C 1.34713,1.09393 1.35579,1.09407 1.34831,1.09557 C 1.35101,1.10113 1.35977,1.10133 1.35226,1.10282 C 1.35498,1.10841 1.36385,1.10867 1.35629,1.11013 C 1.35903,1.11575 1.36801,1.11608 1.3604,1.11752 C 1.36318,1.12317 1.37226,1.12355 1.36461,1.12497 C 1.36741,1.13065 1.3766,1.13109 1.3689,1.13249 C 1.37173,1.13819 1.38102,1.1387 1.37328,1.14008 C 1.37613,1.14581 1.38553,1.14637 1.37774,1.14773 C 1.38062,1.15349 1.39012,1.15411 1.38229,1.15546 C 1.3852,1.16124 1.3948,1.16192 1.38693,1.16324 C 1.38986,1.16905 1.39956,1.16979 1.39165,1.1711 C 1.3946,1.17693 1.40441,1.17773 1.39645,1.17901 C 1.39943,1.18487 1.40934,1.18573 1.40134,1.187 C 1.40434,1.19288 1.41435,1.1938 1.40631,1.19505 C 1.40934,1.20096 1.41944,1.20193 1.41136,1.20316 C 1.41441,1.2091 1.42462,1.21013 1.41649,1.21134 C 1.41957,1.2173 1.42987,1.21838 1.42171,1.21958 C 1.42481,1.22556 1.43521,1.22671 1.427,1.22789 C 1.43013,1.23389 1.44063,1.23509 1.43238,1.23626 C 1.43553,1.24229 1.44612,1.24354 1.43783,1.24469 C 1.44101,1.25074 1.4517,1.25205 1.44337,1.25318 C 1.44656,1.25926 1.45735,1.26063 1.44898,1.26174 C 1.4522,1.26784 1.46309,1.26926 1.45467,1.27036 C 1.45792,1.27648 1.4689,1.27796 1.46044,1.27904 C 1.46371,1.28518 1.47478,1.28672 1.46629,1.28778 C 1.46958,1.29395 1.48075,1.29553 1.47221,1.29658 C 1.47553,1.30277 1.48679,1.30441 1.47822,1.30544 C 1.48155,1.31166 1.4929,1.31335 1.48429,1.31437 C 1.48765,1.3206 1.4991,1.32235 1.49044,1.32335 C 1.49382,1.32961 1.50536,1.33141 1.49667,1.33239 C 1.50007,1.33867 1.5117,1.34053 1.50297,1.3415 C 1.5064,1.3478 1.51812,1.3497 1.50935,1.35066 C 1.51279,1.35698 1.52461,1.35894 1.5158,1.35988 C 1.51927,1.36622 1.53117,1.36824 1.52233,1.36916 C 1.52581,1.37552 1.53781,1.37759 1.52892,1.3785 C 1.53243,1.38488 1.54451,1.387 1.53559,1.38789 C 1.53912,1.3943 1.55129,1.39647 1.54233,1.39735 C 1.54588,1.40377 1.55815,1.40599 1.54915,1.40686 C 1.55272,1.4133 1.56507,1.41558 1.55603,1.41643 C 1.55962,1.42289 1.57206,1.42521 1.56299,1.42605 C 1.5666,1.43254 1.57913,1.43491 1.57002,1.43574 C 1.57365,1.44224 1.58626,1.44466 1.57711,1.44548 C 1.58076,1.452 1.59346,1.45447 1.58428,1.45527 C 1.58795,1.46181 1.60074,1.46434 1.59152,1.46512 C 1.5952,1.47168 1.60808,1.47425 1.59882,1.47503 C 1.60253,1.48161 1.61549,1.48423 1.60619,1.48499 C 1.60992,1.49159 1.62296,1.49426 1.61364,1.49501 C 1.61738,1.50162 1.63051,1.50434 1.62115,1.50508 C 1.62491,1.51171 1.63812,1.51448 1.62872,1.5152 C 1.63251,1.52186 1.6458,1.52467 1.63637,1.52539 C 1.64017,1.53206 1.65355,1.53492 1.64408,1.53562 C 1.6479,1.54231 1.66136,1.54522 1.65186,1.54591 C 1.6557,1.55261 1.66924,1.55558 1.6597,1.55625 C 1.66356,1.56297 1.67718,1.56598 1.66761,1.56665 C 1.67149,1.57339 1.68519,1.57644 1.67558,1.57709 C 1.67948,1.58385 1.69327,1.58696 1.68362,1.5876 C 1.68753,1.59437 1.7014,1.59752 1.69172,1.59815 C 1.69566,1.60494 1.70961,1.60814 1.69989,1.60876 C 1.70384,1.61556 1.71787,1.61881 1.70812,1.61941 C 1.71209,1.62624 1.7262,1.62953 1.71642,1.63012 C 1.7204,1.63696 1.73459,1.6403 1.72478,1.64089 C 1.72878,1.64774 1.74305,1.65112 1.7332,1.6517 C 1.73722,1.65857 1.75157,1.662 1.74168,1.66256 C 1.74572,1.66945 1.76015,1.67292 1.75023,1.67348 C 1.75428,1.68038 1.76879,1.6839 1.75884,1.68444 C 1.76291,1.69136 1.77749,1.69493 1.76751,1.69546 C 1.77159,1.70239 1.78625,1.706 1.77624,1.70653 C 1.78034,1.71348 1.79508,1.71713 1.78503,1.71764 C 1.78915,1.72461 1.80396,1.7283 1.79388,1.72881 C 1.79802,1.73579 1.81291,1.73953 1.80279,1.74002 C 1.80695,1.74702 1.82191,1.7508 1.81177,1.75129 C 1.81594,1.7583 1.83098,1.76213 1.8208,1.7626 C 1.82499,1.76963 1.8401,1.7735 1.82989,1.77397 C 1.83409,1.781 1.84928,1.78492 1.83904,1.78538 C 1.84326,1.79243 1.85852,1.79639 1.84825,1.79684 C 1.85248,1.8039 1.86782,1.80791 1.85752,1.80835 C 1.86177,1.81543 1.87718,1.81947 1.86684,1.8199 C 1.87111,1.827 1.88659,1.83108 1.87623,1.83151 C 1.88051,1.83861 1.89607,1.84274 1.88567,1.84316 C 1.88997,1.85028 1.90559,1.85445 1.89517,1.85486 C 1.89948,1.86199 1.91518,1.86621 1.90472,1.86661 C 1.90905,1.87375 1.92482,1.87801 1.91434,1.8784 C 1.91868,1.88556 1.93452,1.88986 1.924,1.89024 C 1.92836,1.89741 1.94428,1.90175 1.93373,1.90213 Z" fill="#000" /></svg>