<?xml version="1.0" encoding="utf-8" ?>
<svg baseProfile="tiny" fill-rule="evenodd" height="2.5468792386818677px" version="1.2" width="2.6256734963099007px" xmlns="http://www.w3.org/2000/svg" xmlns:ev="http://www.w3.org/2001/xml-events" xmlns:xlink="http://www.w3.org/1999/xlink"><defs /><path d="M -0.152001,-0.0748874 C -0.134187,-0.094016 0.0225699,-0.00137657 0,0 C 0.0209208,-0.0121289 0.153555,0.0661971 0.141489,0.0720401 C 0.162548,0.0625423 0.280723,0.132825 0.275432,0.14014 C 0.295243,0.131727 0.403038,0.196392 0.400729,0.203182 C 0.419118,0.195397 0.51832,0.255197 0.517243,0.261624 C 0.534246,0.254336 0.625679,0.309619 0.62529,0.315808 C 0.640991,0.308964 0.725227,0.360012 0.725335,0.366049 C 0.739817,0.359618 0.817332,0.406699 0.81786,0.41261 C 0.831204,0.40657 0.902433,0.449937 0.903337,0.455734 C 0.915619,0.450064 0.980971,0.489959 0.982217,0.495647 C 0.993509,0.490328 1.05337,0.526979 1.05493,0.532561 C 1.0653,0.527576 1.12003,0.561197 1.12187,0.566678 C 1.13138,0.56201 1.18133,0.592805 1.18343,0.598188 C 1.19215,0.593821 1.23764,0.621981 1.23997,0.627269 C 1.24794,0.623188 1.28929,0.648893 1.29182,0.654089 C 1.29911,0.650281 1.3366,0.673699 1.33932,0.678806 C 1.34597,0.675258 1.37987,0.696548 1.38275,0.70157 C 1.38882,0.698269 1.41938,0.717579 1.4224,0.722518 C 1.42793,0.719453 1.4554,0.736923 1.45855,0.741782 C 1.46357,0.738941 1.48817,0.754702 1.49142,0.759483 C 1.49598,0.756857 1.51792,0.771031 1.52127,0.775737 C 1.5254,0.773316 1.54488,0.786016 1.54831,0.79065 C 1.55204,0.788424 1.56925,0.799758 1.57273,0.804327 C 1.57612,0.80229 1.59122,0.812348 1.59475,0.816882 C 1.5978,0.815025 1.61096,0.823899 1.61452,0.828401 C 1.61728,0.826717 1.62865,0.834495 1.63223,0.838966 C 1.63471,0.837447 1.64443,0.844211 1.64802,0.84865 C 1.65025,0.84729 1.65845,0.853116 1.66204,0.857523 C 1.66404,0.856315 1.67085,0.861275 1.67442,0.865649 C 1.67622,0.864588 1.68174,0.868748 1.68529,0.87309 C 1.68691,0.87217 1.69124,0.875592 1.69478,0.879902 C 1.69622,0.879117 1.69947,0.881858 1.70297,0.886136 C 1.70426,0.885482 1.70653,0.887597 1.70999,0.891843 C 1.71114,0.891314 1.7125,0.892852 1.71592,0.897066 C 1.71694,0.896659 1.71748,0.897667 1.72085,0.901849 C 1.72175,0.90156 1.72154,0.902081 1.72486,0.906231 C 1.72566,0.906055 1.72477,0.906129 1.72803,0.910247 C 1.72874,0.910181 1.72723,0.909847 1.73043,0.913933 C 1.73106,0.913974 1.72899,0.913265 1.73212,0.91732 C 1.73269,0.917463 1.73011,0.916413 1.73317,0.920436 C 1.73368,0.92068 1.73064,0.919318 1.73363,0.92331 C 1.73409,0.923651 1.73065,0.922006 1.73356,0.925966 C 1.73397,0.926402 1.73017,0.924499 1.733,0.928428 C 1.73337,0.928957 1.72925,0.926821 1.732,0.930718 C 1.73235,0.931336 1.72794,0.92899 1.73061,0.932856 C 1.73093,0.933562 1.72628,0.931025 1.72886,0.934861 C 1.72916,0.935652 1.72429,0.932945 1.72679,0.936751 C 1.72707,0.937625 1.72202,0.934765 1.72443,0.93854 C 1.7247,0.939496 1.7195,0.936501 1.72181,0.940245 C 1.72208,0.941281 1.71675,0.938165 1.71897,0.94188 C 1.71924,0.942993 1.7138,0.939772 1.71593,0.943456 C 1.71621,0.944646 1.71068,0.941332 1.71271,0.944987 C 1.713,0.946252 1.7074,0.942858 1.70935,0.946483 C 1.70964,0.947821 1.704,0.944359 1.70585,0.947954 C 1.70616,0.949364 1.7005,0.945845 1.70225,0.94941 C 1.70257,0.950891 1.6969,0.947324 1.69855,0.95086 C 1.6989,0.952411 1.69323,0.948805 1.69478,0.952312 C 1.69515,0.953931 1.6895,0.950295 1.69096,0.953773 C 1.69135,0.955459 1.68573,0.951801 1.68709,0.95525 C 1.68751,0.957003 1.68193,0.95333 1.68319,0.956751 C 1.68364,0.958568 1.67812,0.954887 1.67928,0.958279 C 1.67975,0.960161 1.6743,0.956478 1.67537,0.959842 C 1.67587,0.961787 1.67049,0.958108 1.67146,0.961444 C 1.67199,0.963451 1.66669,0.959782 1.66756,0.96309 C 1.66813,0.965159 1.66293,0.961504 1.6637,0.964784 C 1.6643,0.966913 1.65919,0.963277 1.65986,0.96653 C 1.6605,0.968719 1.6555,0.965106 1.65607,0.968332 C 1.65675,0.97058 1.65186,0.966994 1.65233,0.970192 C 1.65304,0.972498 1.64827,0.968944 1.64865,0.972115 C 1.6494,0.974479 1.64475,0.970959 1.64503,0.974103 C 1.64582,0.976523 1.64129,0.973041 1.64147,0.976158 C 1.6423,0.978635 1.63791,0.975192 1.63799,0.978283 C 1.63886,0.980815 1.63461,0.977416 1.63459,0.98048 C 1.6355,0.983067 1.63139,0.979713 1.63128,0.982751 C 1.63223,0.985392 1.62825,0.982086 1.62805,0.985097 C 1.62904,0.987793 1.62521,0.984536 1.62491,0.987521 C 1.62594,0.99027 1.62226,0.987064 1.62186,0.990024 C 1.62294,0.992825 1.6194,0.989673 1.61891,0.992606 C 1.62003,0.99546 1.61665,0.992362 1.61606,0.99527 C 1.61723,0.998176 1.614,0.995134 1.61332,0.998017 C 1.61452,1.00097 1.61145,0.997989 1.61068,1.00085 C 1.61192,1.00385 1.60901,1.00093 1.60814,1.00376 C 1.60943,1.00682 1.60668,1.00395 1.60572,1.00676 C 1.60705,1.00987 1.60446,1.00706 1.60341,1.00984 C 1.60478,1.013 1.60235,1.01026 1.60121,1.01302 C 1.60263,1.01622 1.60035,1.01354 1.59912,1.01627 C 1.60058,1.01953 1.59847,1.01691 1.59715,1.01962 C 1.59865,1.02292 1.59671,1.02037 1.59529,1.02305 C 1.59684,1.0264 1.59506,1.02391 1.59355,1.02657 C 1.59515,1.02997 1.59353,1.02754 1.59193,1.03018 C 1.59357,1.03362 1.59212,1.03126 1.59043,1.03388 C 1.59211,1.03736 1.59082,1.03507 1.58905,1.03766 C 1.59077,1.0412 1.58965,1.03897 1.58779,1.04153 C 1.58955,1.04511 1.58859,1.04295 1.58664,1.0455 C 1.58845,1.04912 1.58766,1.04703 1.58562,1.04955 C 1.58747,1.05322 1.58684,1.05119 1.58472,1.05369 C 1.58661,1.0574 1.58615,1.05544 1.58394,1.05791 C 1.58588,1.06167 1.58557,1.05978 1.58328,1.06223 C 1.58526,1.06603 1.58512,1.0642 1.58275,1.06663 C 1.58477,1.07048 1.58479,1.06872 1.58233,1.07113 C 1.58439,1.07502 1.58458,1.07332 1.58204,1.07571 C 1.58414,1.07964 1.58449,1.07801 1.58186,1.08038 C 1.58401,1.08435 1.58452,1.08279 1.58181,1.08513 C 1.584,1.08915 1.58467,1.08766 1.58188,1.08997 C 1.58411,1.09403 1.58494,1.09261 1.58207,1.0949 C 1.58434,1.09901 1.58533,1.09765 1.58238,1.09992 C 1.58469,1.10406 1.58584,1.10277 1.58281,1.10503 C 1.58516,1.10921 1.58647,1.10798 1.58336,1.11022 C 1.58575,1.11444 1.58722,1.11328 1.58403,1.11549 C 1.58646,1.11976 1.58809,1.11866 1.58482,1.12085 C 1.58729,1.12516 1.58908,1.12413 1.58573,1.1263 C 1.58824,1.13064 1.59018,1.12969 1.58675,1.13183 C 1.5893,1.13622 1.5914,1.13532 1.5879,1.13745 C 1.59048,1.14187 1.59274,1.14104 1.58916,1.14315 C 1.59179,1.14761 1.5942,1.14685 1.59054,1.14894 C 1.5932,1.15343 1.59577,1.15274 1.59203,1.1548 C 1.59474,1.15934 1.59745,1.15871 1.59364,1.16076 C 1.59639,1.16533 1.59926,1.16477 1.59537,1.16679 C 1.59815,1.1714 1.60117,1.1709 1.59721,1.17291 C 1.60003,1.17756 1.6032,1.17712 1.59917,1.17911 C 1.60202,1.18379 1.60535,1.18342 1.60124,1.18539 C 1.60413,1.19011 1.6076,1.1898 1.60342,1.19175 C 1.60635,1.19651 1.60997,1.19627 1.60572,1.19819 C 1.60868,1.20299 1.61245,1.20281 1.60813,1.20472 C 1.61113,1.20955 1.61504,1.20943 1.61065,1.21132 C 1.61369,1.21619 1.61775,1.21613 1.61328,1.218 C 1.61635,1.22291 1.62056,1.22291 1.61602,1.22476 C 1.61913,1.2297 1.62348,1.22977 1.61887,1.23161 C 1.62202,1.23658 1.62651,1.23671 1.62184,1.23852 C 1.62502,1.24353 1.62965,1.24373 1.62491,1.24552 C 1.62812,1.25057 1.6329,1.25082 1.62808,1.2526 C 1.63134,1.25768 1.63625,1.25799 1.63137,1.25975 C 1.63466,1.26486 1.63972,1.26524 1.63476,1.26698 C 1.63808,1.27213 1.64328,1.27257 1.63826,1.27429 C 1.64162,1.27947 1.64695,1.27997 1.64187,1.28167 C 1.64526,1.28688 1.65073,1.28744 1.64558,1.28913 C 1.649,1.29437 1.65461,1.29499 1.64939,1.29666 C 1.65285,1.30194 1.6586,1.30262 1.65331,1.30427 C 1.6568,1.30958 1.66269,1.31032 1.65734,1.31195 C 1.66086,1.31729 1.66688,1.31809 1.66146,1.3197 C 1.66502,1.32508 1.67117,1.32594 1.66569,1.32753 C 1.66928,1.33294 1.67556,1.33386 1.67002,1.33544 C 1.67364,1.34088 1.68006,1.34185 1.67445,1.34341 C 1.6781,1.34889 1.68465,1.34992 1.67898,1.35146 C 1.68267,1.35696 1.68935,1.35805 1.68361,1.35958 C 1.68733,1.36512 1.69414,1.36626 1.68834,1.36777 C 1.69209,1.37334 1.69903,1.37454 1.69317,1.37604 C 1.69695,1.38163 1.70402,1.38289 1.6981,1.38437 C 1.70191,1.39 1.70911,1.39131 1.70312,1.39278 C 1.70697,1.39843 1.71429,1.39981 1.70825,1.40125 C 1.71212,1.40694 1.71957,1.40837 1.71346,1.4098 C 1.71737,1.41551 1.72494,1.417 1.71878,1.41841 C 1.72271,1.42416 1.73041,1.4257 1.72419,1.42709 C 1.72815,1.43287 1.73598,1.43446 1.72969,1.43585 C 1.73369,1.44165 1.74163,1.4433 1.73529,1.44467 C 1.73932,1.4505 1.74738,1.4522 1.74098,1.45355 C 1.74504,1.45942 1.75323,1.46117 1.74677,1.46251 C 1.75085,1.4684 1.75916,1.47021 1.75265,1.47153 C 1.75676,1.47745 1.76519,1.47932 1.75861,1.48062 C 1.76276,1.48657 1.77131,1.48849 1.76468,1.48978 C 1.76885,1.49575 1.77752,1.49772 1.77083,1.499 C 1.77503,1.505 1.78382,1.50703 1.77707,1.50829 C 1.7813,1.51432 1.7902,1.5164 1.7834,1.51764 C 1.78766,1.5237 1.79668,1.52583 1.78982,1.52706 C 1.79411,1.53314 1.80325,1.53533 1.79633,1.53654 C 1.80065,1.54265 1.8099,1.54489 1.80293,1.54609 C 1.80727,1.55223 1.81664,1.55451 1.80962,1.5557 C 1.81399,1.56186 1.82347,1.5642 1.81639,1.56537 C 1.82079,1.57156 1.83038,1.57395 1.82325,1.57511 C 1.82768,1.58133 1.83738,1.58377 1.8302,1.58491 C 1.83465,1.59116 1.84447,1.59365 1.83723,1.59477 C 1.84171,1.60104 1.85164,1.60359 1.84435,1.6047 C 1.84885,1.611 1.85889,1.61359 1.85155,1.61469 C 1.85608,1.62101 1.86623,1.62365 1.85883,1.62474 C 1.86339,1.63108 1.87365,1.63378 1.8662,1.63485 C 1.87079,1.64122 1.88116,1.64396 1.87365,1.64502 C 1.87827,1.65142 1.88874,1.65421 1.88119,1.65525 C 1.88583,1.66167 1.89641,1.66451 1.88881,1.66554 C 1.89347,1.67199 1.90416,1.67488 1.89651,1.6759 C 1.90119,1.68237 1.91199,1.68531 1.90429,1.68631 C 1.909,1.6928 1.9199,1.69579 1.91215,1.69678 C 1.91689,1.7033 1.9279,1.70633 1.92009,1.70731 C 1.92485,1.71386 1.93597,1.71694 1.92811,1.7179 C 1.9329,1.72447 1.94412,1.7276 1.93621,1.72855 C 1.94102,1.73514 1.95234,1.73832 1.94439,1.73925 C 1.94923,1.74587 1.96065,1.74909 1.95265,1.75002 C 1.95751,1.75666 1.96904,1.75993 1.96098,1.76084 C 1.96587,1.7675 1.9775,1.77082 1.9694,1.77172 C 1.97431,1.7784 1.98604,1.78177 1.97789,1.78265 C 1.98282,1.78936 1.99465,1.79277 1.98645,1.79365 C 1.99141,1.80038 2.00334,1.80383 1.9951,1.80469 C 2.00008,1.81145 2.01211,1.81495 2.00381,1.8158 C 2.00882,1.82258 2.02095,1.82612 2.01261,1.82696 C 2.01764,1.83376 2.02986,1.83735 2.02148,1.83818 C 2.02653,1.845 2.03885,1.84863 2.03042,1.84945 C 2.03549,1.85629 2.04792,1.85997 2.03944,1.86077 C 2.04454,1.86764 2.05705,1.87137 2.04853,1.87215 C 2.05365,1.87904 2.06626,1.88281 2.05769,1.88359 C 2.06284,1.8905 2.07555,1.89431 2.06693,1.89508 C 2.0721,1.90201 2.0849,1.90587 2.07624,1.90662 C 2.08143,1.91357 2.09433,1.91748 2.08562,1.91822 C 2.09083,1.92519 2.10382,1.92914 2.09508,1.92987 C 2.10031,1.93686 2.11339,1.94085 2.1046,1.94157 C 2.10985,1.94858 2.12303,1.95262 2.11419,1.95333 C 2.11947,1.96036 2.13274,1.96444 2.12386,1.96513 C 2.12915,1.97219 2.14252,1.97631 2.13359,1.977 C 2.13891,1.98407 2.15237,1.98824 2.1434,1.98891 C 2.14874,1.996 2.16228,2.00021 2.15327,2.00087 C 2.15863,2.00799 2.17227,2.01224 2.16322,2.01289 C 2.1686,2.02002 2.18232,2.02431 2.17323,2.02495 C 2.17863,2.03211 2.19244,2.03644 2.18331,2.03707 C 2.18873,2.04425 2.20263,2.04862 2.19345,2.04924 C 2.19889,2.05643 2.21289,2.06085 2.20367,2.06146 C 2.20913,2.06867 2.22321,2.07313 2.21395,2.07373 C 2.21943,2.08096 2.2336,2.08546 2.2243,2.08605 C 2.2298,2.0933 2.24405,2.09784 2.23471,2.09842 C 2.24023,2.10569 2.25457,2.11027 2.24519,2.11083 C 2.25073,2.11812 2.26516,2.12275 2.25573,2.1233 C 2.26129,2.13061 2.27581,2.13527 2.26634,2.13582 C 2.27192,2.14314 2.28652,2.14785 2.27702,2.14838 C 2.28262,2.15573 2.2973,2.16047 2.28776,2.161 C 2.29338,2.16836 2.30814,2.17314 2.29856,2.17366 C 2.3042,2.18104 2.31905,2.18586 2.30942,2.18637 C 2.31508,2.19377 2.33002,2.19863 2.32035,2.19913 C 2.32603,2.20654 2.34105,2.21145 2.33135,2.21193 C 2.33704,2.21937 2.35214,2.22431 2.3424,2.22478 C 2.34812,2.23224 2.3633,2.23722 2.35352,2.23768 C 2.35926,2.24515 2.37452,2.25017 2.3647,2.25063 C 2.37045,2.25812 2.3858,2.26318 2.37594,2.26362 C 2.38171,2.27113 2.39714,2.27622 2.38724,2.27666 C 2.39303,2.28419 2.40854,2.28932 2.39861,2.28975 C 2.40442,2.29729 2.42,2.30246 2.41003,2.30288 C 2.41586,2.31044 2.43152,2.31565 2.42152,2.31606 C 2.42736,2.32363 2.4431,2.32888 2.43306,2.32928 C 2.43892,2.33687 2.45474,2.34216 2.44466,2.34255 C 2.45054,2.35016 2.46644,2.35548 2.45633,2.35586 C 2.46223,2.36349 2.4782,2.36885 2.46805,2.36922 C 2.47397,2.37686 2.49002,2.38226 2.47983,2.38262 C 2.48576,2.39028 2.5019,2.39572 2.49167,2.39607 C 2.49762,2.40375 2.51383,2.40922 2.50357,2.40956 C 2.50954,2.41725 2.52582,2.42276 2.51552,2.4231 C 2.52151,2.43081 2.53787,2.43635 2.52754,2.43668 C 2.53354,2.4444 2.54997,2.44999 2.53961,2.45031 C 2.54563,2.45804 2.56214,2.46366 2.55173,2.46397 C 2.55777,2.47173 2.57436,2.47738 2.56392,2.47768 C 2.56997,2.48545 2.58663,2.49114 2.57616,2.49144 C 2.58223,2.49922 2.59896,2.50495 2.58845,2.50523 C 2.59454,2.51303 2.61135,2.5188 2.6008,2.51907 C 2.60691,2.52689 2.62379,2.53269 2.61321,2.53296 C 2.61933,2.54078 2.63628,2.54662 2.62567,2.54688 Z" fill="#000" /></svg>