<?xml version="1.0" encoding="utf-8" ?>
<svg baseProfile="tiny" fill-rule="evenodd" height="21.649047940503806px" version="1.2" width="35.77207733038813px" xmlns="http://www.w3.org/2000/svg" xmlns:ev="http://www.w3.org/2001/xml-events" xmlns:xlink="http://www.w3.org/1999/xlink"><defs /><path d="M 35.7721,21.649 C 35.7426,21.6292 35.8004,21.6343 35.7603,21.6417 C 35.7281,21.6231 35.7667,21.6102 35.7382,21.6276 C 35.7042,21.609 35.7355,21.5919 35.7127,21.6089 C 35.6774,21.5903 35.7045,21.5712 35.6839,21.5868 C 35.6476,21.5681 35.6717,21.5474 35.6517,21.5622 C 35.6146,21.5435 35.6361,21.5212 35.6163,21.5357 C 35.5784,21.5169 35.5973,21.4931 35.5777,21.5074 C 35.5391,21.4886 35.5555,21.4632 35.536,21.4773 C 35.4966,21.4585 35.5106,21.4315 35.4912,21.4455 C 35.4511,21.4267 35.4627,21.3982 35.4434,21.4121 C 35.4027,21.3933 35.4119,21.3633 35.3928,21.3771 C 35.3514,21.3582 35.3583,21.3268 35.3393,21.3404 C 35.2972,21.3216 35.302,21.2887 35.283,21.3023 C 35.2403,21.2834 35.2429,21.2492 35.224,21.2626 C 35.1807,21.2437 35.1811,21.2081 35.1623,21.2215 C 35.1184,21.2025 35.1168,21.1656 35.0981,21.1789 C 35.0536,21.1599 35.0499,21.1217 35.0313,21.1349 C 34.9862,21.1159 34.9805,21.0765 34.962,21.0895 C 34.9164,21.0705 34.9087,21.0298 34.8904,21.0428 C 34.8441,21.0238 34.8346,20.9819 34.8163,20.9947 C 34.7695,20.9757 34.7581,20.9326 34.7399,20.9454 C 34.6926,20.9264 34.6794,20.8821 34.6613,20.8948 C 34.6135,20.8758 34.5985,20.8304 34.5805,20.843 C 34.5321,20.824 34.5154,20.7775 34.4975,20.79 C 34.4487,20.7709 34.4303,20.7234 34.4124,20.7358 C 34.3631,20.7167 34.343,20.6681 34.3253,20.6805 C 34.2755,20.6614 34.2538,20.6118 34.2361,20.624 C 34.1858,20.6049 34.1626,20.5543 34.145,20.5665 C 34.0943,20.5474 34.0695,20.4958 34.052,20.5079 C 34.0008,20.4888 33.9745,20.4362 33.9571,20.4482 C 33.9055,20.4291 33.8777,20.3756 33.8603,20.3875 C 33.8083,20.3684 33.7791,20.314 33.7618,20.3259 C 33.7094,20.3067 33.6788,20.2514 33.6616,20.2632 C 33.6088,20.2441 33.5768,20.1879 33.5596,20.1996 C 33.5064,20.1805 33.4731,20.1234 33.456,20.1351 C 33.4024,20.116 33.3678,20.0581 33.3508,20.0697 C 33.2968,20.0505 33.261,19.9918 33.244,20.0034 C 33.1897,19.9842 33.1526,19.9247 33.1357,19.9362 C 33.081,19.917 33.0426,19.8568 33.0258,19.8682 C 32.9708,19.849 32.9313,19.788 32.9145,19.7994 C 32.8591,19.7802 32.8184,19.7185 32.8017,19.7297 C 32.746,19.7106 32.7042,19.6481 32.6876,19.6593 C 32.6315,19.6401 32.5886,19.577 32.5721,19.5881 C 32.5157,19.569 32.4717,19.5051 32.4552,19.5162 C 32.3985,19.497 32.3535,19.4325 32.3371,19.4436 C 32.2801,19.4244 32.234,19.3592 32.2176,19.3702 C 32.1604,19.351 32.1133,19.2852 32.097,19.2961 C 32.0394,19.2769 31.9914,19.2105 31.9751,19.2214 C 31.9173,19.2022 31.8683,19.1351 31.8521,19.146 C 31.7939,19.1268 31.7441,19.0591 31.7279,19.0699 C 31.6695,19.0507 31.6187,18.9825 31.6026,18.9933 C 31.5439,18.9741 31.4922,18.9053 31.4761,18.916 C 31.4172,18.8968 31.3647,18.8274 31.3487,18.8381 C 31.2895,18.8189 31.2361,18.749 31.2201,18.7596 C 31.1607,18.7404 31.1065,18.67 31.0906,18.6806 C 31.031,18.6614 30.976,18.5905 30.9601,18.601 C 30.9002,18.5818 30.8444,18.5104 30.8286,18.5209 C 30.7685,18.5017 30.712,18.4298 30.6961,18.4402 C 30.6358,18.421 30.5786,18.3486 30.5628,18.359 C 30.5023,18.3398 30.4443,18.267 30.4285,18.2773 C 30.3678,18.2581 30.3091,18.1848 30.2934,18.1952 C 30.2325,18.176 30.1731,18.1022 30.1574,18.1125 C 30.0963,18.0933 30.0362,18.0191 30.0206,18.0294 C 29.9593,18.0102 29.8986,17.9356 29.883,17.9458 C 29.8215,17.9266 29.7601,17.8516 29.7446,17.8618 C 29.6829,17.8426 29.6209,17.7672 29.6054,17.7773 C 29.5435,17.7581 29.481,17.6823 29.4655,17.6925 C 29.4034,17.6733 29.3403,17.5971 29.3249,17.6072 C 29.2626,17.588 29.1989,17.5114 29.1835,17.5215 C 29.1211,17.5023 29.0568,17.4254 29.0414,17.4354 C 28.9788,17.4162 28.914,17.339 28.8987,17.3489 C 28.8359,17.3298 28.7706,17.2522 28.7553,17.2621 C 28.6924,17.2429 28.6265,17.165 28.6113,17.1749 C 28.5482,17.1557 28.4818,17.0775 28.4666,17.0874 C 28.4034,17.0682 28.3365,16.9896 28.3213,16.9995 C 28.2579,16.9803 28.1906,16.9014 28.1754,16.9113 C 28.1119,16.8921 28.0441,16.8129 28.029,16.8227 C 27.9653,16.8036 27.897,16.7241 27.882,16.7339 C 27.8182,16.7147 27.7494,16.6349 27.7344,16.6447 C 27.6705,16.6255 27.6013,16.5455 27.5863,16.5552 C 27.5222,16.536 27.4527,16.4557 27.4376,16.4654 C 27.3735,16.4463 27.3035,16.3657 27.2885,16.3754 C 27.2242,16.3562 27.1538,16.2754 27.1389,16.285 C 27.0745,16.2659 27.0037,16.1848 26.9888,16.1944 C 26.9243,16.1753 26.8531,16.0939 26.8382,16.1036 C 26.7736,16.0844 26.702,16.0028 26.6871,16.0124 C 26.6224,15.9933 26.5505,15.9115 26.5357,15.921 C 26.4708,15.9019 26.3986,15.8199 26.3837,15.8294 C 26.3188,15.8103 26.2462,15.728 26.2314,15.7376 C 26.1663,15.7184 26.0934,15.636 26.0787,15.6455 C 26.0135,15.6263 25.9403,15.5437 25.9255,15.5531 C 25.8602,15.534 25.7867,15.4511 25.772,15.4606 C 25.7066,15.4415 25.6328,15.3584 25.618,15.3679 C 25.5526,15.3487 25.4785,15.2655 25.4638,15.2749 C 25.3982,15.2558 25.3238,15.1723 25.3091,15.1817 C 25.2435,15.1626 25.1688,15.079 25.1541,15.0884 C 25.0884,15.0693 25.0134,14.9855 24.9988,14.9948 C 24.933,14.9757 24.8578,14.8917 24.8431,14.9011 C 24.7773,14.882 24.7018,14.7978 24.6871,14.8072 C 24.6212,14.7881 24.5454,14.7038 24.5308,14.7131 C 24.4648,14.694 24.3888,14.6095 24.3742,14.6188 C 24.3082,14.5998 24.2319,14.5151 24.2174,14.5244 C 24.1512,14.5053 24.0747,14.4206 24.0602,14.4298 C 23.9939,14.4107 23.9172,14.3258 23.9027,14.3351 C 23.8364,14.316 23.7595,14.2309 23.745,14.2402 C 23.6786,14.2211 23.6015,14.1359 23.587,14.1451 C 23.5206,14.1261 23.4432,14.0407 23.4287,14.05 C 23.3622,14.0309 23.2847,13.9454 23.2702,13.9546 C 23.2037,13.9356 23.126,13.85 23.1115,13.8592 C 23.0449,13.8401 22.967,13.7544 22.9525,13.7636 C 22.8859,13.7445 22.8078,13.6587 22.7933,13.6678 C 22.7266,13.6488 22.6483,13.5629 22.6339,13.572 C 22.5671,13.553 22.4887,13.4669 22.4743,13.476 C 22.4074,13.457 22.3288,13.3708 22.3144,13.38 C 22.2475,13.3609 22.1688,13.2746 22.1544,13.2838 C 22.0874,13.2647 22.0085,13.1783 21.9942,13.1874 C 21.9271,13.1684 21.8481,13.0819 21.8337,13.091 C 21.7667,13.072 21.6874,12.9854 21.6731,12.9945 C 21.606,12.9755 21.5266,12.8888 21.5123,12.8979 C 21.4452,12.8789 21.3657,12.7921 21.3513,12.8012 C 21.2841,12.7822 21.2045,12.6953 21.1902,12.7044 C 21.123,12.6854 21.0432,12.5984 21.0289,12.6075 C 20.9616,12.5885 20.8817,12.5015 20.8674,12.5105 C 20.8001,12.4915 20.7201,12.4044 20.7058,12.4134 C 20.6385,12.3944 20.5583,12.3073 20.5441,12.3163 C 20.4767,12.2973 20.3964,12.21 20.3822,12.219 C 20.3147,12.2001 20.2344,12.1127 20.2201,12.1217 C 20.1527,12.1027 20.0722,12.0153 20.058,12.0243 C 19.9904,12.0054 19.9099,11.9179 19.8957,11.9269 C 19.8281,11.9079 19.7475,11.8204 19.7332,11.8293 C 19.6656,11.8104 19.5849,11.7228 19.5707,11.7317 C 19.5031,11.7128 19.4222,11.6251 19.408,11.6341 C 19.3404,11.6151 19.2594,11.5274 19.2452,11.5363 C 19.1775,11.5174 19.0965,11.4296 19.0823,11.4386 C 19.0146,11.4196 18.9335,11.3318 18.9193,11.3407 C 18.8516,11.3218 18.7704,11.2339 18.7562,11.2428 C 18.6885,11.2239 18.6072,11.1359 18.593,11.1448 C 18.5252,11.1259 18.4439,11.0379 18.4297,11.0468 C 18.3619,11.0279 18.2805,10.9399 18.2664,10.9488 C 18.1985,10.9299 18.117,10.8418 18.1029,10.8507 C 18.035,10.8318 17.9535,10.7436 17.9393,10.7525 C 17.8714,10.7336 17.7898,10.6454 17.7757,10.6543 C 17.7078,10.6354 17.6261,10.5472 17.612,10.5561 C 17.544,10.5372 17.4623,10.4489 17.4482,10.4578 C 17.3802,10.4389 17.2984,10.3506 17.2843,10.3594 C 17.2163,10.3406 17.1345,10.2522 17.1204,10.2611 C 17.0523,10.2422 16.9705,10.1538 16.9564,10.1627 C 16.8883,10.1438 16.8064,10.0554 16.7923,10.0642 C 16.7242,10.0454 16.6423,9.95695 16.6282,9.96578 C 16.5601,9.94691 16.4781,9.85845 16.464,9.86727 C 16.3959,9.84841 16.3138,9.75992 16.2997,9.76874 C 16.2316,9.74988 16.1495,9.66136 16.1354,9.67018 C 16.0673,9.65132 15.9852,9.56278 15.9711,9.57159 C 15.9029,9.55273 15.8208,9.46417 15.8067,9.47297 C 15.7385,9.45412 15.6563,9.36553 15.6422,9.37433 C 15.574,9.35548 15.4918,9.26687 15.4777,9.27566 C 15.4095,9.25682 15.3273,9.16818 15.3132,9.17697 C 15.245,9.15814 15.1627,9.06948 15.1486,9.07826 C 15.0804,9.05943 14.9981,8.97075 14.984,8.97953 C 14.9157,8.9607 14.8334,8.872 14.8193,8.88078 C 14.7511,8.86196 14.6687,8.77324 14.6546,8.78201 C 14.5864,8.76319 14.504,8.67446 14.4899,8.68323 C 14.4216,8.66441 14.3393,8.57566 14.3252,8.58442 C 14.2569,8.56561 14.1745,8.47685 14.1604,8.48561 C 14.0921,8.4668 14.0097,8.37802 13.9956,8.38678 C 13.9273,8.36797 13.8448,8.27919 13.8307,8.28793 C 13.7624,8.26914 13.68,8.18033 13.6659,8.18908 C 13.5976,8.17028 13.5151,8.08147 13.501,8.09021 C 13.4327,8.07142 13.3502,7.9826 13.3361,7.99134 C 13.2678,7.97255 13.1853,7.88372 13.1712,7.89245 C 13.1028,7.87367 13.0203,7.78483 13.0063,7.79356 C 12.9379,7.77478 12.8554,7.68593 12.8413,7.69466 C 12.7729,7.67588 12.6904,7.58702 12.6763,7.59575 C 12.608,7.57698 12.5254,7.48811 12.5114,7.49683 C 12.443,7.47807 12.3604,7.3892 12.3464,7.39792 C 12.278,7.37915 12.1954,7.29028 12.1814,7.29899 C 12.113,7.28023 12.0304,7.19135 12.0164,7.20007 C 11.9479,7.18131 11.8654,7.09243 11.8513,7.10114 C 11.7829,7.08238 11.7004,6.9935 11.6863,7.0022 C 11.6179,6.98345 11.5354,6.89457 11.5213,6.90327 C 11.4528,6.88452 11.3703,6.79564 11.3562,6.80434 C 11.2878,6.78559 11.2053,6.69671 11.1912,6.7054 C 11.1228,6.68666 11.0402,6.59777 11.0262,6.60647 C 10.9577,6.58773 10.8752,6.49884 10.8611,6.50753 C 10.7927,6.4888 10.7102,6.39991 10.6961,6.4086 C 10.6276,6.38987 10.5451,6.30099 10.531,6.30967 C 10.4626,6.29095 10.3801,6.20206 10.366,6.21075 C 10.2975,6.19203 10.215,6.10314 10.201,6.11182 C 10.1325,6.09311 10.05,6.00423 10.0359,6.0129 C 9.96744,5.99419 9.88498,5.90531 9.87089,5.91399 C 9.80241,5.89528 9.71996,5.80641 9.70587,5.81508 C 9.63738,5.79637 9.55494,5.7075 9.54085,5.71617 C 9.47236,5.69747 9.38993,5.60861 9.37584,5.61728 C 9.30735,5.59857 9.22493,5.50972 9.21084,5.51838 C 9.14234,5.49968 9.05994,5.41083 9.04585,5.4195 C 8.97735,5.4008 8.89496,5.31195 8.88086,5.32062 C 8.81236,5.30193 8.72999,5.21309 8.71589,5.22175 C 8.64738,5.20306 8.56503,5.11422 8.55093,5.12288 C 8.48242,5.1042 8.40008,5.01537 8.38598,5.02403 C 8.31747,5.00535 8.23514,4.91653 8.22104,4.92518 C 8.15253,4.9065 8.07022,4.81769 8.05611,4.82635 C 7.9876,4.80767 7.90531,4.71887 7.8912,4.72752 C 7.82268,4.70885 7.74042,4.62005 7.7263,4.6287 C 7.65778,4.61003 7.57554,4.52125 7.56142,4.52989 C 7.4929,4.51123 7.41067,4.42245 7.39655,4.4311 C 7.32803,4.41243 7.24582,4.32367 7.2317,4.33231 C 7.16318,4.31365 7.08099,4.22489 7.06686,4.23354 C 6.99834,4.21488 6.91618,4.12613 6.90205,4.13477 C 6.83352,4.11612 6.75138,4.02738 6.73724,4.03602 C 6.66872,4.01737 6.5866,3.92865 6.57246,3.93728 C 6.50394,3.91864 6.42184,3.82992 6.4077,3.83856 C 6.33917,3.81991 6.2571,3.73121 6.24295,3.73984 C 6.17443,3.7212 6.09237,3.63251 6.07823,3.64114 C 6.0097,3.6225 5.92767,3.53382 5.91352,3.54245 C 5.84499,3.52382 5.76299,3.43515 5.74884,3.44378 C 5.68031,3.42514 5.59833,3.33649 5.58417,3.34512 C 5.51564,3.32649 5.43369,3.23784 5.41953,3.24647 C 5.351,3.22784 5.26907,3.13921 5.25491,3.14784 C 5.18638,3.12921 5.10447,3.04059 5.0903,3.04922 C 5.02178,3.0306 4.9399,2.94199 4.92573,2.95062 C 4.8572,2.93199 4.77535,2.8434 4.76117,2.85203 C 4.69264,2.83341 4.61082,2.74483 4.59664,2.75345 C 4.52811,2.73484 4.44631,2.64627 4.43213,2.65489 C 4.3636,2.63628 4.28183,2.54773 4.26764,2.55635 C 4.19911,2.53774 4.11737,2.4492 4.10318,2.45782 C 4.03465,2.43921 3.95294,2.35069 3.93874,2.35931 C 3.87021,2.3407 3.78853,2.25219 3.77433,2.26081 C 3.7058,2.2422 3.62414,2.15371 3.60994,2.16233 C 3.54141,2.14372 3.45978,2.05525 3.44557,2.06386 C 3.37705,2.04526 3.29545,1.9568 3.28123,1.96541 C 3.21271,1.94681 3.13114,1.85837 3.11692,1.86698 C 3.04839,1.84838 2.96685,1.75995 2.95263,1.76856 C 2.88411,1.74997 2.80259,1.66155 2.78836,1.67016 C 2.71984,1.65157 2.63836,1.56317 2.62413,1.57178 C 2.55561,1.55319 2.47416,1.4648 2.45992,1.47341 C 2.3914,1.45483 2.30998,1.36645 2.29573,1.37506 C 2.22721,1.35648 2.14582,1.26812 2.13157,1.27673 C 2.06306,1.25815 1.9817,1.16981 1.96744,1.17841 C 1.89893,1.15984 1.8176,1.07151 1.80334,1.08012 C 1.73482,1.06154 1.65352,0.973231 1.63926,0.981836 C 1.57075,0.96326 1.48948,0.874968 1.47521,0.883572 C 1.4067,0.864999 1.32546,0.776723 1.31119,0.785327 C 1.24268,0.766755 1.16147,0.678496 1.14719,0.687098 C 1.07868,0.668529 0.997508,0.580286 0.983223,0.588888 C 0.914715,0.570321 0.833573,0.482094 0.819282,0.490695 C 0.750776,0.47213 0.669665,0.38392 0.65537,0.39252 C 0.586865,0.373957 0.505786,0.285763 0.491485,0.294363 C 0.422982,0.275802 0.341935,0.187625 0.327629,0.196224 C 0.259127,0.177664 0.178112,0.0895046 0.1638,0.098103 C 0.0952996,0.0795452 0.0143175,-0.00859785 0,0 Z" fill="#000" /></svg>