<?xml version="1.0" encoding="utf-8" ?>
<svg baseProfile="tiny" fill-rule="evenodd" height="24.07648736075498px" version="1.2" width="39.553409152664244px" xmlns="http://www.w3.org/2000/svg" xmlns:ev="http://www.w3.org/2001/xml-events" xmlns:xlink="http://www.w3.org/1999/xlink"><defs /><path d="M 39.5534,24.0765 C 39.5238,24.0519 39.6079,24.0653 39.5432,24.0741 C 39.5119,24.0529 39.567,24.0447 39.5241,24.0624 C 39.4907,24.0415 39.5349,24.0279 39.5006,24.0443 C 39.4655,24.0236 39.5034,24.0071 39.4723,24.0215 C 39.436,24.0008 39.4694,23.9818 39.4393,23.9955 C 39.4018,23.9748 39.4312,23.9534 39.4016,23.9667 C 39.363,23.946 39.3887,23.9223 39.3594,23.9354 C 39.3198,23.9146 39.3418,23.8888 39.3128,23.9016 C 39.2722,23.8809 39.2907,23.8528 39.262,23.8655 C 39.2204,23.8447 39.2355,23.8145 39.207,23.827 C 39.1646,23.8063 39.1763,23.774 39.148,23.7863 C 39.1047,23.7656 39.1132,23.7313 39.0852,23.7435 C 39.0409,23.7227 39.0463,23.6865 39.0185,23.6985 C 38.9734,23.6777 38.9758,23.6396 38.9482,23.6515 C 38.9022,23.6307 38.9017,23.5908 38.8743,23.6025 C 38.8275,23.5817 38.8241,23.54 38.797,23.5516 C 38.7494,23.5308 38.7431,23.4873 38.7162,23.4988 C 38.6679,23.478 38.659,23.4328 38.6323,23.4442 C 38.5832,23.4234 38.5716,23.3766 38.5451,23.3878 C 38.4954,23.367 38.4812,23.3186 38.455,23.3297 C 38.4045,23.3088 38.3878,23.2589 38.3618,23.2699 C 38.3106,23.2491 38.2916,23.1977 38.2657,23.2085 C 38.2139,23.1877 38.1925,23.1348 38.1669,23.1455 C 38.1144,23.1247 38.0908,23.0705 38.0653,23.0811 C 38.0122,23.0603 37.9864,23.0046 37.9611,23.0151 C 37.9074,22.9943 37.8794,22.9373 37.8544,22.9477 C 37.8001,22.9269 37.77,22.8687 37.7452,22.879 C 37.6903,22.8582 37.6582,22.7987 37.6336,22.8089 C 37.5782,22.7881 37.5441,22.7274 37.5196,22.7374 C 37.4637,22.7167 37.4278,22.6548 37.4035,22.6648 C 37.347,22.644 37.3093,22.581 37.2851,22.5909 C 37.2282,22.5701 37.1886,22.506 37.1647,22.5158 C 37.1073,22.495 37.0659,22.4298 37.0422,22.4395 C 36.9843,22.4188 36.9413,22.3525 36.9177,22.3622 C 36.8593,22.3414 36.8147,22.2742 36.7913,22.2837 C 36.7325,22.263 36.6863,22.1948 36.663,22.2043 C 36.6038,22.1835 36.5561,22.1144 36.533,22.1238 C 36.4734,22.103 36.4241,22.033 36.4012,22.0423 C 36.3412,22.0216 36.2905,21.9506 36.2677,21.9598 C 36.2073,21.9392 36.1552,21.8673 36.1326,21.8765 C 36.0718,21.8558 36.0184,21.7832 35.9959,21.7923 C 35.9348,21.7716 35.88,21.6981 35.8577,21.7071 C 35.7962,21.6865 35.7402,21.6122 35.718,21.6212 C 35.6561,21.6006 35.5989,21.5256 35.5769,21.5344 C 35.5147,21.5138 35.4563,21.4381 35.4344,21.4469 C 35.3719,21.4263 35.3123,21.3499 35.2905,21.3586 C 35.2277,21.338 35.167,21.2609 35.1454,21.2696 C 35.0822,21.249 35.0205,21.1712 34.999,21.1798 C 34.9356,21.1593 34.8727,21.0808 34.8513,21.0894 C 34.7877,21.0689 34.7238,20.9898 34.7026,20.9983 C 34.6386,20.9778 34.5738,20.8981 34.5526,20.9066 C 34.4884,20.8861 34.4226,20.8058 34.4016,20.8142 C 34.3371,20.7937 34.2704,20.7129 34.2495,20.7213 C 34.1848,20.7008 34.1172,20.6194 34.0964,20.6277 C 34.0315,20.6073 33.963,20.5254 33.9423,20.5336 C 33.8771,20.5132 33.8078,20.4308 33.7873,20.439 C 33.7219,20.4185 33.6517,20.3356 33.6313,20.3438 C 33.5657,20.3234 33.4947,20.24 33.4744,20.2481 C 33.4086,20.2277 33.3369,20.1439 33.3167,20.152 C 33.2507,20.1316 33.1782,20.0473 33.1581,20.0553 C 33.0919,20.0349 33.0187,19.9502 32.9988,19.9582 C 32.9323,19.9378 32.8585,19.8527 32.8386,19.8607 C 32.772,19.8403 32.6975,19.7548 32.6777,19.7627 C 32.6109,19.7424 32.5357,19.6564 32.5161,19.6643 C 32.4491,19.644 32.3733,19.5577 32.3538,19.5655 C 32.2866,19.5452 32.2102,19.4585 32.1907,19.4663 C 32.1235,19.4461 32.0464,19.359 32.0271,19.3668 C 31.9596,19.3465 31.882,19.2591 31.8628,19.2669 C 31.7952,19.2467 31.7171,19.1589 31.6979,19.1667 C 31.6302,19.1464 31.5515,19.0584 31.5324,19.0661 C 31.4645,19.0459 31.3853,18.9575 31.3664,18.9652 C 31.2984,18.945 31.2187,18.8563 31.1998,18.864 C 31.1316,18.8438 31.0515,18.7548 31.0327,18.7625 C 30.9644,18.7423 30.8838,18.6531 30.8651,18.6607 C 30.7967,18.6405 30.7156,18.551 30.697,18.5586 C 30.6284,18.5385 30.5469,18.4487 30.5284,18.4562 C 30.4597,18.4361 30.3778,18.3461 30.3593,18.3536 C 30.2906,18.3335 30.2083,18.2433 30.1899,18.2508 C 30.121,18.2307 30.0383,18.1403 30.02,18.1477 C 29.9511,18.1276 29.8679,18.037 29.8497,18.0444 C 29.7807,18.0243 29.6972,17.9335 29.679,17.9409 C 29.6099,17.9208 29.5261,17.8297 29.508,17.8371 C 29.4388,17.8171 29.3546,17.7258 29.3366,17.7332 C 29.2673,17.7132 29.1828,17.6217 29.1649,17.629 C 29.0955,17.609 29.0106,17.5174 28.9928,17.5247 C 28.9233,17.5047 28.8382,17.4129 28.8204,17.4202 C 28.7508,17.4002 28.6654,17.3082 28.6477,17.3155 C 28.5781,17.2955 28.4923,17.2033 28.4747,17.2106 C 28.405,17.1907 28.319,17.0984 28.3014,17.1056 C 28.2316,17.0857 28.1454,16.9932 28.1279,17.0004 C 28.058,16.9805 27.9715,16.8879 27.9541,16.8951 C 27.8842,16.8752 27.7974,16.7825 27.78,16.7897 C 27.7101,16.7698 27.6231,16.6769 27.6057,16.6841 C 27.5357,16.6642 27.4485,16.5712 27.4312,16.5783 C 27.3611,16.5585 27.2737,16.4654 27.2565,16.4725 C 27.1864,16.4527 27.0987,16.3594 27.0816,16.3665 C 27.0114,16.3468 26.9235,16.2534 26.9064,16.2605 C 26.8362,16.2407 26.7481,16.1472 26.7311,16.1543 C 26.6608,16.1346 26.5726,16.0409 26.5556,16.048 C 26.4853,16.0283 26.3969,15.9346 26.38,15.9416 C 26.3096,15.9219 26.221,15.8281 26.2041,15.8352 C 26.1337,15.8155 26.0449,15.7216 26.0281,15.7286 C 25.9577,15.7089 25.8687,15.615 25.852,15.622 C 25.7815,15.6023 25.6924,15.5083 25.6757,15.5153 C 25.6052,15.4956 25.5159,15.4015 25.4993,15.4085 C 25.4287,15.3888 25.3394,15.2946 25.3228,15.3016 C 25.2522,15.282 25.1627,15.1877 25.1461,15.1947 C 25.0755,15.1751 24.9858,15.0807 24.9694,15.0877 C 24.8987,15.0681 24.8089,14.9737 24.7925,14.9807 C 24.7218,14.9611 24.6319,14.8666 24.6155,14.8736 C 24.5448,14.854 24.4548,14.7594 24.4385,14.7664 C 24.3677,14.7468 24.2776,14.6523 24.2613,14.6592 C 24.1905,14.6397 24.1003,14.545 24.0841,14.5519 C 24.0132,14.5324 23.9229,14.4377 23.9067,14.4446 C 23.8359,14.4251 23.7455,14.3304 23.7294,14.3373 C 23.6585,14.3178 23.568,14.223 23.5519,14.2299 C 23.481,14.2105 23.3904,14.1156 23.3744,14.1225 C 23.3035,14.1031 23.2128,14.0082 23.1968,14.0151 C 23.1259,13.9956 23.0351,13.9007 23.0192,13.9076 C 22.9482,13.8882 22.8574,13.7933 22.8415,13.8001 C 22.7705,13.7807 22.6797,13.6858 22.6638,13.6926 C 22.5928,13.6732 22.5018,13.5782 22.486,13.5851 C 22.415,13.5657 22.324,13.4707 22.3082,13.4775 C 22.2372,13.4581 22.1461,13.3631 22.1304,13.37 C 22.0593,13.3506 21.9682,13.2555 21.9525,13.2624 C 21.8814,13.243 21.7903,13.1479 21.7746,13.1548 C 21.7035,13.1354 21.6124,13.0403 21.5967,13.0472 C 21.5256,13.0278 21.4344,12.9327 21.4188,12.9396 C 21.3477,12.9202 21.2564,12.8251 21.2408,12.8319 C 21.1697,12.8126 21.0784,12.7175 21.0629,12.7243 C 20.9918,12.705 20.9004,12.6099 20.8849,12.6167 C 20.8138,12.5974 20.7224,12.5022 20.7069,12.509 C 20.6358,12.4898 20.5444,12.3946 20.529,12.4014 C 20.4578,12.3821 20.3664,12.287 20.351,12.2938 C 20.2798,12.2745 20.1884,12.1794 20.173,12.1862 C 20.1019,12.1669 20.0104,12.0717 19.995,12.0785 C 19.9239,12.0593 19.8324,11.9641 19.8171,11.9709 C 19.7459,11.9517 19.6544,11.8565 19.6391,11.8633 C 19.568,11.8441 19.4764,11.7489 19.4612,11.7557 C 19.39,11.7365 19.2985,11.6414 19.2832,11.6481 C 19.2121,11.629 19.1205,11.5338 19.1053,11.5406 C 19.0342,11.5214 18.9426,11.4262 18.9274,11.433 C 18.8563,11.4138 18.7647,11.3187 18.7496,11.3255 C 18.6784,11.3063 18.5868,11.2112 18.5717,11.2179 C 18.5005,11.1988 18.409,11.1037 18.3939,11.1104 C 18.3227,11.0913 18.2312,10.9962 18.2161,11.0029 C 18.1449,10.9838 18.0534,10.8887 18.0383,10.8954 C 17.9671,10.8763 17.8756,10.7812 17.8606,10.788 C 17.7894,10.7689 17.6978,10.6738 17.6828,10.6805 C 17.6117,10.6614 17.5201,10.5664 17.5052,10.5731 C 17.434,10.554 17.3425,10.459 17.3275,10.4657 C 17.2563,10.4466 17.1648,10.3516 17.1499,10.3583 C 17.0787,10.3393 16.9872,10.2443 16.9723,10.251 C 16.9011,10.2319 16.8096,10.1369 16.7948,10.1437 C 16.7236,10.1246 16.6321,10.0296 16.6173,10.0364 C 16.5461,10.0173 16.4546,9.92236 16.4398,9.9291 C 16.3686,9.91007 16.2772,9.81512 16.2624,9.82185 C 16.1912,9.80284 16.0998,9.7079 16.085,9.71463 C 16.0138,9.69562 15.9224,9.60071 15.9076,9.60744 C 15.8365,9.58844 15.7451,9.49354 15.7304,9.50027 C 15.6592,9.48129 15.5678,9.38641 15.5531,9.39314 C 15.4819,9.37416 15.3906,9.2793 15.3759,9.28603 C 15.3047,9.26706 15.2134,9.17223 15.1987,9.17895 C 15.1276,9.15999 15.0363,9.06519 15.0216,9.07191 C 14.9505,9.05296 14.8592,8.95817 14.8446,8.96489 C 14.7734,8.94595 14.6822,8.85119 14.6676,8.85791 C 14.5964,8.83898 14.5052,8.74424 14.4906,8.75096 C 14.4195,8.73203 14.3283,8.63732 14.3137,8.64404 C 14.2426,8.62512 14.1514,8.53044 14.1368,8.53715 C 14.0657,8.51824 13.9746,8.42358 13.96,8.4303 C 13.8889,8.4114 13.7978,8.31676 13.7832,8.32348 C 13.7121,8.30459 13.6211,8.20998 13.6065,8.21669 C 13.5354,8.19781 13.4444,8.10323 13.4299,8.10994 C 13.3588,8.09106 13.2678,7.99651 13.2533,8.00322 C 13.1822,7.98435 13.0912,7.88983 13.0768,7.89654 C 13.0057,7.87768 12.9147,7.78318 12.9003,7.78989 C 12.8292,7.77104 12.7383,7.67657 12.7238,7.68328 C 12.6527,7.66443 12.5619,7.56999 12.5475,7.5767 C 12.4764,7.55786 12.3856,7.46345 12.3711,7.47016 C 12.3001,7.45132 12.2093,7.35694 12.1949,7.36365 C 12.1238,7.34482 12.0331,7.25047 12.0187,7.25718 C 11.9476,7.23836 11.8569,7.14404 11.8425,7.15075 C 11.7715,7.13193 11.6808,7.03764 11.6664,7.04435 C 11.5954,7.02554 11.5047,6.93128 11.4904,6.93799 C 11.4193,6.91919 11.3287,6.82495 11.3144,6.83166 C 11.2434,6.81287 11.1528,6.71867 11.1385,6.72538 C 11.0674,6.70659 10.9769,6.61241 10.9626,6.61912 C 10.8916,6.60035 10.8011,6.5062 10.7868,6.51291 C 10.7158,6.49414 10.6254,6.40002 10.6111,6.40673 C 10.5401,6.38797 10.4497,6.29389 10.4354,6.3006 C 10.3644,6.28184 10.274,6.18778 10.2598,6.19449 C 10.1888,6.17574 10.0984,6.08172 10.0842,6.08843 C 10.0132,6.06968 9.92292,5.97569 9.90867,5.9824 C 9.83768,5.96366 9.74746,5.8697 9.73322,5.87641 C 9.66224,5.85768 9.57206,5.76375 9.55783,5.77046 C 9.48685,5.75173 9.39672,5.65784 9.3825,5.66455 C 9.31153,5.64582 9.22143,5.55196 9.20722,5.55867 C 9.13626,5.53995 9.04621,5.44612 9.03201,5.45283 C 8.96105,5.43412 8.87105,5.34032 8.85685,5.34703 C 8.7859,5.32832 8.69594,5.23456 8.68176,5.24127 C 8.61081,5.22257 8.5209,5.12883 8.50672,5.13554 C 8.43578,5.11685 8.34591,5.02314 8.33174,5.02986 C 8.26081,5.01117 8.17099,4.91749 8.15682,4.92421 C 8.0859,4.90552 7.99612,4.81188 7.98196,4.81859 C 7.91104,4.79991 7.82131,4.70631 7.80716,4.71302 C 7.73625,4.69434 7.64656,4.60077 7.63242,4.60748 C 7.56151,4.58881 7.47187,4.49527 7.45774,4.50198 C 7.38684,4.48332 7.29724,4.38981 7.28312,4.39652 C 7.21222,4.37786 7.12267,4.28439 7.10855,4.2911 C 7.03766,4.27244 6.94816,4.179 6.93405,4.18571 C 6.86316,4.16706 6.77371,4.07365 6.7596,4.08036 C 6.68872,4.06172 6.59931,3.96834 6.58521,3.97505 C 6.51434,3.95641 6.42498,3.86306 6.41088,3.86978 C 6.34001,3.85114 6.2507,3.75783 6.23661,3.76454 C 6.16575,3.74591 6.07648,3.65263 6.06239,3.65934 C 5.99154,3.64071 5.90232,3.54746 5.88824,3.55418 C 5.81739,3.53556 5.72821,3.44234 5.71414,3.44905 C 5.64329,3.43043 5.55417,3.33725 5.5401,3.34397 C 5.46926,3.32535 5.38018,3.2322 5.36611,3.23891 C 5.29528,3.2203 5.20625,3.12718 5.19219,3.1339 C 5.12136,3.11529 5.03238,3.0222 5.01832,3.02892 C 4.9475,3.01032 4.85856,2.91726 4.84451,2.92398 C 4.77369,2.90538 4.6848,2.81235 4.67075,2.81908 C 4.59994,2.80048 4.5111,2.70748 4.49705,2.71421 C 4.42624,2.69561 4.33745,2.60265 4.32341,2.60937 C 4.25261,2.59078 4.16386,2.49785 4.14982,2.50458 C 4.07903,2.48599 3.99033,2.39309 3.97629,2.39982 C 3.9055,2.38124 3.81685,2.28837 3.80282,2.29509 C 3.73203,2.27652 3.64343,2.18368 3.6294,2.19041 C 3.55862,2.17183 3.47006,2.07903 3.45603,2.08575 C 3.38526,2.06718 3.29675,1.97441 3.28272,1.98114 C 3.21195,1.96257 3.1235,1.86983 3.10947,1.87655 C 3.0387,1.85799 2.95029,1.76528 2.93627,1.77201 C 2.86551,1.75345 2.77715,1.66077 2.76313,1.6675 C 2.69237,1.64894 2.60405,1.55629 2.59003,1.56302 C 2.51928,1.54446 2.43102,1.45185 2.417,1.45858 C 2.34625,1.44003 2.25803,1.34744 2.24401,1.35417 C 2.17327,1.33562 2.0851,1.24307 2.07108,1.2498 C 2.00034,1.23125 1.91222,1.13873 1.89821,1.14547 C 1.82747,1.12692 1.7394,1.03443 1.72538,1.04116 C 1.65465,1.02262 1.56663,0.93016 1.55261,0.936895 C 1.48188,0.918355 1.39391,0.825925 1.37989,0.832661 C 1.30917,0.814123 1.22124,0.721724 1.20723,0.728461 C 1.13651,0.709926 1.04863,0.617557 1.03461,0.624295 C 0.963897,0.605762 0.876062,0.513424 0.862049,0.520162 C 0.791338,0.501632 0.703551,0.409324 0.689537,0.416063 C 0.618831,0.397535 0.531091,0.305257 0.517077,0.311998 C 0.446374,0.293472 0.358682,0.201224 0.344667,0.207965 C 0.273969,0.189442 0.186324,0.0972243 0.172308,0.103966 C 0.101614,0.0854445 0.014016,-0.00674284 0,0 Z" fill="#000" /></svg>