<?xml version="1.0" encoding="utf-8" ?>
<svg baseProfile="tiny" fill-rule="evenodd" height="8.858658533543348px" version="1.2" width="22.312337152659893px" xmlns="http://www.w3.org/2000/svg" xmlns:ev="http://www.w3.org/2001/xml-events" xmlns:xlink="http://www.w3.org/1999/xlink"><defs /><path d="M -0.0820935,-0.0449566 C -0.0744285,-0.0631409 0.0264141,0.0110243 0,0 C 0.0131935,-0.0123777 0.0899451,0.0536719 0.0917294,0.0424789 C 0.106857,0.031098 0.177947,0.0965981 0.188915,0.0855253 C 0.204468,0.0746511 0.272611,0.139934 0.28742,0.127467 C 0.303128,0.116706 0.370202,0.181957 0.386082,0.168997 C 0.401857,0.15827 0.468276,0.223442 0.484543,0.210228 C 0.50036,0.199499 0.566299,0.264593 0.582716,0.251227 C 0.598568,0.240487 0.664079,0.305507 0.680583,0.292015 C 0.696467,0.28126 0.761574,0.346208 0.778143,0.332599 C 0.794059,0.32183 0.858777,0.38671 0.875404,0.372987 C 0.891352,0.362203 0.955691,0.427018 0.972373,0.413185 C 0.988353,0.402387 1.05232,0.46714 1.06906,0.453198 C 1.08507,0.442385 1.14868,0.50708 1.16547,0.493032 C 1.18152,0.482205 1.24478,0.546843 1.26162,0.532691 C 1.2777,0.521851 1.34061,0.586436 1.3575,0.57218 C 1.37362,0.561327 1.4362,0.625862 1.45314,0.611505 C 1.46929,0.600639 1.53154,0.665126 1.54853,0.650671 C 1.56471,0.639792 1.62665,0.704233 1.64369,0.68968 C 1.6599,0.678789 1.72153,0.743188 1.73862,0.728539 C 1.75487,0.717636 1.81619,0.781994 1.83333,0.767252 C 1.84961,0.756337 1.91064,0.820656 1.92782,0.805822 C 1.94413,0.794896 2.00487,0.859179 2.0221,0.844254 C 2.03845,0.833317 2.09891,0.897566 2.11618,0.882552 C 2.13256,0.871604 2.19275,0.935821 2.21006,0.92072 C 2.22648,0.909761 2.2864,0.973948 2.30376,0.958761 C 2.32021,0.947792 2.37987,1.01195 2.39727,0.996679 C 2.41376,0.9857 2.47316,1.04983 2.4906,1.03448 C 2.50712,1.02349 2.56628,1.0876 2.58376,1.07216 C 2.60032,1.06116 2.65922,1.12525 2.67675,1.10973 C 2.69334,1.09873 2.75201,1.16279 2.76957,1.1472 C 2.7862,1.13618 2.84464,1.20022 2.86224,1.18455 C 2.87891,1.17353 2.93712,1.23755 2.95476,1.22181 C 2.97146,1.21077 3.02945,1.27478 3.04713,1.25896 C 3.06386,1.24792 3.12164,1.31191 3.13935,1.29602 C 3.15612,1.28497 3.21369,1.34895 3.23144,1.33298 C 3.24824,1.32192 3.3056,1.38589 3.32339,1.36985 C 3.34023,1.35879 3.39739,1.42274 3.41521,1.40664 C 3.43209,1.39556 3.48905,1.45951 3.50691,1.44334 C 3.52382,1.43226 3.58058,1.49619 3.59848,1.47995 C 3.61542,1.46886 3.672,1.53279 3.68993,1.51649 C 3.70691,1.50539 3.76331,1.56931 3.78127,1.55294 C 3.79828,1.54184 3.8545,1.60576 3.87249,1.58933 C 3.88954,1.57822 3.94559,1.64213 3.96361,1.62563 C 3.9807,1.61452 4.03657,1.67843 4.05463,1.66187 C 4.07174,1.65075 4.12745,1.71465 4.14554,1.69804 C 4.16269,1.68691 4.21823,1.75081 4.23635,1.73414 C 4.25354,1.72301 4.30892,1.7869 4.32707,1.77017 C 4.34429,1.75904 4.39952,1.82293 4.4177,1.80615 C 4.43495,1.795 4.49003,1.8589 4.50824,1.84206 C 4.52552,1.83091 4.58045,1.89481 4.59869,1.87791 C 4.61601,1.86676 4.67079,1.93066 4.68906,1.91371 C 4.70641,1.90255 4.76105,1.96645 4.77935,1.94945 C 4.79673,1.93829 4.85123,2.00219 4.86956,1.98514 C 4.88697,1.97397 4.94133,2.03787 4.95969,2.02077 C 4.97714,2.0096 5.03137,2.07351 5.04975,2.05635 C 5.06723,2.04518 5.12133,2.10909 5.13974,2.09189 C 5.15725,2.08071 5.21122,2.14463 5.22966,2.12738 C 5.2472,2.11619 5.30105,2.18011 5.31951,2.16282 C 5.33709,2.15163 5.39081,2.21556 5.4093,2.19822 C 5.42691,2.18703 5.48051,2.25096 5.49902,2.23358 C 5.51666,2.22238 5.57015,2.28632 5.58869,2.26889 C 5.60636,2.25769 5.65973,2.32163 5.67829,2.30416 C 5.69599,2.29296 5.74925,2.35691 5.76784,2.3394 C 5.78557,2.32819 5.83872,2.39215 5.85733,2.3746 C 5.8751,2.36339 5.92814,2.42735 5.94677,2.40976 C 5.96457,2.39854 6.0175,2.46252 6.03616,2.44489 C 6.05399,2.43367 6.10682,2.49765 6.1255,2.47998 C 6.14336,2.46876 6.19609,2.53275 6.21479,2.51504 C 6.23268,2.50382 6.28531,2.56781 6.30404,2.55007 C 6.32195,2.53884 6.37449,2.60285 6.39323,2.58507 C 6.41118,2.57384 6.46362,2.63785 6.48239,2.62004 C 6.50036,2.6088 6.55271,2.67283 6.5715,2.65498 C 6.5895,2.64374 6.64176,2.70778 6.66057,2.68989 C 6.6786,2.67865 6.73077,2.7427 6.7496,2.72478 C 6.76766,2.71354 6.81974,2.77759 6.83859,2.75964 C 6.85668,2.7484 6.90867,2.81246 6.92755,2.79447 C 6.94566,2.78323 6.99757,2.8473 7.01647,2.82929 C 7.03461,2.81804 7.08644,2.88212 7.10535,2.86408 C 7.12352,2.85283 7.17527,2.91692 7.1942,2.89885 C 7.2124,2.88759 7.26406,2.9517 7.28302,2.93359 C 7.30124,2.92234 7.35283,2.98645 7.3718,2.96832 C 7.39005,2.95706 7.44157,3.02119 7.46056,3.00303 C 7.47883,2.99177 7.53027,3.0559 7.54928,3.03771 C 7.56759,3.02646 7.61895,3.0906 7.63798,3.07239 C 7.65631,3.06113 7.7076,3.12528 7.72665,3.10704 C 7.745,3.09578 7.79623,3.15994 7.81529,3.14167 C 7.83367,3.13041 7.88482,3.19459 7.90391,3.1763 C 7.92231,3.16503 7.9734,3.22922 7.9925,3.2109 C 8.01093,3.19964 8.06195,3.26383 8.08106,3.24549 C 8.09952,3.23423 8.15047,3.29843 8.16961,3.28007 C 8.18809,3.2688 8.23898,3.33302 8.25813,3.31463 C 8.27663,3.30336 8.32746,3.36759 8.34662,3.34918 C 8.36515,3.33791 8.41592,3.40215 8.4351,3.38372 C 8.45365,3.37245 8.50436,3.4367 8.52356,3.41825 C 8.54213,3.40698 8.59278,3.47124 8.61199,3.45276 C 8.63059,3.44149 8.68118,3.50576 8.70041,3.48727 C 8.71903,3.476 8.76957,3.54028 8.78881,3.52177 C 8.80746,3.51049 8.85793,3.57478 8.87719,3.55625 C 8.89586,3.54498 8.94628,3.60928 8.96555,3.59073 C 8.98425,3.57945 9.03461,3.64377 9.0539,3.6252 C 9.07262,3.61392 9.12293,3.67824 9.14223,3.65966 C 9.16097,3.64838 9.21123,3.71272 9.23055,3.69411 C 9.24931,3.68284 9.29952,3.74718 9.31885,3.72856 C 9.33763,3.71728 9.38779,3.78164 9.40714,3.763 C 9.42594,3.75172 9.47605,3.81609 9.49541,3.79744 C 9.51423,3.78616 9.5643,3.85053 9.58367,3.83187 C 9.60251,3.82059 9.65253,3.88497 9.67192,3.86629 C 9.69078,3.85501 9.74076,3.9194 9.76015,3.90071 C 9.77904,3.88943 9.82897,3.95383 9.84837,3.93512 C 9.86728,3.92384 9.91716,3.98826 9.93658,3.96953 C 9.95551,3.95825 10.0054,4.02268 10.0248,4.00394 C 10.0437,3.99266 10.0935,4.05709 10.113,4.03834 C 10.1319,4.02706 10.1817,4.09151 10.2012,4.07275 C 10.2201,4.06146 10.2699,4.12592 10.2893,4.10714 C 10.3083,4.09586 10.358,4.16032 10.3775,4.14154 C 10.3965,4.13026 10.4462,4.19473 10.4656,4.17594 C 10.4847,4.16465 10.5343,4.22913 10.5538,4.21033 C 10.5729,4.19905 10.6224,4.26354 10.6419,4.24472 C 10.661,4.23344 10.7105,4.29794 10.7301,4.27911 C 10.7492,4.26783 10.7986,4.33234 10.8182,4.3135 C 10.8373,4.30222 10.8867,4.36674 10.9063,4.3479 C 10.9254,4.33662 10.9748,4.40114 10.9944,4.38229 C 11.0136,4.37101 11.0629,4.43554 11.0825,4.41668 C 11.1017,4.4054 11.151,4.46994 11.1706,4.45107 C 11.1898,4.43979 11.2391,4.50435 11.2587,4.48547 C 11.2779,4.47419 11.3272,4.53875 11.3468,4.51986 C 11.366,4.50858 11.4153,4.57315 11.4349,4.55426 C 11.4541,4.54298 11.5033,4.60756 11.5229,4.58866 C 11.5422,4.57738 11.5914,4.64197 11.611,4.62306 C 11.6303,4.61178 11.6795,4.67638 11.6991,4.65746 C 11.7184,4.64619 11.7675,4.71079 11.7871,4.69187 C 11.8065,4.68059 11.8556,4.74521 11.8752,4.72628 C 11.8945,4.715 11.9436,4.77963 11.9633,4.76069 C 11.9826,4.74942 12.0317,4.81405 12.0513,4.79511 C 12.0707,4.78383 12.1197,4.84847 12.1394,4.82953 C 12.1588,4.81825 12.2078,4.8829 12.2274,4.86395 C 12.2468,4.85268 12.2958,4.91734 12.3155,4.89838 C 12.3349,4.88711 12.3839,4.95177 12.4035,4.93281 C 12.423,4.92154 12.4719,4.98621 12.4916,4.96725 C 12.511,4.95598 12.5599,5.02066 12.5796,5.00169 C 12.5991,4.99042 12.648,5.05511 12.6677,5.03614 C 12.6872,5.02487 12.736,5.08957 12.7557,5.0706 C 12.7752,5.05933 12.8241,5.12403 12.8438,5.10506 C 12.8633,5.09379 12.9121,5.1585 12.9318,5.13952 C 12.9514,5.12825 13.0001,5.19297 13.0199,5.17399 C 13.0394,5.16273 13.0882,5.22745 13.1079,5.20847 C 13.1275,5.1972 13.1762,5.26194 13.196,5.24295 C 13.2156,5.23169 13.2643,5.29643 13.284,5.27744 C 13.3036,5.26618 13.3523,5.33093 13.3721,5.31194 C 13.3917,5.30068 13.4404,5.36544 13.4602,5.34645 C 13.4798,5.33518 13.5284,5.39995 13.5482,5.38096 C 13.5678,5.3697 13.6165,5.43447 13.6363,5.41548 C 13.6559,5.40422 13.7045,5.469 13.7243,5.45 C 13.744,5.43875 13.7926,5.50354 13.8124,5.48454 C 13.8321,5.47328 13.8807,5.53808 13.9005,5.51908 C 13.9202,5.50783 13.9687,5.57263 13.9885,5.55363 C 14.0082,5.54238 14.0568,5.60719 14.0766,5.58819 C 14.0963,5.57694 14.1449,5.64176 14.1647,5.62276 C 14.1844,5.61151 14.233,5.67634 14.2528,5.65734 C 14.2725,5.64609 14.3211,5.71092 14.3409,5.69192 C 14.3606,5.68067 14.4091,5.74552 14.429,5.72652 C 14.4487,5.71527 14.4972,5.78012 14.5171,5.76112 C 14.5368,5.74987 14.5853,5.81473 14.6052,5.79574 C 14.6249,5.78449 14.6734,5.84935 14.6933,5.83036 C 14.7131,5.81911 14.7615,5.88399 14.7814,5.86499 C 14.8012,5.85375 14.8497,5.91863 14.8695,5.89963 C 14.8893,5.88839 14.9378,5.95328 14.9576,5.93429 C 14.9775,5.92305 15.0259,5.98794 15.0458,5.96895 C 15.0656,5.95771 15.114,6.02261 15.1339,6.00362 C 15.1538,5.99239 15.2022,6.0573 15.222,6.03831 C 15.2419,6.02707 15.2903,6.09199 15.3102,6.073 C 15.3301,6.06177 15.3785,6.12669 15.3983,6.10771 C 15.4182,6.09648 15.4666,6.16141 15.4865,6.14243 C 15.5064,6.1312 15.5548,6.19613 15.5747,6.17716 C 15.5946,6.16592 15.643,6.23087 15.6629,6.21189 C 15.6828,6.20067 15.7312,6.26562 15.751,6.24665 C 15.771,6.23542 15.8194,6.30038 15.8392,6.28141 C 15.8592,6.27018 15.9076,6.33515 15.9274,6.31618 C 15.9474,6.30496 15.9958,6.36993 16.0156,6.35097 C 16.0356,6.33975 16.084,6.40473 16.1039,6.38577 C 16.1239,6.37455 16.1722,6.43953 16.1921,6.42058 C 16.2121,6.40936 16.2604,6.47435 16.2803,6.4554 C 16.3004,6.44418 16.3487,6.50919 16.3686,6.49024 C 16.3886,6.47902 16.437,6.54403 16.4568,6.52508 C 16.4769,6.51387 16.5252,6.57889 16.5451,6.55994 C 16.5652,6.54873 16.6135,6.61376 16.6334,6.59482 C 16.6534,6.58361 16.7018,6.64864 16.7217,6.6297 C 16.7417,6.61849 16.7901,6.68353 16.81,6.6646 C 16.83,6.65339 16.8784,6.71844 16.8983,6.69952 C 16.9184,6.68831 16.9667,6.75336 16.9866,6.73444 C 17.0067,6.72324 17.055,6.7883 17.0749,6.76938 C 17.095,6.75818 17.1434,6.82325 17.1633,6.80433 C 17.1834,6.79313 17.2317,6.85821 17.2516,6.8393 C 17.2717,6.8281 17.3201,6.89319 17.34,6.87428 C 17.3601,6.86308 17.4084,6.92818 17.4283,6.90928 C 17.4485,6.89808 17.4968,6.96318 17.5167,6.94429 C 17.5369,6.93309 17.5852,6.9982 17.6051,6.97931 C 17.6253,6.96812 17.6736,7.03323 17.6935,7.01435 C 17.7137,7.00316 17.7621,7.06828 17.782,7.0494 C 17.8022,7.03821 17.8505,7.10334 17.8704,7.08447 C 17.8906,7.07328 17.9389,7.13842 17.9588,7.11955 C 17.9791,7.10836 18.0274,7.17351 18.0473,7.15464 C 18.0675,7.14346 18.1159,7.20861 18.1358,7.18975 C 18.156,7.17857 18.2044,7.24373 18.2243,7.22488 C 18.2445,7.2137 18.2929,7.27887 18.3128,7.26002 C 18.333,7.24884 18.3814,7.31402 18.4013,7.29518 C 18.4215,7.284 18.4699,7.34919 18.4898,7.33035 C 18.5101,7.31917 18.5585,7.38437 18.5783,7.36554 C 18.5986,7.35436 18.647,7.41957 18.6669,7.40074 C 18.6872,7.38957 18.7356,7.45478 18.7555,7.43596 C 18.7758,7.42479 18.8242,7.49001 18.8441,7.47119 C 18.8644,7.46002 18.9128,7.52525 18.9327,7.50644 C 18.953,7.49528 19.0014,7.56051 19.0213,7.54171 C 19.0416,7.53054 19.09,7.59579 19.1099,7.57699 C 19.1303,7.56583 19.1787,7.63108 19.1986,7.61229 C 19.2189,7.60113 19.2673,7.66639 19.2872,7.6476 C 19.3076,7.63645 19.356,7.70171 19.3759,7.68294 C 19.3963,7.67178 19.4447,7.73706 19.4646,7.71828 C 19.485,7.70713 19.5334,7.77241 19.5533,7.75365 C 19.5737,7.7425 19.6222,7.80779 19.642,7.78903 C 19.6624,7.77788 19.7109,7.84318 19.7308,7.82443 C 19.7512,7.81328 19.7997,7.87859 19.8195,7.85984 C 19.84,7.84869 19.8885,7.91401 19.9083,7.89527 C 19.9288,7.88413 19.9773,7.94946 19.9971,7.93072 C 20.0176,7.91958 20.0661,7.98492 20.0859,7.96619 C 20.1064,7.95505 20.1549,8.02039 20.1748,8.00167 C 20.1952,7.99053 20.2438,8.05589 20.2636,8.03717 C 20.2841,8.02603 20.3326,8.0914 20.3525,8.07269 C 20.373,8.06155 20.4215,8.12693 20.4414,8.10822 C 20.4618,8.09709 20.5104,8.16247 20.5303,8.14378 C 20.5508,8.13265 20.5993,8.19804 20.6192,8.17935 C 20.6397,8.16822 20.6883,8.23362 20.7081,8.21493 C 20.7286,8.20381 20.7772,8.26922 20.7971,8.25054 C 20.8176,8.23942 20.8662,8.30483 20.886,8.28617 C 20.9066,8.27504 20.9552,8.34047 20.975,8.32181 C 20.9956,8.31069 21.0442,8.37612 21.0641,8.35747 C 21.0846,8.34635 21.1333,8.41179 21.1531,8.39315 C 21.1737,8.38203 21.2223,8.44748 21.2421,8.42884 C 21.2627,8.41773 21.3114,8.48319 21.3312,8.46456 C 21.3518,8.45345 21.4005,8.51892 21.4203,8.50029 C 21.4409,8.48918 21.4896,8.55466 21.5094,8.53604 C 21.53,8.52494 21.5787,8.59043 21.5985,8.57181 C 21.6192,8.56071 21.6679,8.62621 21.6877,8.6076 C 21.7083,8.5965 21.7571,8.66201 21.7769,8.64341 C 21.7975,8.63231 21.8463,8.69783 21.8661,8.67924 C 21.8867,8.66814 21.9355,8.73367 21.9553,8.71508 C 21.9759,8.70399 22.0247,8.76953 22.0445,8.75095 C 22.0652,8.73986 22.114,8.8054 22.1338,8.78683 C 22.1544,8.77574 22.2033,8.8413 22.223,8.82274 C 22.2437,8.81165 22.2926,8.87721 22.3123,8.85866 Z" fill="#000" /></svg>