<?xml version="1.0" encoding="utf-8" ?>
<svg baseProfile="tiny" fill-rule="evenodd" height="10.438728261739016px" version="1.2" width="24.829369373619556px" xmlns="http://www.w3.org/2000/svg" xmlns:ev="http://www.w3.org/2001/xml-events" xmlns:xlink="http://www.w3.org/1999/xlink"><defs /><path d="M -0.104745,-0.0519787 C -0.0896922,-0.0653717 0.00725021,0.0130929 0,0 C 0.0185852,-0.00965909 0.0996658,0.0634128 0.109218,0.0500795 C 0.129338,0.0409821 0.206996,0.113402 0.222119,0.101474 C 0.242517,0.0927187 0.31806,0.164881 0.335885,0.152053 C 0.356361,0.143344 0.431186,0.215481 0.449703,0.202309 C 0.4702,0.193611 0.544542,0.265676 0.563299,0.252296 C 0.583809,0.243589 0.657778,0.31557 0.676611,0.302077 C 0.69713,0.293358 0.770755,0.36525 0.789624,0.351667 C 0.810152,0.342933 0.883446,0.414738 0.902338,0.401073 C 0.922875,0.392325 0.995846,0.464044 1.01476,0.450299 C 1.0353,0.441538 1.10796,0.513173 1.12689,0.49935 C 1.14744,0.490575 1.21979,0.562127 1.23873,0.548229 C 1.2593,0.53944 1.33134,0.610912 1.3503,0.596938 C 1.37087,0.588136 1.44261,0.659529 1.46159,0.645482 C 1.48217,0.636666 1.55362,0.707982 1.57261,0.693862 C 1.59321,0.685033 1.66436,0.756273 1.68337,0.742082 C 1.70397,0.73324 1.77484,0.804406 1.79387,0.790144 C 1.81448,0.78129 1.88507,0.852384 1.90411,0.838053 C 1.92474,0.829186 1.99505,0.900209 2.0141,0.885809 C 2.03474,0.87693 2.10478,0.947884 2.12385,0.933417 C 2.14449,0.924526 2.21427,0.995412 2.23335,0.980879 C 2.25401,0.971976 2.32352,1.0428 2.34262,1.0282 C 2.36329,1.01928 2.43254,1.09004 2.45165,1.07537 C 2.47233,1.06645 2.54133,1.13714 2.56045,1.12241 C 2.58114,1.11348 2.64989,1.1841 2.66903,1.16932 C 2.68973,1.16037 2.75824,1.23094 2.77739,1.21608 C 2.7981,1.20713 2.86636,1.27763 2.88553,1.26272 C 2.90625,1.25375 2.97428,1.3242 2.99345,1.30923 C 3.01419,1.30025 3.08198,1.37064 3.10117,1.35561 C 3.12192,1.34662 3.18948,1.41696 3.20868,1.40187 C 3.22944,1.39287 3.29677,1.46315 3.31598,1.44801 C 3.33676,1.439 3.40387,1.50923 3.42309,1.49403 C 3.44387,1.485 3.51077,1.55518 3.53,1.53992 C 3.5508,1.53089 3.61748,1.60102 3.63672,1.58571 C 3.65753,1.57667 3.724,1.64674 3.74325,1.63138 C 3.76407,1.62233 3.83033,1.69235 3.84959,1.67693 C 3.87042,1.66788 3.93648,1.73785 3.95575,1.72238 C 3.9766,1.71331 4.04245,1.78324 4.06173,1.76772 C 4.08259,1.75865 4.14825,1.82853 4.16754,1.81296 C 4.1884,1.80387 4.25387,1.87371 4.27317,1.85809 C 4.29405,1.84899 4.35932,1.91878 4.37863,1.90311 C 4.39952,1.89401 4.4646,1.96376 4.48392,1.94804 C 4.50482,1.93893 4.56971,2.00864 4.58904,1.99287 C 4.60996,1.98375 4.67467,2.05341 4.69401,2.0376 C 4.71493,2.02847 4.77946,2.0981 4.79881,2.08224 C 4.81975,2.0731 4.8841,2.14268 4.90346,2.12678 C 4.92441,2.11764 4.98858,2.18718 5.00795,2.17123 C 5.02891,2.16208 5.09292,2.23158 5.11229,2.21559 C 5.13326,2.20643 5.1971,2.2759 5.21647,2.25986 C 5.23746,2.2507 5.30113,2.32012 5.32052,2.30405 C 5.34152,2.29487 5.40502,2.36426 5.42441,2.34814 C 5.44543,2.33896 5.50877,2.40832 5.52817,2.39216 C 5.54919,2.38297 5.61238,2.45229 5.63178,2.43609 C 5.65282,2.42689 5.71585,2.49618 5.73526,2.47994 C 5.75631,2.47074 5.81918,2.53998 5.8386,2.5237 C 5.85966,2.5145 5.92238,2.58371 5.94181,2.56739 C 5.96288,2.55818 6.02545,2.62736 6.04489,2.61101 C 6.06597,2.60179 6.12839,2.67094 6.14783,2.65454 C 6.16893,2.64532 6.23121,2.71444 6.25065,2.698 C 6.27176,2.68877 6.3339,2.75786 6.35335,2.74139 C 6.37447,2.73215 6.43646,2.80121 6.45592,2.78471 C 6.47705,2.77546 6.5389,2.84449 6.55837,2.82795 C 6.57951,2.8187 6.64123,2.8877 6.6607,2.87113 C 6.68185,2.86187 6.74344,2.93084 6.76291,2.91423 C 6.78408,2.90497 6.84553,2.97391 6.86501,2.95727 C 6.88618,2.948 6.9475,3.01692 6.96699,3.00024 C 6.98818,2.99097 7.04937,3.05985 7.06886,3.04315 C 7.09006,3.03387 7.15112,3.10273 7.17062,3.08599 C 7.19183,3.07671 7.25277,3.14554 7.27227,3.12877 C 7.29349,3.11948 7.35431,3.18829 7.37381,3.17149 C 7.39505,3.16219 7.45574,3.23097 7.47525,3.21414 C 7.4965,3.20484 7.55707,3.2736 7.57659,3.25674 C 7.59784,3.24743 7.6583,3.31617 7.67782,3.29928 C 7.69909,3.28997 7.75943,3.35867 7.77895,3.34176 C 7.80023,3.33244 7.86046,3.40112 7.87998,3.38418 C 7.90127,3.37486 7.96139,3.44352 7.98092,3.42654 C 8.00222,3.41722 8.06222,3.48586 8.08175,3.46885 C 8.10307,3.45953 8.16296,3.52814 8.1825,3.51111 C 8.20382,3.50178 8.26361,3.57037 8.28315,3.55332 C 8.30448,3.54398 8.36416,3.61255 8.38371,3.59547 C 8.40505,3.58613 8.46463,3.65467 8.48417,3.63757 C 8.50553,3.62822 8.565,3.69675 8.58455,3.67962 C 8.60592,3.67027 8.66529,3.73877 8.68484,3.72162 C 8.70622,3.71226 8.76549,3.78075 8.78504,3.76357 C 8.80643,3.75421 8.8656,3.82267 8.88516,3.80547 C 8.90656,3.79611 8.96564,3.86455 8.9852,3.84732 C 9.00661,3.83796 9.06558,3.90638 9.08515,3.88913 C 9.10657,3.87976 9.16545,3.94817 9.18502,3.93089 C 9.20645,3.92152 9.26524,3.98991 9.28481,3.97261 C 9.30625,3.96323 9.36495,4.0316 9.38452,4.01429 C 9.40597,4.0049 9.46457,4.07325 9.48415,4.05592 C 9.50561,4.04653 9.56413,4.11486 9.5837,4.0975 C 9.60517,4.08812 9.6636,4.15643 9.68318,4.13905 C 9.70466,4.12966 9.76301,4.19795 9.78259,4.18055 C 9.80408,4.17116 9.86234,4.23944 9.88192,4.22202 C 9.90342,4.21262 9.96159,4.28088 9.98117,4.26344 C 10.0027,4.25404 10.0608,4.32228 10.0804,4.30483 C 10.1019,4.29542 10.1599,4.36365 10.1795,4.34617 C 10.201,4.33677 10.2589,4.40498 10.2785,4.38748 C 10.3001,4.37807 10.3579,4.44627 10.3775,4.42875 C 10.3991,4.41934 10.4568,4.48752 10.4764,4.46999 C 10.498,4.46057 10.5557,4.52873 10.5753,4.51119 C 10.5968,4.50177 10.6544,4.56992 10.674,4.55235 C 10.6956,4.54293 10.7532,4.61106 10.7728,4.59348 C 10.7943,4.58405 10.8518,4.65217 10.8714,4.63457 C 10.893,4.62515 10.9504,4.69325 10.97,4.67564 C 10.9916,4.6662 11.0489,4.73429 11.0685,4.71666 C 11.0901,4.70723 11.1474,4.77531 11.167,4.75766 C 11.1886,4.74822 11.2458,4.81628 11.2654,4.79862 C 11.287,4.78919 11.3441,4.85723 11.3637,4.83956 C 11.3854,4.83012 11.4424,4.89815 11.462,4.88046 C 11.4837,4.87102 11.5407,4.93904 11.5603,4.92133 C 11.5819,4.91189 11.6388,4.97989 11.6584,4.96218 C 11.6801,4.95273 11.737,5.02072 11.7566,5.00299 C 11.7782,4.99354 11.835,5.06152 11.8546,5.04378 C 11.8763,5.03432 11.933,5.10229 11.9526,5.08453 C 11.9743,5.07508 12.031,5.14303 12.0506,5.12526 C 12.0723,5.11581 12.1289,5.18375 12.1485,5.16597 C 12.1702,5.15651 12.2267,5.22444 12.2463,5.20664 C 12.2681,5.19718 12.3245,5.2651 12.3441,5.24729 C 12.3659,5.23783 12.4223,5.30574 12.4419,5.28792 C 12.4636,5.27845 12.52,5.34635 12.5396,5.32852 C 12.5613,5.31905 12.6177,5.38694 12.6373,5.36909 C 12.659,5.35963 12.7153,5.4275 12.7349,5.40965 C 12.7566,5.40018 12.8128,5.46804 12.8324,5.45017 C 12.8542,5.4407 12.9103,5.50855 12.9299,5.49068 C 12.9517,5.4812 13.0078,5.54905 13.0274,5.53116 C 13.0492,5.52169 13.1052,5.58952 13.1248,5.57162 C 13.1466,5.56214 13.2026,5.62996 13.2222,5.61206 C 13.244,5.60258 13.2999,5.67039 13.3195,5.65248 C 13.3413,5.64299 13.3972,5.7108 13.4168,5.69287 C 13.4386,5.68339 13.4945,5.75118 13.5141,5.73325 C 13.5359,5.72376 13.5917,5.79154 13.6113,5.7736 C 13.6331,5.76412 13.6888,5.83189 13.7084,5.81394 C 13.7303,5.80445 13.786,5.87221 13.8056,5.85425 C 13.8274,5.84476 13.883,5.91252 13.9026,5.89455 C 13.9245,5.88506 13.9801,5.9528 13.9997,5.93483 C 14.0215,5.92534 14.0771,5.99307 14.0967,5.97509 C 14.1186,5.9656 14.1741,6.03332 14.1937,6.01533 C 14.2155,6.00584 14.271,6.07355 14.2906,6.05556 C 14.3125,6.04606 14.3679,6.11377 14.3875,6.09576 C 14.4094,6.08627 14.4647,6.15397 14.4843,6.13595 C 14.5062,6.12646 14.5616,6.19415 14.5812,6.17613 C 14.6031,6.16663 14.6584,6.23431 14.6779,6.21629 C 14.6999,6.20679 14.7551,6.27446 14.7747,6.25643 C 14.7966,6.24693 14.8518,6.3146 14.8714,6.29656 C 14.8933,6.28706 14.9485,6.35472 14.9681,6.33667 C 14.99,6.32717 15.0452,6.39482 15.0647,6.37677 C 15.0867,6.36727 15.1418,6.43491 15.1614,6.41686 C 15.1833,6.40735 15.2384,6.47499 15.2579,6.45693 C 15.2799,6.44742 15.3349,6.51505 15.3545,6.49698 C 15.3765,6.48748 15.4315,6.5551 15.451,6.53703 C 15.473,6.52752 15.528,6.59514 15.5475,6.57706 C 15.5695,6.56755 15.6244,6.63516 15.644,6.61708 C 15.666,6.60757 15.7209,6.67517 15.7404,6.65709 C 15.7624,6.64758 15.8173,6.71517 15.8368,6.69708 C 15.8588,6.68757 15.9136,6.75516 15.9332,6.73706 C 15.9552,6.72755 16.01,6.79514 16.0295,6.77703 C 16.0516,6.76752 16.1063,6.8351 16.1259,6.81699 C 16.1479,6.80748 16.2026,6.87505 16.2222,6.85694 C 16.2442,6.84743 16.2989,6.915 16.3184,6.89688 C 16.3405,6.88737 16.3951,6.95493 16.4147,6.93681 C 16.4367,6.9273 16.4914,6.99485 16.5109,6.97673 C 16.533,6.96722 16.5876,7.03477 16.6071,7.01664 C 16.6292,7.00713 16.6837,7.07467 16.7033,7.05654 C 16.7253,7.04703 16.7799,7.11457 16.7994,7.09644 C 16.8215,7.08692 16.876,7.15445 16.8955,7.13632 C 16.9176,7.1268 16.9721,7.19433 16.9916,7.17619 C 17.0137,7.16668 17.0682,7.2342 17.0877,7.21606 C 17.1098,7.20654 17.1642,7.27406 17.1838,7.25592 C 17.2059,7.2464 17.2603,7.31392 17.2798,7.29577 C 17.3019,7.28625 17.3563,7.35376 17.3758,7.33561 C 17.3979,7.3261 17.4523,7.3936 17.4718,7.37545 C 17.4939,7.36593 17.5483,7.43343 17.5678,7.41528 C 17.5899,7.40576 17.6442,7.47326 17.6637,7.45511 C 17.6858,7.44559 17.7402,7.51308 17.7597,7.49492 C 17.7818,7.4854 17.8361,7.55289 17.8556,7.53473 C 17.8777,7.52521 17.932,7.5927 17.9515,7.57454 C 17.9736,7.56502 18.0278,7.6325 18.0473,7.61434 C 18.0695,7.60482 18.1237,7.6723 18.1432,7.65413 C 18.1653,7.64461 18.2195,7.71209 18.239,7.69392 C 18.2612,7.6844 18.3154,7.75187 18.3348,7.73371 C 18.357,7.72419 18.4112,7.79165 18.4307,7.77349 C 18.4528,7.76397 18.507,7.83143 18.5264,7.81326 C 18.5486,7.80374 18.6027,7.8712 18.6222,7.85303 C 18.6444,7.84351 18.6985,7.91097 18.718,7.8928 C 18.7402,7.88328 18.7943,7.95074 18.8137,7.93257 C 18.8359,7.92304 18.89,7.9905 18.9094,7.97233 C 18.9317,7.96281 18.9857,8.03025 19.0052,8.01208 C 19.0274,8.00256 19.0814,8.07001 19.1009,8.05184 C 19.1231,8.04232 19.1771,8.10976 19.1965,8.09159 C 19.2188,8.08207 19.2728,8.14951 19.2922,8.13134 C 19.3144,8.12182 19.3684,8.18926 19.3879,8.17108 C 19.4101,8.16156 19.4641,8.229 19.4835,8.21083 C 19.5058,8.20131 19.5597,8.26874 19.5791,8.25057 C 19.6014,8.24105 19.6553,8.30848 19.6748,8.29031 C 19.697,8.28079 19.751,8.34822 19.7704,8.33005 C 19.7926,8.32053 19.8466,8.38796 19.866,8.36979 C 19.8882,8.36027 19.9422,8.4277 19.9616,8.40953 C 19.9838,8.40001 20.0377,8.46743 20.0571,8.44926 C 20.0794,8.43974 20.1333,8.50717 20.1527,8.489 C 20.175,8.47948 20.2289,8.5469 20.2483,8.52873 C 20.2706,8.51921 20.3244,8.58663 20.3438,8.56846 C 20.3661,8.55895 20.42,8.62637 20.4394,8.6082 C 20.4617,8.59868 20.5155,8.6661 20.5349,8.64793 C 20.5572,8.63841 20.611,8.70583 20.6304,8.68767 C 20.6527,8.67815 20.7065,8.74557 20.7259,8.7274 C 20.7482,8.71788 20.8021,8.7853 20.8214,8.76714 C 20.8438,8.75762 20.8976,8.82504 20.9169,8.80687 C 20.9393,8.79735 20.9931,8.86477 21.0124,8.84661 C 21.0348,8.83709 21.0885,8.90451 21.1079,8.88635 C 21.1302,8.87683 21.184,8.94425 21.2034,8.92609 C 21.2257,8.91657 21.2795,8.98399 21.2988,8.96583 C 21.3212,8.95631 21.375,9.02373 21.3943,9.00557 C 21.4167,8.99605 21.4704,9.06347 21.4898,9.04531 C 21.5121,9.0358 21.5659,9.10321 21.5852,9.08506 C 21.6076,9.07555 21.6613,9.14296 21.6807,9.12481 C 21.7031,9.11529 21.7568,9.18271 21.7761,9.16456 C 21.7985,9.15505 21.8522,9.22246 21.8716,9.20431 C 21.8939,9.1948 21.9477,9.26221 21.967,9.24407 C 21.9894,9.23456 22.0431,9.30197 22.0624,9.28383 C 22.0848,9.27431 22.1385,9.34173 22.1578,9.32359 C 22.1803,9.31408 22.234,9.38149 22.2533,9.36335 C 22.2757,9.35384 22.3294,9.42126 22.3487,9.40312 C 22.3711,9.39361 22.4248,9.46103 22.4441,9.44289 C 22.4665,9.43338 22.5202,9.5008 22.5395,9.48267 C 22.5619,9.47316 22.6157,9.54058 22.6349,9.52245 C 22.6574,9.51294 22.7111,9.58036 22.7303,9.56223 C 22.7528,9.55272 22.8065,9.62014 22.8258,9.60202 C 22.8482,9.59251 22.9019,9.65993 22.9212,9.64181 C 22.9436,9.6323 22.9973,9.69973 23.0166,9.6816 C 23.039,9.6721 23.0927,9.73952 23.112,9.7214 C 23.1344,9.7119 23.1881,9.77933 23.2074,9.76121 C 23.2298,9.7517 23.2835,9.81913 23.3028,9.80102 C 23.3252,9.79151 23.3789,9.85894 23.3982,9.84083 C 23.4207,9.83133 23.4744,9.89876 23.4936,9.88065 C 23.5161,9.87115 23.5698,9.93858 23.589,9.92047 C 23.6115,9.91097 23.6652,9.97841 23.6844,9.9603 C 23.7069,9.9508 23.7606,10.0182 23.7798,10.0001 C 23.8023,9.99064 23.856,10.0581 23.8752,10.04 C 23.8977,10.0305 23.9514,10.0979 23.9706,10.0798 C 23.9931,10.0703 24.0468,10.1378 24.066,10.1197 C 24.0885,10.1102 24.1422,10.1776 24.1614,10.1595 C 24.184,10.15 24.2377,10.2175 24.2568,10.1994 C 24.2794,10.1899 24.3331,10.2574 24.3523,10.2393 C 24.3748,10.2298 24.4285,10.2972 24.4477,10.2792 C 24.4702,10.2697 24.5239,10.3371 24.5431,10.319 C 24.5656,10.3095 24.6194,10.377 24.6385,10.3589 C 24.6611,10.3494 24.7148,10.4169 24.7339,10.3988 C 24.7565,10.3893 24.8102,10.4568 24.8294,10.4387 Z" fill="#000" /></svg>